<svg width="40" height="40" viewBox="0 0 40 40" fill="none" xmlns="http://www.w3.org/2000/svg">
<path fill-rule="evenodd" clip-rule="evenodd" d="M14.5233 19.9996C14.5233 16.9745 16.9759 14.5218 20.0011 14.5218C23.0261 14.5219 25.478 16.9746 25.478 19.9996C25.478 23.0248 23.0262 25.4764 20.0011 25.4764C16.9759 25.4764 14.5233 23.0248 14.5233 19.9996ZM23.5566 19.9999C23.5566 18.0361 21.9646 16.4443 20.001 16.4443C18.0372 16.4443 16.4455 18.0361 16.4455 19.9999C16.4455 21.9635 18.0372 23.5555 20.001 23.5555C21.9646 23.5555 23.5566 21.9635 23.5566 19.9999Z" fill="white"/>
<path d="M24.4149 14.3061C24.4149 13.5992 24.9882 13.0265 25.6949 13.0265C26.4015 13.0265 26.9749 13.5994 26.9749 14.3061C26.9749 15.0127 26.4015 15.5861 25.6949 15.5861C24.9882 15.5861 24.4149 15.0127 24.4149 14.3061Z" fill="white"/>
<path fill-rule="evenodd" clip-rule="evenodd" d="M15.6027 9.39745C16.7405 9.34567 17.1041 9.33301 20.001 9.33301H19.9976C22.8955 9.33301 23.2577 9.34567 24.3955 9.39745C25.531 9.44945 26.3066 9.62923 26.9866 9.89301C27.6888 10.1652 28.2822 10.5297 28.8755 11.123C29.4689 11.7159 29.8333 12.311 30.1066 13.0126C30.3689 13.6908 30.5489 14.4659 30.6022 15.6015C30.6533 16.7393 30.6666 17.1029 30.6666 19.9998C30.6666 22.8967 30.6533 23.2594 30.6022 24.3972C30.5489 25.5323 30.3689 26.3076 30.1066 26.9861C29.8333 27.6874 29.4689 28.2825 28.8755 28.8754C28.2828 29.4688 27.6886 29.8341 26.9873 30.1066C26.3086 30.3703 25.5326 30.5501 24.397 30.6021C23.2592 30.6539 22.8968 30.6666 19.9996 30.6666C17.1029 30.6666 16.7396 30.6539 15.6018 30.6021C14.4665 30.5501 13.6911 30.3703 13.0125 30.1066C12.3113 29.8341 11.7162 29.4688 11.1236 28.8754C10.5304 28.2825 10.166 27.6874 9.89332 26.9859C9.62976 26.3076 9.44998 25.5325 9.39776 24.3969C9.3462 23.2592 9.33331 22.8967 9.33331 19.9998C9.33331 17.1029 9.34665 16.7391 9.39754 15.6013C9.44865 14.4662 9.62865 13.6908 9.8931 13.0124C10.1664 12.311 10.5309 11.7159 11.1242 11.123C11.7171 10.5299 12.3122 10.1655 13.0138 9.89301C13.692 9.62923 14.4671 9.44945 15.6027 9.39745ZM19.6455 11.2552C19.4298 11.2551 19.2299 11.255 19.0441 11.2553V11.2526C17.0561 11.2548 16.6748 11.2682 15.6908 11.3126C14.6507 11.3604 14.0861 11.5337 13.7101 11.6804C13.2123 11.8742 12.8567 12.1053 12.4834 12.4786C12.1101 12.852 11.8785 13.2075 11.6852 13.7053C11.5392 14.0813 11.3654 14.6458 11.3178 15.6858C11.2667 16.8102 11.2565 17.1462 11.2565 19.9947C11.2565 22.8432 11.2667 23.181 11.3178 24.3054C11.3652 25.3454 11.5392 25.9099 11.6852 26.2854C11.8789 26.7834 12.1101 27.1381 12.4834 27.5114C12.8567 27.8848 13.2123 28.1159 13.7101 28.3092C14.0863 28.4552 14.6507 28.629 15.6908 28.677C16.8152 28.7281 17.1528 28.7392 20.001 28.7392C22.8491 28.7392 23.1868 28.7281 24.3113 28.677C25.3513 28.6294 25.9162 28.4561 26.2918 28.3094C26.7898 28.1161 27.1442 27.885 27.5175 27.5117C27.8909 27.1385 28.1224 26.7841 28.3158 26.2863C28.4618 25.9108 28.6356 25.3463 28.6831 24.3063C28.7342 23.1818 28.7453 22.8441 28.7453 19.9974C28.7453 17.1507 28.7342 16.8129 28.6831 15.6884C28.6358 14.6484 28.4618 14.084 28.3158 13.7084C28.122 13.2106 27.8909 12.8551 27.5175 12.4817C27.1444 12.1084 26.7895 11.8773 26.2918 11.6839C25.9158 11.5379 25.3513 11.3642 24.3113 11.3166C23.1866 11.2655 22.8491 11.2553 20.001 11.2553L19.6455 11.2552Z" fill="white"/>
</svg>
