<svg width="40" height="40" viewBox="0 0 40 40" fill="none" xmlns="http://www.w3.org/2000/svg">
<path d="M31.231 14.9711L31.224 14.9428C30.6567 12.6303 28.0993 10.1489 25.7507 9.63267L25.7242 9.62717C21.9255 8.89641 18.0738 8.89641 14.2759 9.62717L14.2486 9.63267C11.9008 10.1489 9.34337 12.6303 8.77531 14.9428L8.76908 14.9711C8.06778 18.2006 8.06778 21.4757 8.76908 24.7051L8.77531 24.7334C9.31914 26.9472 11.6861 29.3146 13.947 29.9657V32.5471C13.947 33.4814 15.0761 33.9403 15.7182 33.2661L18.3119 30.5474C18.8744 30.5792 19.4372 30.5968 20.0001 30.5968C21.9123 30.5968 23.8253 30.4145 25.7242 30.0492L25.7507 30.0437C28.0993 29.5274 30.6567 27.046 31.224 24.7335L31.231 24.7052C31.9323 21.4757 31.9323 18.2006 31.231 14.9711ZM29.1786 24.2368C28.7998 25.7455 26.858 27.6211 25.3152 27.9676C23.2953 28.3549 21.2595 28.5205 19.2257 28.4637C19.1853 28.4626 19.1464 28.4784 19.1182 28.5076C18.8296 28.8063 17.2245 30.4679 17.2245 30.4679L15.2102 32.5525C15.0629 32.7073 14.8042 32.602 14.8042 32.3883V28.112C14.8042 28.0414 14.7542 27.9814 14.6853 27.9678L14.6842 27.9675C13.1413 27.621 11.2003 25.7454 10.8208 24.2367C10.1896 21.3176 10.1896 18.3585 10.8208 15.4394C11.2003 13.9307 13.1413 12.0551 14.6842 11.7086C18.2117 11.032 21.7884 11.032 25.3152 11.7086C26.8588 12.0551 28.7998 13.9307 29.1786 15.4394C29.8104 18.3585 29.8104 21.3177 29.1786 24.2368Z" fill="white"/>
<path d="M23.3563 26.2106C23.1191 26.138 22.8931 26.0892 22.6832 26.0013C20.5079 25.0912 18.5059 23.9172 16.9201 22.1174C16.0183 21.0939 15.3125 19.9385 14.7158 18.7157C14.4329 18.1358 14.1944 17.5332 13.9514 16.9345C13.7298 16.3886 14.0562 15.8245 14.3999 15.4132C14.7224 15.0271 15.1375 14.7317 15.5869 14.514C15.9377 14.344 16.2838 14.442 16.54 14.7418C17.0939 15.3901 17.6026 16.0715 18.0146 16.8229C18.2679 17.2851 18.1984 17.8501 17.7393 18.1646C17.6277 18.2411 17.526 18.3308 17.4221 18.4172C17.3309 18.4928 17.2451 18.5693 17.1826 18.6717C17.0684 18.8592 17.0629 19.0803 17.1365 19.2842C17.7027 20.8532 18.657 22.0732 20.2231 22.7304C20.4737 22.8355 20.7254 22.9579 21.0141 22.924C21.4976 22.867 21.6541 22.3322 21.9929 22.0528C22.3241 21.7797 22.7473 21.7761 23.104 22.0038C23.4608 22.2315 23.8067 22.4759 24.1505 22.723C24.488 22.9655 24.824 23.2027 25.1353 23.4791C25.4346 23.7449 25.5377 24.0936 25.3692 24.4544C25.0606 25.1151 24.6116 25.6647 23.9639 26.0155C23.781 26.1145 23.5626 26.1465 23.3563 26.2106C23.5626 26.1465 23.1191 26.1379 23.3563 26.2106ZM20.0061 13.7585C22.8514 13.8389 25.1884 15.7431 25.6892 18.5796C25.7745 19.063 25.8049 19.5571 25.8429 20.0477C25.8588 20.254 25.743 20.4501 25.5221 20.4527C25.294 20.4555 25.1914 20.2631 25.1766 20.0568C25.1473 19.6485 25.127 19.2384 25.0712 18.8335C24.7766 16.6962 23.0865 14.9279 20.9767 14.5485C20.6593 14.4913 20.3343 14.4763 20.0128 14.4423C19.8095 14.4208 19.5432 14.4084 19.4982 14.1535C19.4604 13.9399 19.6392 13.7698 19.8409 13.7588C19.8958 13.7558 19.951 13.7583 20.0061 13.7585C22.8514 13.8389 19.951 13.7583 20.0061 13.7585Z" fill="white"/>
<path d="M24.3301 19.4109C24.3254 19.4468 24.3229 19.531 24.3021 19.6104C24.2266 19.8984 23.7935 19.9345 23.6938 19.6438C23.6643 19.5575 23.6598 19.4594 23.6597 19.3665C23.6586 18.7588 23.5277 18.1517 23.2238 17.623C22.9114 17.0795 22.4341 16.6227 21.8743 16.3462C21.5358 16.1791 21.1697 16.0752 20.7987 16.0133C20.6366 15.9863 20.4727 15.9699 20.3098 15.947C20.1123 15.9193 20.0069 15.7924 20.0162 15.5962C20.025 15.4124 20.1582 15.2801 20.3569 15.2914C21.0099 15.3288 21.6406 15.4711 22.2211 15.7811C23.4017 16.4115 24.076 17.4066 24.2728 18.7354C24.2817 18.7955 24.2961 18.8552 24.3006 18.9156C24.3117 19.0648 24.3187 19.2142 24.3301 19.4109C24.3254 19.4468 24.3187 19.2142 24.3301 19.4109Z" fill="white"/>
<path d="M22.5603 19.3416C22.3222 19.3459 22.1948 19.213 22.1703 18.9929C22.1532 18.8395 22.1397 18.684 22.1034 18.5347C22.0319 18.2406 21.8769 17.9681 21.6316 17.7879C21.5158 17.7029 21.3846 17.6409 21.2471 17.6009C21.0725 17.55 20.8912 17.564 20.717 17.5209C20.5278 17.4742 20.4231 17.3197 20.4529 17.1407C20.4799 16.9778 20.6371 16.8507 20.8136 16.8636C21.9167 16.9439 22.7052 17.519 22.8177 18.8285C22.8256 18.9209 22.835 19.0186 22.8146 19.107C22.7798 19.2583 22.6687 19.3342 22.5603 19.3416C22.6687 19.3342 22.3222 19.3459 22.5603 19.3416Z" fill="white"/>
</svg>
