<svg width="40" height="40" viewBox="0 0 40 40" fill="none" xmlns="http://www.w3.org/2000/svg">
<path d="M31.231 14.9714L31.224 14.9431C30.6567 12.6307 28.0993 10.1492 25.7507 9.63297L25.7242 9.62747C21.9255 8.89672 18.0737 8.89672 14.2758 9.62747L14.2485 9.63297C11.9007 10.1492 9.34331 12.6307 8.77525 14.9431L8.76902 14.9714C8.06772 18.2009 8.06772 21.476 8.76902 24.7054L8.77525 24.7337C9.31907 26.9475 11.686 29.3149 13.947 29.966V32.5474C13.947 33.4817 15.0761 33.9406 15.7182 33.2664L18.3118 30.5477C18.8743 30.5795 19.4372 30.5971 20 30.5971C21.9122 30.5971 23.8252 30.4149 25.7242 30.0495L25.7507 30.044C28.0993 29.5277 30.6567 27.0463 31.224 24.7338L31.231 24.7055C31.9323 21.476 31.9323 18.2009 31.231 14.9714ZM29.1785 24.2371C28.7998 25.7458 26.858 27.6214 25.3151 27.9679C23.2953 28.3552 21.2595 28.5208 19.2257 28.464C19.1852 28.4629 19.1464 28.4787 19.1181 28.5079C18.8295 28.8066 17.2244 30.4682 17.2244 30.4682L15.2101 32.5528C15.0628 32.7076 14.8041 32.6023 14.8041 32.3886V28.1123C14.8041 28.0417 14.7541 27.9817 14.6853 27.9681L14.6841 27.9678C13.1413 27.6213 11.2002 25.7457 10.8207 24.237C10.1895 21.3179 10.1895 18.3588 10.8207 15.4397C11.2002 13.931 13.1413 12.0554 14.6841 11.7089C18.2117 11.0323 21.7883 11.0323 25.3151 11.7089C26.8587 12.0554 28.7998 13.931 29.1785 15.4397C29.8104 18.3588 29.8104 21.318 29.1785 24.2371Z" fill="#303030"/>
<path d="M23.3563 26.2109C23.1191 26.1383 22.893 26.0895 22.6831 26.0016C20.5078 25.0916 18.5058 23.9175 16.92 22.1177C16.0182 21.0942 15.3124 19.9388 14.7158 18.716C14.4328 18.1361 14.1944 17.5335 13.9513 16.9348C13.7297 16.3889 14.0561 15.8248 14.3999 15.4135C14.7224 15.0275 15.1374 14.732 15.5869 14.5143C15.9377 14.3443 16.2837 14.4423 16.5399 14.7421C17.0938 15.3904 17.6026 16.0718 18.0145 16.8232C18.2679 17.2854 18.1984 17.8504 17.7392 18.1649C17.6276 18.2414 17.526 18.3311 17.422 18.4175C17.3308 18.4931 17.245 18.5696 17.1826 18.672C17.0683 18.8595 17.0629 19.0806 17.1364 19.2845C17.7026 20.8535 18.6569 22.0735 20.223 22.7307C20.4736 22.8358 20.7253 22.9582 21.014 22.9243C21.4975 22.8673 21.6541 22.3325 21.9929 22.0531C22.324 21.78 22.7472 21.7764 23.104 22.0041C23.4608 22.2318 23.8067 22.4762 24.1505 22.7233C24.4879 22.9658 24.824 23.203 25.1353 23.4794C25.4346 23.7452 25.5376 24.094 25.3691 24.4547C25.0605 25.1154 24.6115 25.665 23.9638 26.0158C23.781 26.1148 23.5625 26.1468 23.3563 26.2109C23.5625 26.1468 23.1191 26.1382 23.3563 26.2109ZM20.006 13.7588C22.8513 13.8392 25.1883 15.7434 25.6891 18.58C25.7745 19.0633 25.8048 19.5574 25.8428 20.048C25.8588 20.2543 25.7429 20.4504 25.5221 20.453C25.294 20.4558 25.1914 20.2634 25.1766 20.0571C25.1473 19.6488 25.1269 19.2387 25.0711 18.8338C24.7766 16.6965 23.0864 14.9282 20.9767 14.5488C20.6592 14.4916 20.3343 14.4766 20.0127 14.4426C19.8094 14.4211 19.5431 14.4087 19.4981 14.1538C19.4603 13.9402 19.6391 13.7701 19.8409 13.7592C19.8957 13.7561 19.9509 13.7586 20.006 13.7588C22.8513 13.8392 19.9509 13.7586 20.006 13.7588Z" fill="#303030"/>
<path d="M24.33 19.4113C24.3254 19.4471 24.3229 19.5313 24.3021 19.6107C24.2266 19.8987 23.7935 19.9348 23.6937 19.6441C23.6642 19.5578 23.6598 19.4597 23.6596 19.3668C23.6586 18.7591 23.5276 18.152 23.2237 17.6233C22.9113 17.0798 22.434 16.623 21.8742 16.3466C21.5357 16.1794 21.1697 16.0755 20.7987 16.0136C20.6365 15.9866 20.4726 15.9702 20.3097 15.9473C20.1123 15.9196 20.0068 15.7927 20.0162 15.5965C20.0249 15.4127 20.1582 15.2804 20.3569 15.2917C21.0098 15.3292 21.6406 15.4715 22.2211 15.7814C23.4016 16.4118 24.0759 17.4069 24.2728 18.7357C24.2817 18.7958 24.296 18.8555 24.3005 18.9159C24.3117 19.0651 24.3187 19.2145 24.33 19.4113C24.3254 19.4471 24.3187 19.2145 24.33 19.4113Z" fill="#303030"/>
<path d="M22.5602 19.3419C22.3222 19.3462 22.1948 19.2133 22.1702 18.9932C22.1532 18.8398 22.1397 18.6843 22.1034 18.535C22.0318 18.2409 21.8769 17.9684 21.6316 17.7883C21.5158 17.7032 21.3845 17.6412 21.2471 17.6012C21.0725 17.5503 20.8911 17.5643 20.7169 17.5213C20.5277 17.4745 20.4231 17.32 20.4528 17.141C20.4799 16.9781 20.637 16.851 20.8135 16.8639C21.9167 16.9442 22.7051 17.5193 22.8176 18.8288C22.8256 18.9212 22.8349 19.0189 22.8146 19.1073C22.7797 19.2586 22.6686 19.3345 22.5602 19.3419C22.6686 19.3345 22.3222 19.3462 22.5602 19.3419Z" fill="#303030"/>
</svg>
