<svg width="100" height="100" viewBox="0 0 100 100" fill="none" xmlns="http://www.w3.org/2000/svg">
<g clip-path="url(#clip0_1946_202233)">
<path d="M54.2161 48.2439C64.3534 45.4367 69.511 54.2541 81.1779 60.1924C98.2869 68.8659 98.9627 80.6344 91.5287 85.385C84.0946 90.1356 74.3129 82.9377 65.4917 85.8169C56.5637 88.3362 52.402 99.7808 43.5452 99.9967C34.6884 100.213 28.5348 89.9917 38.2453 73.0766C44.7546 61.8119 44.2566 51.483 54.2161 48.2439Z" fill="#F0F3FA"/>
<path d="M76.2686 33.4849C72.9962 42.9142 75.2015 52.3074 81.2128 54.4308C87.2241 56.5541 94.7648 50.8318 98.0017 41.2227C101.239 31.6135 99.0688 22.4002 93.0575 20.2768C87.0462 18.1534 79.541 23.8757 76.2686 33.4849Z" fill="#F0F3FA"/>
<path d="M34.9589 68.3318C31.1063 73.458 21.6069 72.7078 13.7415 66.6562C5.876 60.6045 2.62294 51.5431 6.47555 46.4169C10.3281 41.2906 19.8275 42.0408 27.693 48.0925C35.5585 54.1441 38.8115 63.2055 34.9589 68.3318Z" fill="#F0F3FA"/>
<path d="M48.8105 20.4202C50.0198 30.8931 56.3868 38.7388 63.0383 37.983C69.6898 37.2272 74.136 28.0499 72.9267 17.613C71.7173 7.17602 65.3503 -0.705658 58.6988 0.0501199C52.0473 0.805898 47.6011 9.98322 48.8105 20.4202Z" fill="#F0F3FA"/>
<path d="M43.616 22.0028C48.3112 31.432 47.173 41.545 41.2684 44.6041C35.3639 47.6632 26.6137 42.5168 21.9185 33.1235C17.2233 23.7303 18.3616 13.6172 24.2306 10.5581C30.0996 7.49902 38.8853 12.6095 43.616 22.0028Z" fill="#F0F3FA"/>
<g clip-path="url(#clip1_1946_202233)">
<path d="M65.6897 45.1724H82.5862C83.9177 45.1763 84.9961 46.2547 85 47.5862V76.5517C84.9961 77.8831 83.9177 78.9615 82.5862 78.9655H81.3793C80.7128 78.9655 80.1725 79.5058 80.1725 80.1724V85L69.3104 78.9655H43.9656C42.6341 78.9615 41.5557 77.8831 41.5518 76.5517V56.0344L65.6897 45.1724Z" fill="#955BA5"/>
<path d="M15 17.4138V53.6207C15 54.9538 16.0807 56.0345 17.4138 56.0345H21.0345C21.701 56.0345 22.2414 56.5748 22.2414 57.2414V63.2759L35.5172 56.0345H63.2759C64.609 56.0345 65.6897 54.9538 65.6897 53.6207V17.4138C65.6897 16.0807 64.609 15 63.2759 15H17.4138C16.0807 15 15 16.0807 15 17.4138Z" fill="#F0C419"/>
<path d="M40.3448 47.5862C42.3772 47.5862 43.3934 48.7931 45.4259 48.7931C49.4907 48.7931 49.4907 43.9655 47.4583 41.5517C45.4259 39.1379 44.4096 34.3103 40.3448 34.3103C36.28 34.3103 35.2638 39.1379 33.2314 41.5517C31.1989 43.9655 31.1989 48.7931 35.2638 48.7931C37.2962 48.7931 38.3124 47.5862 40.3448 47.5862Z" fill="#35495E"/>
<path d="M35.1343 31.7811C37.1039 31.4392 38.3311 29.033 37.8751 26.4068C37.4192 23.7806 35.4529 21.9288 33.4832 22.2708C31.5136 22.6127 30.2865 25.0189 30.7424 27.6451C31.1983 30.2713 33.1646 32.123 35.1343 31.7811Z" fill="#35495E"/>
<path d="M28.814 40.129C30.4052 39.6342 31.2138 37.6851 30.6199 35.7757C30.0261 33.8662 28.2548 32.7195 26.6636 33.2143C25.0724 33.7092 24.2639 35.6583 24.8577 37.5677C25.4515 39.4771 27.2228 40.6239 28.814 40.129Z" fill="#35495E"/>
<path d="M49.9981 27.6755C50.454 25.0493 49.2269 22.6431 47.2572 22.3012C45.2876 21.9592 43.3212 23.811 42.8653 26.4372C42.4094 29.0634 43.6365 31.4696 45.6062 31.8115C47.5758 32.1535 49.5422 30.3017 49.9981 27.6755Z" fill="#35495E"/>
<path d="M55.8518 37.5786C56.4456 35.6691 55.6371 33.7201 54.0458 33.2252C52.4546 32.7304 50.6833 33.8771 50.0895 35.7865C49.4957 37.696 50.3042 39.6451 51.8954 40.1399C53.4866 40.6348 55.2579 39.488 55.8518 37.5786Z" fill="#35495E"/>
<path d="M19.8275 23.4484C19.161 23.4484 18.6206 22.9081 18.6206 22.2415V19.8277C18.6206 19.1612 19.161 18.6208 19.8275 18.6208C20.4941 18.6208 21.0344 19.1612 21.0344 19.8277V22.2415C21.0344 22.9081 20.4941 23.4484 19.8275 23.4484Z" fill="#F5EFCA"/>
<path d="M19.8275 46.3793C19.161 46.3793 18.6206 45.839 18.6206 45.1724V27.069C18.6206 26.4024 19.161 25.8621 19.8275 25.8621C20.4941 25.8621 21.0344 26.4024 21.0344 27.069V45.1724C21.0344 45.839 20.4941 46.3793 19.8275 46.3793Z" fill="#F5EFCA"/>
<path d="M58.4484 72.9309H47.5863C46.9197 72.9309 46.3794 72.3905 46.3794 71.724C46.3794 71.0574 46.9197 70.5171 47.5863 70.5171H58.4484C59.1149 70.5171 59.6552 71.0574 59.6552 71.724C59.6552 72.3905 59.1149 72.9309 58.4484 72.9309Z" fill="#3D324C"/>
<path d="M78.9657 72.9309H63.276C62.6094 72.9309 62.0691 72.3905 62.0691 71.724C62.0691 71.0574 62.6094 70.5171 63.276 70.5171H78.9657C79.6322 70.5171 80.1726 71.0574 80.1726 71.724C80.1726 72.3905 79.6322 72.9309 78.9657 72.9309Z" fill="#3D324C"/>
<path d="M78.9656 68.1032H47.5863C46.9197 68.1032 46.3794 67.5629 46.3794 66.8963C46.3794 66.2298 46.9197 65.6895 47.5863 65.6895H78.9656C79.6321 65.6895 80.1725 66.2298 80.1725 66.8963C80.1725 67.5629 79.6321 68.1032 78.9656 68.1032Z" fill="#3D324C"/>
<path d="M65.6897 63.2758H47.5863C46.9197 63.2758 46.3794 62.7355 46.3794 62.069C46.3794 61.4024 46.9197 60.8621 47.5863 60.8621H65.6897C66.3563 60.8621 66.8966 61.4024 66.8966 62.069C66.8966 62.7355 66.3563 63.2758 65.6897 63.2758Z" fill="#3D324C"/>
<path d="M78.9656 63.2758H70.5173C69.8508 63.2758 69.3104 62.7355 69.3104 62.069C69.3104 61.4024 69.8508 60.8621 70.5173 60.8621H78.9656C79.6321 60.8621 80.1725 61.4024 80.1725 62.069C80.1725 62.7355 79.6321 63.2758 78.9656 63.2758Z" fill="#3D324C"/>
<path d="M78.9656 58.4482H70.5173C69.8508 58.4482 69.3104 57.9079 69.3104 57.2413C69.3104 56.5748 69.8508 56.0344 70.5173 56.0344H78.9656C79.6321 56.0344 80.1725 56.5748 80.1725 57.2413C80.1725 57.9079 79.6321 58.4482 78.9656 58.4482Z" fill="#3D324C"/>
<path d="M78.9656 53.6206H70.5173C69.8508 53.6206 69.3104 53.0802 69.3104 52.4137C69.3104 51.7471 69.8508 51.2068 70.5173 51.2068H78.9656C79.6321 51.2068 80.1725 51.7471 80.1725 52.4137C80.1725 53.0802 79.6321 53.6206 78.9656 53.6206Z" fill="#3D324C"/>
</g>
</g>
<defs>
<clipPath id="clip0_1946_202233">
<rect width="100" height="100" fill="white"/>
</clipPath>
<clipPath id="clip1_1946_202233">
<rect width="70" height="70" fill="white" transform="translate(15 15)"/>
</clipPath>
</defs>
</svg>
