<svg width="100" height="100" viewBox="0 0 100 100" fill="none" xmlns="http://www.w3.org/2000/svg">
<g clip-path="url(#clip0_1946_202207)">
<path d="M54.2161 48.2439C64.3534 45.4367 69.511 54.2541 81.1779 60.1924C98.2869 68.8659 98.9627 80.6344 91.5287 85.385C84.0946 90.1356 74.3129 82.9377 65.4917 85.8169C56.5637 88.3362 52.402 99.7808 43.5452 99.9967C34.6884 100.213 28.5348 89.9917 38.2453 73.0766C44.7546 61.8119 44.2566 51.483 54.2161 48.2439Z" fill="#F0F3FA"/>
<path d="M76.2686 33.4849C72.9962 42.9142 75.2015 52.3074 81.2128 54.4308C87.2241 56.5541 94.7648 50.8318 98.0017 41.2227C101.239 31.6135 99.0688 22.4002 93.0575 20.2768C87.0462 18.1534 79.541 23.8757 76.2686 33.4849Z" fill="#F0F3FA"/>
<path d="M34.9589 68.3318C31.1063 73.458 21.6069 72.7078 13.7415 66.6562C5.876 60.6045 2.62294 51.5431 6.47555 46.4169C10.3281 41.2906 19.8275 42.0408 27.693 48.0925C35.5585 54.1441 38.8115 63.2055 34.9589 68.3318Z" fill="#F0F3FA"/>
<path d="M48.8105 20.4202C50.0198 30.8931 56.3868 38.7388 63.0383 37.983C69.6898 37.2272 74.136 28.0499 72.9267 17.613C71.7173 7.17602 65.3503 -0.705658 58.6988 0.0501199C52.0473 0.805898 47.6011 9.98322 48.8105 20.4202Z" fill="#F0F3FA"/>
<path d="M43.616 22.0028C48.3112 31.432 47.173 41.545 41.2684 44.6041C35.3639 47.6632 26.6137 42.5168 21.9185 33.1235C17.2233 23.7303 18.3616 13.6172 24.2306 10.5581C30.0996 7.49902 38.8853 12.6095 43.616 22.0028Z" fill="#F0F3FA"/>
<g clip-path="url(#clip1_1946_202207)">
<path d="M84.3333 40.8068C84.3217 43.1349 84.0556 45.4548 83.54 47.7251C81.0783 58.9367 72.3166 73.2868 50.5 80.3334C28.6833 73.2868 19.9216 58.9367 17.46 47.7251C16.9443 45.4548 16.6783 43.1349 16.6666 40.8068C16.6666 29.4901 23.5733 19.6667 33.5833 19.6667C40.0399 19.6929 46.1846 22.4474 50.5 27.2501C54.8153 22.4474 60.96 19.6929 67.4166 19.6667C77.4266 19.6667 84.3333 29.4901 84.3333 40.8068Z" fill="#DF4D60"/>
<path d="M84.3333 40.8067C84.3217 43.1349 84.0556 45.4548 83.54 47.7251C77.2866 55.3201 64.8383 60.5001 50.5 60.5001C36.1616 60.5001 23.7133 55.3201 17.46 47.7251C16.9443 45.4548 16.6783 43.1349 16.6666 40.8067C16.6666 29.4901 23.5733 19.6667 33.5833 19.6667C40.0399 19.6929 46.1846 22.4474 50.5 27.2501C54.8153 22.4474 60.96 19.6929 67.4166 19.6667C77.4266 19.6667 84.3333 29.4901 84.3333 40.8067Z" fill="#FF5364"/>
<path d="M30.6666 25.9329C30.0875 25.9352 29.5943 25.5123 29.5083 24.9396C29.4222 24.3669 29.7694 23.8178 30.3236 23.6498C31.38 23.3272 32.4787 23.1644 33.5833 23.1668C34.2276 23.1668 34.7499 23.6891 34.7499 24.3334C34.7499 24.9778 34.2276 25.5001 33.5833 25.5001C32.7112 25.4981 31.8438 25.6263 31.0096 25.8804C30.8985 25.9149 30.7829 25.9326 30.6666 25.9329Z" fill="#FB7B76"/>
<path d="M21.3334 41.9746C20.6891 41.9746 20.1667 41.4523 20.1667 40.8079C20.1667 34.6864 22.5654 28.9208 26.4271 25.7638C26.7489 25.4922 27.1921 25.4152 27.5867 25.5622C27.9813 25.7092 28.266 26.0574 28.3318 26.4733C28.3975 26.8892 28.2341 27.3082 27.9041 27.5698C24.6211 30.2543 22.5001 35.4506 22.5001 40.8079C22.5001 41.4523 21.9777 41.9746 21.3334 41.9746Z" fill="#FB7B76"/>
<path d="M50.5 65.1666C54.0303 65.1666 54.0303 67.4999 57.6061 67.4999C62.9355 67.4999 63.4395 60.4999 59.9138 56.9999C56.3881 53.4999 56.3835 48.8333 50.5 48.8333C44.6165 48.8333 44.6165 53.4999 41.0861 56.9999C37.5558 60.4999 38.0645 67.4999 43.3938 67.4999C46.9696 67.4999 46.9696 65.1666 50.5 65.1666Z" fill="#35495E"/>
<path d="M44.3671 45.2799C46.9187 44.9139 48.5792 41.7731 48.076 38.2647C47.5727 34.7563 45.0964 32.2089 42.5448 32.5749C39.9932 32.9409 38.3327 36.0817 38.836 39.59C39.3392 43.0984 41.8156 45.6459 44.3671 45.2799Z" fill="#35495E"/>
<path d="M62.154 39.5656C62.6572 36.0572 60.9967 32.9164 58.4451 32.5504C55.8936 32.1845 53.4172 34.7319 52.914 38.2403C52.4108 41.7487 54.0713 44.8895 56.6228 45.2554C59.1744 45.6214 61.6507 43.074 62.154 39.5656Z" fill="#35495E"/>
<path d="M31.8333 65.1668C31.3722 65.1669 30.9542 64.8953 30.767 64.4738L27.1048 56.2325L25.8833 58.6883C25.6847 59.0858 25.2776 59.3359 24.8333 59.3335H16.6667C16.0223 59.3335 15.5 58.8112 15.5 58.1668C15.5 57.5225 16.0223 57.0002 16.6667 57.0002H24.1123L26.1225 52.9787C26.3209 52.5716 26.7398 52.319 27.1923 52.3335C27.6442 52.3434 28.0496 52.6134 28.233 53.0265L31.523 60.4302L34.2063 49.7167C34.3666 49.0959 34.9976 48.7208 35.6195 48.8765C36.2414 49.0323 36.621 49.6607 36.4697 50.2837L32.9697 64.2837C32.8487 64.7662 32.4351 65.1189 31.9395 65.1622C31.9042 65.1656 31.8688 65.1671 31.8333 65.1668Z" fill="#ECF0F1"/>
<path d="M70.3334 62.8335H70.2774C69.7965 62.81 69.3794 62.4935 69.2274 62.0367L65.333 50.37C65.2013 49.974 65.2909 49.5379 65.5679 49.2258C65.845 48.9138 66.2675 48.7732 66.6763 48.8571C67.085 48.9411 67.418 49.2367 67.5497 49.6327L70.4932 58.4468L73.9384 50.6943C74.1337 50.2717 74.5566 50.0008 75.0222 50.0002C75.4912 50.0087 75.9095 50.2974 76.0839 50.7328L78.1232 55.8335H84.3334C84.9777 55.8335 85.5 56.3558 85.5 57.0002C85.5 57.6445 84.9777 58.1668 84.3334 58.1668H77.3334C76.8563 58.1672 76.427 57.877 76.2495 57.4342L74.9429 54.1675L71.3997 62.1417C71.2121 62.5627 70.7943 62.8338 70.3334 62.8335Z" fill="#ECF0F1"/>
<path d="M36.4477 53.2417C38.1874 52.3989 38.6868 49.8353 37.5631 47.5157C36.4393 45.1961 34.1181 43.9989 32.3784 44.8417C30.6387 45.6845 30.1393 48.2481 31.2631 50.5677C32.3868 52.8873 34.708 54.0845 36.4477 53.2417Z" fill="#35495E"/>
<path d="M69.7235 50.5393C70.8472 48.2197 70.3478 45.656 68.6081 44.8133C66.8684 43.9705 64.5472 45.1677 63.4235 47.4873C62.2997 49.8069 62.7991 52.3705 64.5388 53.2133C66.2785 54.056 68.5997 52.8589 69.7235 50.5393Z" fill="#35495E"/>
</g>
</g>
<defs>
<clipPath id="clip0_1946_202207">
<rect width="100" height="100" fill="white"/>
</clipPath>
<clipPath id="clip1_1946_202207">
<rect width="70" height="70" fill="white" transform="translate(15.5 15)"/>
</clipPath>
</defs>
</svg>
