<svg width="100" height="100" viewBox="0 0 100 100" fill="none" xmlns="http://www.w3.org/2000/svg">
<g clip-path="url(#clip0_1946_202264)">
<path d="M54.216 48.2439C64.3533 45.4367 69.5109 54.2541 81.1778 60.1924C98.2868 68.8659 98.9626 80.6344 91.5285 85.385C84.0945 90.1356 74.3128 82.9377 65.4915 85.8169C56.5636 88.3362 52.4019 99.7808 43.5451 99.9967C34.6882 100.213 28.5347 89.9917 38.2452 73.0766C44.7545 61.8119 44.2565 51.483 54.216 48.2439Z" fill="#F0F3FA"/>
<path d="M76.2688 33.4849C72.9964 42.9142 75.2017 52.3074 81.2129 54.4308C87.2242 56.5541 94.765 50.8318 98.0018 41.2227C101.239 31.6135 99.0689 22.4002 93.0576 20.2768C87.0464 18.1534 79.5412 23.8757 76.2688 33.4849Z" fill="#F0F3FA"/>
<path d="M34.9588 68.3318C31.1062 73.458 21.6068 72.7078 13.7414 66.6562C5.87588 60.6045 2.62282 51.5431 6.47542 46.4169C10.328 41.2906 19.8274 42.0408 27.6929 48.0925C35.5583 54.1441 38.8114 63.2055 34.9588 68.3318Z" fill="#F0F3FA"/>
<path d="M48.8105 20.4202C50.0198 30.8931 56.3868 38.7388 63.0383 37.983C69.6898 37.2272 74.136 28.0499 72.9267 17.613C71.7173 7.17602 65.3503 -0.705658 58.6988 0.0501199C52.0473 0.805898 47.6011 9.98322 48.8105 20.4202Z" fill="#F0F3FA"/>
<path d="M43.6162 22.0028C48.3114 31.432 47.1731 41.545 41.2686 44.6041C35.364 47.6632 26.6139 42.5168 21.9187 33.1235C17.2235 23.7303 18.3617 13.6172 24.2307 10.5581C30.0997 7.49902 38.8854 12.6095 43.6162 22.0028Z" fill="#F0F3FA"/>
<g clip-path="url(#clip1_1946_202264)">
<path d="M62.069 67.3793V75.3448C62.069 80.6772 57.7462 85 52.4138 85H47.5862C42.2538 85 37.931 80.6772 37.931 75.3448V63.2759C37.931 62.6093 37.3907 62.069 36.7241 62.069H24.6552C19.3228 62.069 15 57.7462 15 52.4138V47.5862C15 42.2538 19.3228 37.931 24.6552 37.931H36.7241C37.3907 37.931 37.931 37.3907 37.931 36.7241V24.6552C37.931 19.3228 42.2538 15 47.5862 15H52.4138C57.7462 15 62.069 19.3228 62.069 24.6552V67.3793Z" fill="#E64C3C"/>
<path d="M64.4828 66.8965C68.1349 66.8965 68.1349 69.3103 71.834 69.3103C77.3471 69.3103 77.8685 62.069 74.2213 58.4483C70.574 54.8276 70.5692 50 64.4828 50C58.3964 50 58.3964 54.8276 54.7444 58.4483C51.0923 62.069 51.6185 69.3103 57.1316 69.3103C60.8308 69.3103 60.8308 66.8965 64.4828 66.8965Z" fill="#35495E"/>
<path d="M58.1458 46.3336C60.786 45.9549 62.5042 42.7052 61.9835 39.0751C61.4628 35.4451 58.9004 32.8094 56.2602 33.1881C53.62 33.5668 51.9018 36.8165 52.4225 40.4465C52.9432 44.0766 55.5056 46.7123 58.1458 46.3336Z" fill="#35495E"/>
<path d="M49.947 54.5637C51.7467 53.6918 52.2633 51.0398 51.1008 48.6402C49.9384 46.2406 47.5371 45.0022 45.7374 45.874C43.9377 46.7459 43.4211 49.3979 44.5836 51.7975C45.7461 54.1971 48.1474 55.4355 49.947 54.5637Z" fill="#35495E"/>
<path d="M76.5361 40.4106C77.0567 36.7812 75.3389 33.5321 72.6994 33.1535C70.0598 32.7749 67.4981 35.4102 66.9775 39.0395C66.4569 42.6689 68.1747 45.918 70.8142 46.2966C73.4538 46.6752 76.0155 44.0399 76.5361 40.4106Z" fill="#35495E"/>
<path d="M84.3669 51.7594C85.5294 49.3599 85.0128 46.7078 83.2131 45.836C81.4134 44.9641 79.0122 46.2026 77.8497 48.6022C76.6872 51.0018 77.2038 53.6538 79.0035 54.5256C80.8032 55.3975 83.2045 54.159 84.3669 51.7594Z" fill="#35495E"/>
<path d="M19.8275 48.7931C19.161 48.7931 18.6206 48.2528 18.6206 47.5862C18.6246 44.2551 21.324 41.5557 24.6551 41.5518C25.3216 41.5518 25.862 42.0921 25.862 42.7587C25.862 43.4252 25.3216 43.9655 24.6551 43.9655C22.6554 43.9655 21.0344 45.5866 21.0344 47.5862C21.0344 47.9063 20.9072 48.2133 20.6809 48.4396C20.4546 48.666 20.1476 48.7931 19.8275 48.7931Z" fill="#FB7B76"/>
<path d="M30.6897 43.9656H29.4828C28.8162 43.9656 28.2759 43.4252 28.2759 42.7587C28.2759 42.0921 28.8162 41.5518 29.4828 41.5518H30.6897C31.3562 41.5518 31.8966 42.0921 31.8966 42.7587C31.8966 43.4252 31.3562 43.9656 30.6897 43.9656Z" fill="#FB7B76"/>
</g>
</g>
<defs>
<clipPath id="clip0_1946_202264">
<rect width="100" height="100" fill="white"/>
</clipPath>
<clipPath id="clip1_1946_202264">
<rect width="70" height="70" fill="white" transform="translate(15 15)"/>
</clipPath>
</defs>
</svg>
