<svg width="116" height="24" viewBox="0 0 116 24" fill="none" xmlns="http://www.w3.org/2000/svg">
<path d="M5 13V11H19V13H5Z" fill="#008BD2"/>
<path d="M35.71 18.5C35.578 18.5 35.47 18.458 35.386 18.374C35.302 18.29 35.26 18.182 35.26 18.05V6.35C35.26 6.218 35.302 6.11 35.386 6.026C35.482 5.942 35.59 5.9 35.71 5.9H45.7C45.832 5.9 45.94 5.942 46.024 6.026C46.108 6.11 46.15 6.218 46.15 6.35V18.05C46.15 18.182 46.108 18.29 46.024 18.374C45.94 18.458 45.832 18.5 45.7 18.5H43.378C43.246 18.5 43.138 18.458 43.054 18.374C42.97 18.29 42.928 18.182 42.928 18.05V8.78H38.5V18.05C38.5 18.182 38.452 18.29 38.356 18.374C38.272 18.458 38.164 18.5 38.032 18.5H35.71ZM49.1221 18.5C49.0021 18.5 48.8941 18.458 48.7981 18.374C48.7141 18.278 48.6721 18.17 48.6721 18.05V6.35C48.6721 6.218 48.7141 6.11 48.7981 6.026C48.8941 5.942 49.0021 5.9 49.1221 5.9H54.1621C55.6981 5.9 56.9041 6.254 57.7801 6.962C58.6681 7.67 59.1121 8.702 59.1121 10.058C59.1121 11.402 58.6741 12.416 57.7981 13.1C56.9221 13.772 55.7101 14.108 54.1621 14.108H52.0201V18.05C52.0201 18.182 51.9721 18.29 51.8761 18.374C51.7921 18.458 51.6841 18.5 51.5521 18.5H49.1221ZM54.0721 11.624C54.6001 11.624 55.0141 11.492 55.3141 11.228C55.6141 10.952 55.7641 10.55 55.7641 10.022C55.7641 9.53 55.6201 9.14 55.3321 8.852C55.0561 8.552 54.6361 8.402 54.0721 8.402H51.9661V11.624H54.0721ZM65.9842 18.68C64.2922 18.68 62.9602 18.266 61.9882 17.438C61.0162 16.61 60.5002 15.392 60.4402 13.784C60.4282 13.436 60.4222 12.92 60.4222 12.236C60.4222 11.54 60.4282 11.018 60.4402 10.67C60.5002 9.086 61.0222 7.868 62.0062 7.016C63.0022 6.152 64.3282 5.72 65.9842 5.72C67.6402 5.72 68.9662 6.152 69.9622 7.016C70.9582 7.868 71.4802 9.086 71.5282 10.67C71.5522 11.366 71.5642 11.888 71.5642 12.236C71.5642 12.572 71.5522 13.088 71.5282 13.784C71.4682 15.392 70.9522 16.61 69.9802 17.438C69.0082 18.266 67.6762 18.68 65.9842 18.68ZM65.9842 16.088C66.6442 16.088 67.1662 15.89 67.5502 15.494C67.9462 15.098 68.1562 14.492 68.1802 13.676C68.2042 12.98 68.2162 12.488 68.2162 12.2C68.2162 11.888 68.2042 11.396 68.1802 10.724C68.1562 9.908 67.9462 9.302 67.5502 8.906C67.1542 8.51 66.6322 8.312 65.9842 8.312C65.3362 8.312 64.8142 8.51 64.4182 8.906C64.0342 9.302 63.8242 9.908 63.7882 10.724C63.7762 11.06 63.7702 11.552 63.7702 12.2C63.7702 12.836 63.7762 13.328 63.7882 13.676C63.8242 14.492 64.0342 15.098 64.4182 15.494C64.8022 15.89 65.3242 16.088 65.9842 16.088ZM77.9327 18.5C77.8007 18.5 77.6927 18.458 77.6087 18.374C77.5247 18.29 77.4827 18.182 77.4827 18.05V6.35C77.4827 6.218 77.5247 6.11 77.6087 6.026C77.7047 5.942 77.8127 5.9 77.9327 5.9H80.2547C80.3867 5.9 80.4947 5.942 80.5787 6.026C80.6747 6.11 80.7227 6.218 80.7227 6.35V10.688H85.1507V6.35C85.1507 6.218 85.1927 6.11 85.2767 6.026C85.3607 5.942 85.4687 5.9 85.6007 5.9H87.9227C88.0547 5.9 88.1627 5.942 88.2467 6.026C88.3307 6.11 88.3727 6.218 88.3727 6.35V18.05C88.3727 18.182 88.3307 18.29 88.2467 18.374C88.1627 18.458 88.0547 18.5 87.9227 18.5H85.6007C85.4687 18.5 85.3607 18.458 85.2767 18.374C85.1927 18.29 85.1507 18.182 85.1507 18.05V13.568H80.7227V18.05C80.7227 18.182 80.6747 18.29 80.5787 18.374C80.4947 18.458 80.3867 18.5 80.2547 18.5H77.9327ZM90.1748 18.5C90.0788 18.5 89.9888 18.464 89.9048 18.392C89.8328 18.308 89.7968 18.218 89.7968 18.122C89.7968 18.05 89.8028 17.996 89.8148 17.96L94.0448 6.404C94.0808 6.26 94.1588 6.14 94.2788 6.044C94.3988 5.948 94.5548 5.9 94.7468 5.9H97.4108C97.6028 5.9 97.7588 5.948 97.8788 6.044C97.9988 6.14 98.0768 6.26 98.1128 6.404L102.325 17.96L102.361 18.122C102.361 18.218 102.319 18.308 102.235 18.392C102.163 18.464 102.073 18.5 101.965 18.5H99.7508C99.4628 18.5 99.2708 18.374 99.1748 18.122L98.4728 16.286H93.6668L92.9828 18.122C92.8868 18.374 92.6888 18.5 92.3888 18.5H90.1748ZM97.7528 13.694L96.0788 8.942L94.4048 13.694H97.7528ZM108.946 18.68C107.23 18.68 105.886 18.266 104.914 17.438C103.954 16.598 103.444 15.386 103.384 13.802C103.372 13.478 103.366 12.95 103.366 12.218C103.366 11.474 103.372 10.934 103.384 10.598C103.444 9.038 103.966 7.838 104.95 6.998C105.934 6.146 107.266 5.72 108.946 5.72C110.002 5.72 110.95 5.9 111.79 6.26C112.63 6.608 113.29 7.112 113.77 7.772C114.262 8.42 114.514 9.182 114.526 10.058V10.094C114.526 10.19 114.484 10.274 114.4 10.346C114.328 10.406 114.244 10.436 114.148 10.436H111.718C111.562 10.436 111.442 10.406 111.358 10.346C111.274 10.274 111.202 10.148 111.142 9.968C110.974 9.356 110.71 8.93 110.35 8.69C109.99 8.438 109.516 8.312 108.928 8.312C107.512 8.312 106.78 9.104 106.732 10.688C106.72 11.012 106.714 11.51 106.714 12.182C106.714 12.854 106.72 13.364 106.732 13.712C106.78 15.296 107.512 16.088 108.928 16.088C109.516 16.088 109.996 15.962 110.368 15.71C110.74 15.446 110.998 15.02 111.142 14.432C111.19 14.252 111.256 14.132 111.34 14.072C111.424 14 111.55 13.964 111.718 13.964H114.148C114.256 13.964 114.346 14 114.418 14.072C114.502 14.144 114.538 14.234 114.526 14.342C114.514 15.218 114.262 15.986 113.77 16.646C113.29 17.294 112.63 17.798 111.79 18.158C110.95 18.506 110.002 18.68 108.946 18.68Z" fill="#303030"/>
</svg>
