<svg width="273" height="75" viewBox="0 0 273 75" fill="none" xmlns="http://www.w3.org/2000/svg">
<path fill-rule="evenodd" clip-rule="evenodd" d="M37.0742 68.1904C31.2051 65.0897 24.2819 60.7531 18.7621 52.9028C3.83109 31.6728 27.869 20.9492 37.0383 33.3175C37.0517 33.3374 37.109 33.3468 37.1223 33.3258C46.2385 20.9094 70.7516 31.9757 55.4058 52.9028C49.6493 60.7531 42.9628 65.0897 37.0937 68.1904H37.0742Z" fill="white"/>
<path fill-rule="evenodd" clip-rule="evenodd" d="M38.4701 58.0369C38.4177 58.0368 38.3654 58.0304 38.3144 58.018C38.1833 57.987 38.0638 57.9173 37.9708 57.8177C37.8778 57.718 37.8153 57.5928 37.791 57.4572L34.5031 39.113L30.5381 55.7895C30.5086 55.9169 30.4451 56.0333 30.3547 56.1259C30.2642 56.2185 30.1504 56.2835 30.0259 56.3136C29.902 56.3433 29.7725 56.3375 29.6517 56.2968C29.5308 56.2561 29.4232 56.1821 29.3407 56.083L26.8578 53.086H22.0714C21.8885 53.086 21.7132 53.0117 21.5839 52.8794C21.4546 52.7471 21.382 52.5677 21.382 52.3806C21.3819 52.2878 21.3996 52.196 21.4342 52.1103C21.4688 52.0246 21.5195 51.9467 21.5836 51.8811C21.6476 51.8154 21.7236 51.7634 21.8073 51.7279C21.891 51.6923 21.9807 51.6741 22.0714 51.6741H27.1774C27.2775 51.6741 27.3764 51.6963 27.4673 51.7392C27.5582 51.7821 27.6389 51.8446 27.7039 51.9225L29.5169 54.1112L33.9274 35.5647C33.9636 35.4069 34.0523 35.2669 34.1782 35.1686C34.3042 35.0703 34.4595 35.0199 34.6178 35.0259C34.7758 35.0305 34.9274 35.0904 35.0473 35.1958C35.1672 35.3011 35.2481 35.4454 35.2764 35.6045L38.8614 55.5976L41.4743 51.976C41.5382 51.8867 41.6218 51.814 41.7183 51.7639C41.8147 51.7138 41.9213 51.6877 42.0295 51.6877H50.0937C50.2768 51.6877 50.4524 51.7621 50.5818 51.8946C50.7113 52.0271 50.784 52.2068 50.784 52.3942C50.784 52.5816 50.7113 52.7613 50.5818 52.8938C50.4524 53.0263 50.2768 53.1007 50.0937 53.1007H42.3778L39.0263 57.7486C38.9625 57.838 38.8789 57.9107 38.7824 57.9608C38.686 58.0109 38.5793 58.0369 38.4711 58.0369H38.4701Z" fill="#008BD2"/>
<path fill-rule="evenodd" clip-rule="evenodd" d="M52.5953 52.4041C52.5949 52.7305 52.4999 53.0494 52.3225 53.3206C52.145 53.5918 51.893 53.8031 51.5982 53.9278C51.3034 54.0524 50.9792 54.0849 50.6664 54.021C50.3536 53.9572 50.0664 53.7999 49.8409 53.569C49.6155 53.3381 49.4619 53.0441 49.3997 52.7239C49.3376 52.4038 49.3695 52.072 49.4915 51.7704C49.6135 51.4688 49.8201 51.211 50.0852 51.0296C50.3503 50.8481 50.6621 50.7512 50.981 50.751C51.1932 50.7506 51.4034 50.793 51.5995 50.876C51.7956 50.9589 51.9737 51.0807 52.1237 51.2343C52.2737 51.3879 52.3926 51.5703 52.4735 51.771C52.5544 51.9718 52.5958 52.1869 52.5953 52.4041Z" fill="#008BD2"/>
<path fill-rule="evenodd" clip-rule="evenodd" d="M10.565 71.6298C10.565 72.2574 11.0738 72.7662 11.7013 72.7662H62.2464C62.874 72.7662 63.3827 72.2574 63.3827 71.6298V25.1478C63.3827 25.0011 63.4108 24.8559 63.4654 24.7203C63.5201 24.5848 63.6001 24.4617 63.701 24.358C63.8018 24.2543 63.9216 24.1721 64.0534 24.1161C64.1852 24.06 64.3264 24.0313 64.469 24.0314H65.4608C66.584 24.0314 67.0263 22.5757 66.0931 21.9508L37.6046 2.87424C37.222 2.61804 36.7227 2.61805 36.3401 2.87425L7.85339 21.9508C6.9202 22.5758 7.36258 24.0314 8.48569 24.0314H9.47773C9.76565 24.0314 10.0418 24.149 10.2455 24.3583C10.4491 24.5677 10.5637 24.8516 10.564 25.1478L10.565 71.6298ZM64.47 75H9.47773C9.18981 75 8.91368 74.8824 8.71 74.6731C8.50631 74.4637 8.39175 74.1798 8.39148 73.8836V27.4016C8.39148 26.774 7.88271 26.2653 7.25511 26.2653H1.08628C0.852032 26.2654 0.624024 26.1876 0.436319 26.0434C0.248613 25.8993 0.111287 25.6965 0.0448618 25.4654C0.0158767 25.3632 0.00078787 25.2574 2.56375e-05 25.1509C-0.00122633 24.9637 0.0433939 24.7791 0.129767 24.6142C0.21614 24.4493 0.341485 24.3094 0.494241 24.2075L36.3793 0.181349C36.5557 0.0630374 36.7617 3.19503e-05 36.9723 0C37.1826 5.39357e-05 37.3883 0.063066 37.5644 0.181349L73.4504 24.2149C73.645 24.3468 73.7932 24.5396 73.873 24.7648C73.9529 24.99 73.9603 25.2357 73.894 25.4655C73.8278 25.6953 73.6914 25.8972 73.5051 26.0412C73.3188 26.1852 73.0925 26.2637 72.8594 26.2653H66.6896C66.062 26.2653 65.5532 26.774 65.5532 27.4016V73.8836C65.5532 74.1797 65.4389 74.4637 65.2354 74.673C65.0318 74.8824 64.7558 75 64.468 75H64.47Z" fill="white"/>
<path d="M93.9507 49.0569C93.4362 50.5664 92.9613 52.3539 92.526 53.9826C92.0907 52.3937 91.6554 50.5664 91.1409 49.0967L83.4238 27.2887C83.1468 26.4942 82.474 26.1367 81.7221 26.1367C81.4846 26.1367 81.2472 26.1764 81.0097 26.2559C80.1787 26.4545 79.5455 27.1298 79.5455 27.9243C79.5455 28.1229 79.585 28.3612 79.6642 28.5598L89.8349 55.7701C90.3494 57.1604 91.2992 57.5974 92.526 57.5974C93.7133 57.5974 94.6631 57.1604 95.1775 55.8099L105.388 28.4804C105.467 28.2818 105.507 28.0832 105.507 27.8845C105.507 27.0901 104.873 26.4942 104.042 26.2559C103.805 26.2162 103.567 26.1764 103.33 26.1764C102.538 26.1764 101.905 26.5339 101.628 27.3284L93.9507 49.0569Z" fill="white"/>
<path d="M124.177 47.0311C125.404 47.0311 126.156 46.2763 126.156 44.8463C126.156 44.7271 126.156 44.6477 126.156 44.5285C125.76 39.3248 122.515 34.7963 116.737 34.7963C110.286 34.7963 106.725 39.6028 106.725 46.4749C106.725 53.347 110.484 57.9549 116.975 57.9549C122.119 57.9549 124.415 55.3332 125.681 52.7115C125.839 52.4731 125.879 52.2348 125.879 51.9964C125.879 51.2814 125.325 50.8047 124.652 50.6061C124.375 50.5267 124.098 50.4472 123.821 50.4472C123.267 50.4472 122.753 50.7253 122.396 51.4403C121.447 53.5456 119.864 54.9757 117.014 54.9757C112.74 54.9757 110.326 51.917 110.247 47.0311H124.177ZM110.366 44.1313C110.88 40.2384 112.938 37.6961 116.737 37.6961C120.378 37.6961 122.08 40.5959 122.555 43.4163C122.555 43.4957 122.555 43.5751 122.555 43.6149C122.555 43.9724 122.396 44.1313 121.961 44.1313H110.366Z" fill="white"/>
<path d="M132.813 35.3525H129.766C128.777 35.3525 128.341 36.0278 128.341 36.9414C128.341 37.855 128.777 38.4906 129.726 38.4906H132.813V52.1156C132.813 56.2865 135.188 57.9152 138.433 57.9152C140.135 57.9152 141.203 57.5974 142.351 57.0413C142.944 56.7235 143.182 56.1674 143.182 55.6112C143.182 55.3332 143.142 55.0154 143.024 54.7373C142.786 54.1415 142.311 53.7045 141.718 53.7045C141.48 53.7045 141.243 53.784 141.005 53.9031C140.332 54.3004 139.66 54.5784 138.67 54.5784C137.206 54.5784 136.375 53.7443 136.375 51.7978V38.4906H141.441C142.39 38.4906 142.905 37.855 142.905 36.9414C142.905 35.988 142.43 35.3525 141.441 35.3525H136.375V30.546C136.375 29.5132 135.623 28.9571 134.594 28.9571C133.486 28.9571 132.813 29.5132 132.813 30.546V35.3525Z" fill="white"/>
<path d="M175.073 39.3238H158.321V27.7644C158.321 26.6521 157.495 26.1357 156.433 26.1357C155.332 26.1357 154.546 26.6521 154.546 27.7644V55.928C154.546 57.0006 155.332 57.5567 156.433 57.5567C157.495 57.5567 158.321 57.0006 158.321 55.928V42.7797H175.073V55.928C175.073 57.0006 175.899 57.5567 177.04 57.5567C178.062 57.5567 178.849 57.0006 178.849 55.928V27.7644C178.849 26.6521 178.062 26.1357 177.04 26.1357C175.899 26.1357 175.073 26.6521 175.073 27.7644V39.3238Z" fill="white"/>
<path d="M194.263 34.7556C187.892 34.7556 184.078 39.4032 184.078 46.2753C184.078 53.346 187.853 57.9539 194.341 57.9539C200.476 57.9539 204.251 53.1872 204.251 46.2753C204.251 39.3635 200.555 34.7556 194.263 34.7556ZM194.381 37.8143C198.392 37.8143 200.633 41.2305 200.633 46.2356C200.633 51.5188 198.392 54.8952 194.106 54.8952C190.055 54.8952 187.695 51.4393 187.695 46.3945C187.695 41.1113 190.134 37.8143 194.381 37.8143Z" fill="white"/>
<path d="M208.677 50.1285C208.677 54.9747 211.233 57.9142 215.874 57.9142C219.806 57.9142 222.087 55.8883 223.306 53.1077C223.188 53.7433 223.07 54.5377 223.07 54.9747V56.0869C223.07 57.08 223.817 57.5567 224.879 57.5567C225.901 57.5567 226.609 57.0403 226.609 55.9678V36.6624C226.609 35.5898 225.862 35.0734 224.84 35.0734C223.778 35.0734 223.031 35.5898 223.031 36.6624V47.7054C223.031 49.2546 222.638 50.486 221.694 51.8366C220.357 53.7036 218.666 54.6966 216.581 54.6966C213.671 54.6966 212.295 52.7899 212.295 49.3737V36.6624C212.295 35.5898 211.548 35.0734 210.486 35.0734C209.424 35.0734 208.677 35.5898 208.677 36.6624V50.1285Z" fill="white"/>
<path d="M240.715 47.6656C244.293 48.3807 245.316 49.4532 245.316 51.3996C245.316 53.4255 243.271 54.8158 240.125 54.8158C237.018 54.8158 235.406 53.6638 234.698 51.3599C234.462 50.6052 233.754 50.2874 233.007 50.2874C232.849 50.2874 232.653 50.3271 232.456 50.3668C231.709 50.5257 231.041 51.0818 231.041 51.8763C231.041 52.0352 231.08 52.1941 231.119 52.3927C232.142 55.928 235.091 57.9539 240.125 57.9539C245.63 57.9539 248.855 55.1336 248.855 51.3202C248.855 47.1493 246.81 45.6398 241.698 44.5672L239.259 44.0508C235.956 43.3358 235.209 42.5414 235.209 40.7141C235.209 39.0457 236.703 37.7349 239.889 37.7349C242.13 37.7349 243.861 38.6485 244.372 40.436C244.568 41.1908 245.276 41.5086 245.984 41.5086C246.181 41.5086 246.417 41.4688 246.613 41.4291C247.321 41.2305 247.99 40.7141 247.99 39.9594C247.99 39.8005 247.95 39.6416 247.911 39.4827C246.928 36.5829 244.136 34.7159 239.771 34.7159C234.698 34.7159 231.63 37.1788 231.63 40.7936C231.63 44.5672 233.636 46.2753 238.473 47.2287L240.715 47.6656Z" fill="white"/>
<path d="M269.625 46.9904C270.844 46.9904 271.591 46.2356 271.591 44.8056C271.591 44.6864 271.591 44.607 271.591 44.4878C271.198 39.2841 267.973 34.7556 262.232 34.7556C255.822 34.7556 252.282 39.5621 252.282 46.4342C252.282 53.3063 256.018 57.9142 262.468 57.9142C267.58 57.9142 269.861 55.2925 271.119 52.6708C271.276 52.4324 271.316 52.1941 271.316 51.9557C271.316 51.2407 270.765 50.764 270.097 50.5654C269.821 50.486 269.546 50.4065 269.271 50.4065C268.72 50.4065 268.209 50.6846 267.855 51.3996C266.911 53.5049 265.338 54.935 262.507 54.935C258.26 54.935 255.861 51.8763 255.782 46.9904H269.625ZM255.9 44.0906C256.411 40.1977 258.456 37.6554 262.232 37.6554C265.849 37.6554 267.54 40.5552 268.012 43.3756C268.012 43.455 268.012 43.5345 268.012 43.5742C268.012 43.9317 267.855 44.0906 267.423 44.0906H255.9Z" fill="white"/>
<path d="M111.651 73.525H107.955V65.5297H111.566C112.263 65.5297 112.815 65.7175 113.22 66.0931C113.634 66.4687 113.84 66.9601 113.84 67.5675C113.84 68.0469 113.702 68.4545 113.427 68.7901C113.151 69.1178 112.815 69.3216 112.417 69.4015C112.847 69.4654 113.216 69.6892 113.524 70.0727C113.84 70.4563 113.998 70.8879 113.998 71.3673C113.998 72.0146 113.788 72.5381 113.366 72.9376C112.953 73.3292 112.381 73.525 111.651 73.525ZM111.396 68.9939C111.842 68.9939 112.186 68.874 112.43 68.6343C112.673 68.3946 112.794 68.0869 112.794 67.7113C112.794 67.3357 112.669 67.0281 112.417 66.7883C112.174 66.5406 111.834 66.4167 111.396 66.4167H108.964V68.9939H111.396ZM111.445 72.6379C111.915 72.6379 112.284 72.5141 112.551 72.2664C112.819 72.0186 112.953 71.683 112.953 71.2594C112.953 70.8679 112.819 70.5402 112.551 70.2765C112.292 70.0128 111.923 69.8809 111.445 69.8809H108.964V72.6379H111.445Z" fill="white"/>
<path d="M120.916 73.525H115.602V65.5297H120.916V66.4167H116.612V68.9939H120.831V69.8809H116.612V72.6379H120.916V73.525Z" fill="white"/>
<path d="M125.542 73.525H124.532V66.4167H121.966V65.5297H128.12V66.4167H125.542V73.525Z" fill="white"/>
<path d="M134.775 73.525H129.461V65.5297H134.775V66.4167H130.47V68.9939H134.69V69.8809H130.47V72.6379H134.775V73.525Z" fill="white"/>
<path d="M137.394 73.525H136.384V65.5297H139.643C140.43 65.5297 141.05 65.7614 141.504 66.2249C141.958 66.6884 142.185 67.2598 142.185 67.9391C142.185 68.6183 141.954 69.1897 141.492 69.6532C141.038 70.1167 140.422 70.3484 139.643 70.3484H137.394V73.525ZM139.522 69.4614C140 69.4614 140.389 69.3216 140.689 69.0419C140.989 68.7542 141.139 68.3866 141.139 67.9391C141.139 67.4915 140.989 67.1279 140.689 66.8482C140.389 66.5606 140 66.4167 139.522 66.4167H137.394V69.4614H139.522Z" fill="white"/>
<path d="M144.494 73.525H143.522V65.5297H144.531V71.7749L149.2 65.5297H150.234V73.525H149.225V67.1479L144.494 73.525Z" fill="white"/>
<path d="M158.892 73.525H157.883V69.857H153.141V73.525H152.131V65.5297H153.141V68.9699H157.883V65.5297H158.892V73.525Z" fill="white"/>
<path d="M167.732 73.525H166.577L165.859 71.7509H161.822L161.105 73.525H159.949L163.208 65.5297H164.461L167.732 73.525ZM165.555 70.8639L163.841 66.5606L162.114 70.8639H165.555Z" fill="white"/>
<path d="M169.802 73.525H168.792V65.5297H172.051C172.838 65.5297 173.458 65.7614 173.912 66.2249C174.366 66.6884 174.593 67.2598 174.593 67.9391C174.593 68.6183 174.362 69.1897 173.9 69.6532C173.446 70.1167 172.83 70.3484 172.051 70.3484H169.802V73.525ZM171.93 69.4614C172.408 69.4614 172.797 69.3216 173.097 69.0419C173.397 68.7542 173.547 68.3866 173.547 67.9391C173.547 67.4915 173.397 67.1279 173.097 66.8482C172.797 66.5606 172.408 66.4167 171.93 66.4167H169.802V69.4614H171.93Z" fill="white"/>
<path d="M182.691 73.525H181.682V69.857H176.939V73.525H175.93V65.5297H176.939V68.9699H181.682V65.5297H182.691V73.525Z" fill="white"/>
<path d="M185.56 73.525H184.587V65.5297H185.596V71.7749L190.266 65.5297H191.299V73.525H190.29V67.1479L185.56 73.525Z" fill="white"/>
<path d="M194.169 73.525H193.197V65.5297H194.206V71.7749L198.875 65.5297H199.909V73.525H198.9V67.1479L194.169 73.525ZM198.681 64.0193C198.154 64.7226 197.445 65.0742 196.553 65.0742C195.669 65.0742 194.956 64.7226 194.413 64.0193L194.862 63.6357C195.284 64.2111 195.847 64.4988 196.553 64.4988C197.266 64.4988 197.826 64.2111 198.231 63.6357L198.681 64.0193Z" fill="white"/>
<path d="M211.435 74.9994V73.525H204.941V65.5297H205.951V72.6379H210.693V65.5297H211.703V72.6379H212.444V74.9994H211.435Z" fill="white"/>
<path d="M219.043 73.525H213.729V65.5297H219.043V66.4167H214.738V68.9939H218.958V69.8809H214.738V72.6379H219.043V73.525Z" fill="white"/>
<path d="M227.414 73.525H226.404V69.857H221.662V73.525H220.653V65.5297H221.662V68.9699H226.404V65.5297H227.414V73.525Z" fill="white"/>
<path d="M232.326 73.525H231.316V66.4167H228.75V65.5297H234.904V66.4167H232.326V73.525Z" fill="white"/>
<path d="M237.254 73.525H236.245V65.5297H239.504C240.29 65.5297 240.911 65.7614 241.365 66.2249C241.819 66.6884 242.046 67.2598 242.046 67.9391C242.046 68.6183 241.814 69.1897 241.352 69.6532C240.898 70.1167 240.282 70.3484 239.504 70.3484H237.254V73.525ZM239.382 69.4614C239.861 69.4614 240.25 69.3216 240.55 69.0419C240.85 68.7542 241 68.3866 241 67.9391C241 67.4915 240.85 67.1279 240.55 66.8482C240.25 66.5606 239.861 66.4167 239.382 66.4167H237.254V69.4614H239.382Z" fill="white"/>
</svg>
