<svg width="20" height="20" fill="none" xmlns="http://www.w3.org/2000/svg"><g clip-path="url(#clip0_2850_1817)" fill="#fff"><path d="M20 5.29V4.12h-2.256l-1.863-1.863V0H14.71v1.853h-1.476V0h-1.171v1.853h-1.476V0H9.414v1.853H7.938V0H6.767v1.853H5.29V0H4.119v2.256L2.256 4.119H0V5.29h1.853v1.475H0v1.172h1.853v1.476H0v1.172h1.853v1.476H0v1.171h1.853v1.476H0v1.172h2.256l1.863 1.863V20H5.29v-1.853h1.475V20h1.172v-1.853h1.476V20h1.172v-1.853h1.476V20h1.171v-1.853h1.476V20h1.172v-2.256l1.863-1.863H20V14.71h-1.853v-1.476H20v-1.171h-1.853v-1.476H20V9.414h-1.853V7.938H20V6.767h-1.853V5.29H20zm-4.454 10.256H4.454V4.454h11.092v11.092z"/><path d="M9.623 9.86c-.811-.225-1.224.48-2.157.956-1.369.693-1.423 1.635-.828 2.015.595.38 1.377-.196 2.083.035.714.201 1.047 1.117 1.755 1.134.709.017 1.201-.8.424-2.154-.52-.9-.48-1.727-1.277-1.986zM7.858 8.679c.262.754.086 1.506-.395 1.675-.481.17-1.084-.287-1.343-1.056-.26-.769-.086-1.506.395-1.676.481-.17 1.082.288 1.343 1.057zm3.305 2.788c.308.41 1.068.35 1.698-.134.629-.485.89-1.21.58-1.62-.307-.41-1.067-.35-1.697.135-.629.484-.889 1.209-.58 1.619zm-1.108-3.833c-.097.837-.606 1.465-1.138 1.405-.532-.06-.888-.795-.791-1.63.097-.835.606-1.465 1.138-1.405.532.06.888.795.791 1.63zm.415.126c-.375.755-.284 1.564.189 1.808.472.245 1.172-.167 1.548-.918.375-.752.284-1.56-.185-1.805-.47-.245-1.173.164-1.551.915z"/></g><defs><clipPath id="clip0_2850_1817"><path fill="#fff" d="M0 0h20v20H0z"/></clipPath></defs></svg>