<svg width="20" height="20" fill="none" xmlns="http://www.w3.org/2000/svg"><g clip-path="url(#clip0_2850_6604)"><path fill-rule="evenodd" clip-rule="evenodd" d="M3.483 11.011l5.506 5.506 7.254-8.377-4.383-4.384-8.377 7.255zM19.07 2.364L20 .957 19.043 0l-1.406.93 1.434 1.433zm.218 2.26L17.19 7.047 12.953 2.81 15.377.711l3.912 3.912zM8.041 17.611l-1.924 2.221a.508.508 0 01-.374.168.717.717 0 01-.523-.206L.206 14.78A.716.716 0 010 14.257a.509.509 0 01.168-.374l2.221-1.924 5.652 5.652zm3.755-5.86a.72.72 0 01-1.02 0l-.753-.753-.753.753a.722.722 0 01-1.02-1.02l.753-.754-.753-.753a.722.722 0 111.02-1.02l.753.753.753-.753a.722.722 0 011.02 1.02l-.753.753.753.753a.722.722 0 010 1.02z" fill="#fff"/></g><defs><clipPath id="clip0_2850_6604"><path fill="#fff" d="M0 0h20v20H0z"/></clipPath></defs></svg>