<svg width="50" height="50" fill="none" xmlns="http://www.w3.org/2000/svg"><path fill-rule="evenodd" clip-rule="evenodd" d="M18.154 25a6.848 6.848 0 1113.695 0 6.848 6.848 0 01-13.695 0zm11.292 0a4.445 4.445 0 10-8.89 0 4.445 4.445 0 008.89 0z" fill="#fff"/><path d="M30.519 17.883a1.6 1.6 0 113.2 0 1.6 1.6 0 01-3.2 0z" fill="#fff"/><path fill-rule="evenodd" clip-rule="evenodd" d="M19.503 11.747c1.423-.065 1.877-.08 5.498-.08h-.004c3.622 0 4.075.015 5.497.08 1.42.065 2.39.29 3.24.62.877.34 1.619.795 2.36 1.537a6.544 6.544 0 011.54 2.362c.327.848.552 1.817.619 3.236.064 1.423.08 1.877.08 5.498 0 3.621-.016 4.075-.08 5.497-.067 1.419-.292 2.388-.62 3.236a6.545 6.545 0 01-1.539 2.362 6.522 6.522 0 01-2.36 1.539c-.848.33-1.818.554-3.238.62-1.422.064-1.875.08-5.496.08-3.621 0-4.075-.016-5.498-.08-1.419-.066-2.388-.29-3.236-.62a6.528 6.528 0 01-2.361-1.54 6.534 6.534 0 01-1.538-2.361c-.33-.848-.554-1.817-.62-3.236-.064-1.423-.08-1.876-.08-5.497s.016-4.076.08-5.498c.064-1.419.289-2.388.62-3.236a6.544 6.544 0 011.538-2.362 6.529 6.529 0 012.362-1.537c.848-.33 1.817-.555 3.236-.62zm5.054 2.322h-.752v-.003c-2.485.003-2.961.02-4.191.075-1.3.06-2.006.277-2.476.46a4.138 4.138 0 00-1.534.998 4.131 4.131 0 00-.997 1.533c-.183.47-.4 1.176-.46 2.476-.063 1.405-.076 1.825-.076 5.386 0 3.56.013 3.983.076 5.388.06 1.3.277 2.006.46 2.475.242.623.53 1.066.997 1.533a4.13 4.13 0 001.534.997c.47.182 1.175.4 2.476.46 1.405.064 1.827.078 5.387.078 3.56 0 3.983-.014 5.388-.078 1.3-.06 2.006-.276 2.476-.46a4.121 4.121 0 001.532-.997c.467-.466.756-.91.998-1.532.182-.47.4-1.175.459-2.475.064-1.405.078-1.828.078-5.386s-.014-3.98-.078-5.386c-.06-1.3-.277-2.006-.46-2.475a4.138 4.138 0 00-.997-1.533 4.122 4.122 0 00-1.532-.998c-.47-.182-1.176-.4-2.476-.459-1.406-.064-1.828-.077-5.388-.077h-.444z" fill="#fff"/></svg>