<svg width="20" height="20" fill="none" xmlns="http://www.w3.org/2000/svg"><path d="M10.47 13.188a.413.413 0 00.411-.411v-.192a.413.413 0 00-.412-.412H3.593a.413.413 0 00-.412.412v.192c0 .226.186.412.412.412h6.878z" fill="#fff"/><path d="M14.787 4.699a7.027 7.027 0 00-2.238-1.51l-.004-.002a.612.612 0 00-.751.233l-.478.743a1.528 1.528 0 00-.5-.08c-.112 0-.22.013-.326.035l.842-1.314.262-.407a.617.617 0 00-.188-.853L9.156.097A.618.618 0 008.3.284L4.387 6.387c-.183.287-.1.67.187.853l.427.274-.194.302-.194.303-.121.19a.617.617 0 00.187.852l.367.235c.286.183.67.1.852-.188l.122-.19.193-.302.194-.303.42.27a.618.618 0 00.855-.187L9.288 5.99a1.552 1.552 0 00.39.729c.295.313.717.506 1.185.492a1.572 1.572 0 001.429-2.096c.43.235.83.533 1.186.89a5.15 5.15 0 011.52 3.667 5.15 5.15 0 01-1.52 3.667 5.159 5.159 0 01-2.144 1.293.615.615 0 01-.183.027H9.125a.617.617 0 01-.618-.618v-.138h-2.95v2.78a3.11 3.11 0 01.193-.006h8.858a1.508 1.508 0 00.717-2.626 7.017 7.017 0 001.526-4.376 7.02 7.02 0 00-2.063-4.977zm-3.972 1.513a.561.561 0 01-.562-.564.562.562 0 11.563.564zm3.746 9.462a.521.521 0 01-.743-.48.527.527 0 11.743.48zm-9.005 1.732A2.6 2.6 0 003.15 20h10.794a.617.617 0 00.618-.618V17.4H5.75c-.067 0-.13.002-.195.007z" fill="#fff"/></svg>