<svg width="20" height="20" fill="none" xmlns="http://www.w3.org/2000/svg"><path d="M9.057 9.649c-2.028-.562-3.06 1.202-5.393 2.39-3.421 1.734-3.557 4.088-2.07 5.038 1.487.95 3.443-.49 5.208.086 1.785.504 2.618 2.793 4.389 2.836 1.771.044 3.002-2 1.06-5.384-1.302-2.253-1.202-4.319-3.194-4.966zM4.646 6.697c.655 1.886.214 3.764-.989 4.19-1.202.424-2.71-.72-3.357-2.642-.648-1.922-.214-3.765.989-4.19 1.202-.424 2.703.72 3.357 2.642zm8.262 6.969c.77 1.026 2.67.875 4.244-.335 1.573-1.21 2.223-3.022 1.453-4.048-.77-1.025-2.67-.875-4.244.335-1.573 1.21-2.223 3.023-1.453 4.048zm-2.77-9.582c-.242 2.095-1.515 3.664-2.846 3.513-1.33-.152-2.22-1.987-1.977-4.074C5.557 1.435 6.83-.141 8.16.01c1.33.151 2.22 1.987 1.978 4.074zm1.039.316c-.94 1.887-.712 3.91.47 4.52 1.18.613 2.93-.417 3.87-2.295.938-1.879.71-3.901-.463-4.513-1.174-.612-2.931.41-3.877 2.289z" fill="#008BD2"/></svg>