<svg width="240" height="66" fill="none" xmlns="http://www.w3.org/2000/svg"><path fill-rule="evenodd" clip-rule="evenodd" d="M32.593 60.007c-5.16-2.728-11.246-6.544-16.099-13.453C3.368 27.872 24.5 18.435 32.561 29.32c.012.018.062.026.074.008 8.014-10.927 29.564-1.189 16.073 17.227-5.06 6.909-10.938 10.725-16.098 13.453h-.017z" fill="#008BD2"/><path fill-rule="evenodd" clip-rule="evenodd" d="M33.82 51.073a.604.604 0 01-.439-.193.627.627 0 01-.158-.317l-2.89-16.143-3.486 14.675a.625.625 0 01-.162.296.603.603 0 01-.618.15.608.608 0 01-.273-.188l-2.183-2.637h-4.208a.599.599 0 01-.428-.182.629.629 0 01.196-1.013.592.592 0 01.232-.048h4.49a.598.598 0 01.462.219l1.594 1.926 3.877-16.32a.617.617 0 01.22-.35.599.599 0 01.764.024c.106.093.177.22.202.36l3.152 17.594 2.297-3.187a.61.61 0 01.488-.254h7.09a.6.6 0 01.428.182.63.63 0 010 .88.6.6 0 01-.429.182h-6.783l-2.946 4.09a.609.609 0 01-.488.254h-.001z" fill="#fff"/><path fill-rule="evenodd" clip-rule="evenodd" d="M46.237 46.116c0 .287-.083.568-.24.807a1.426 1.426 0 01-.636.534 1.387 1.387 0 01-1.545-.316 1.486 1.486 0 01-.307-1.583 1.44 1.44 0 01.522-.651 1.394 1.394 0 011.792.18 1.483 1.483 0 01.414 1.03z" fill="#fff"/><path fill-rule="evenodd" clip-rule="evenodd" d="M9.288 63.034a1 1 0 001 1H54.72a1 1 0 001-1V22.13a1.008 1.008 0 01.28-.695.951.951 0 01.675-.287h.871c.989 0 1.378-1.28.557-1.831L33.06 2.53a1 1 0 00-1.114 0L6.904 19.317c-.821.55-.432 1.83.556 1.83h.872c.253 0 .496.104.675.288.18.184.28.434.28.695v40.904zM56.677 66H8.332a.941.941 0 01-.675-.288.998.998 0 01-.28-.694V24.113a1 1 0 00-1-1H.955a.935.935 0 01-.571-.195.983.983 0 01-.384-.785 1.005 1.005 0 01.114-.473.971.971 0 01.32-.357L31.982.16a.935.935 0 011.042 0l31.548 21.15a.978.978 0 01.371.483c.07.198.077.414.019.617a.984.984 0 01-.342.506.937.937 0 01-.568.197H58.63a1 1 0 00-1 1v40.905c0 .26-.1.51-.28.694a.94.94 0 01-.674.288h.002z" fill="#95C11F"/><path d="M82.677 43.17c-.453 1.328-.871 2.901-1.254 4.334-.383-1.398-.766-3.006-1.219-4.3l-6.791-19.19c-.244-.7-.836-1.014-1.498-1.014-.209 0-.418.035-.626.105-.732.175-1.289.769-1.289 1.468 0 .175.035.385.105.56l8.95 23.944c.452 1.224 1.288 1.608 2.368 1.608 1.045 0 1.88-.384 2.333-1.573l8.985-24.05a1.4 1.4 0 00.105-.524c0-.699-.557-1.223-1.289-1.433a3.818 3.818 0 00-.627-.07c-.696 0-1.253.315-1.497 1.014l-6.756 19.12zm26.599-1.783c1.08 0 1.741-.664 1.741-1.923v-.28c-.348-4.578-3.204-8.563-8.288-8.563-5.677 0-8.811 4.23-8.811 10.277 0 6.047 3.308 10.102 9.02 10.102 4.527 0 6.547-2.307 7.661-4.614.14-.21.174-.42.174-.63 0-.629-.487-1.048-1.079-1.223-.244-.07-.488-.14-.731-.14-.488 0-.941.245-1.254.874-.836 1.853-2.229 3.111-4.737 3.111-3.76 0-5.885-2.691-5.955-6.991h12.259zm-12.154-2.552c.453-3.425 2.263-5.663 5.607-5.663 3.204 0 4.701 2.552 5.119 5.034v.175c0 .314-.139.454-.522.454H97.122zm19.754-7.725h-2.682c-.871 0-1.254.594-1.254 1.398 0 .804.383 1.363 1.219 1.363h2.717v11.99c0 3.67 2.089 5.104 4.945 5.104 1.497 0 2.438-.28 3.448-.769.522-.28.731-.769.731-1.258 0-.245-.035-.525-.139-.77-.209-.524-.627-.908-1.15-.908-.209 0-.417.07-.626.175-.592.349-1.185.594-2.055.594-1.289 0-2.02-.734-2.02-2.447v-11.71h4.458c.835 0 1.288-.56 1.288-1.364 0-.839-.418-1.398-1.288-1.398h-4.458v-4.23c0-.909-.662-1.398-1.567-1.398-.975 0-1.567.49-1.567 1.398v4.23z" fill="#008BD2"/><path d="M154.064 34.605h-14.742V24.433c0-.979-.727-1.433-1.661-1.433-.969 0-1.661.454-1.661 1.433v24.784c0 .944.692 1.433 1.661 1.433.934 0 1.661-.489 1.661-1.433v-11.57h14.742v11.57c0 .944.727 1.433 1.731 1.433.9 0 1.592-.489 1.592-1.433V24.433c0-.979-.692-1.433-1.592-1.433-1.004 0-1.731.454-1.731 1.433v10.172zm16.887-4.02c-5.606 0-8.963 4.09-8.963 10.138 0 6.222 3.322 10.277 9.032 10.277 5.399 0 8.721-4.195 8.721-10.277 0-6.083-3.253-10.137-8.79-10.137zm.104 2.692c3.53 0 5.502 3.006 5.502 7.41 0 4.65-1.972 7.621-5.744 7.621-3.565 0-5.641-3.04-5.641-7.48 0-4.65 2.146-7.55 5.883-7.55zm12.581 10.837c0 4.264 2.249 6.851 6.333 6.851 3.46 0 5.467-1.783 6.54-4.23-.104.56-.207 1.259-.207 1.643v.98c0 .873.657 1.292 1.591 1.292.9 0 1.523-.454 1.523-1.398V32.263c0-.943-.657-1.398-1.557-1.398-.934 0-1.592.455-1.592 1.398v9.718c0 1.364-.346 2.447-1.177 3.636-1.176 1.643-2.664 2.517-4.498 2.517-2.561 0-3.773-1.678-3.773-4.685V32.263c0-.943-.657-1.398-1.591-1.398-.935 0-1.592.455-1.592 1.398v11.85zm28.193-2.168c3.149.63 4.049 1.573 4.049 3.286 0 1.783-1.8 3.007-4.568 3.007-2.734 0-4.153-1.014-4.776-3.042-.208-.664-.831-.944-1.488-.944-.139 0-.312.035-.485.07-.657.14-1.245.63-1.245 1.329 0 .14.034.28.069.454.9 3.111 3.495 4.894 7.925 4.894 4.844 0 7.682-2.482 7.682-5.838 0-3.67-1.799-4.998-6.298-5.942l-2.146-.455c-2.907-.629-3.564-1.328-3.564-2.936 0-1.468 1.315-2.622 4.118-2.622 1.973 0 3.495.804 3.945 2.377.173.664.796.944 1.419.944a3 3 0 00.554-.07c.623-.175 1.211-.629 1.211-1.293 0-.14-.035-.28-.069-.42-.866-2.551-3.323-4.194-7.164-4.194-4.464 0-7.163 2.167-7.163 5.348 0 3.32 1.765 4.824 6.021 5.663l1.973.384zm25.441-.594c1.072 0 1.73-.664 1.73-1.922v-.28c-.346-4.58-3.184-8.564-8.236-8.564-5.641 0-8.756 4.23-8.756 10.277 0 6.047 3.288 10.102 8.963 10.102 4.499 0 6.506-2.307 7.614-4.614.138-.21.173-.42.173-.63 0-.629-.485-1.048-1.073-1.223-.242-.07-.485-.14-.727-.14-.484 0-.934.245-1.246.874-.83 1.853-2.214 3.111-4.706 3.111-3.738 0-5.848-2.691-5.918-6.99h12.182zM225.192 38.8c.45-3.425 2.25-5.663 5.572-5.663 3.183 0 4.672 2.552 5.087 5.034v.175c0 .314-.139.454-.519.454h-10.14z" fill="#95C11F"/><path d="M98.253 64.703H95v-7.036h3.178c.614 0 1.099.165 1.456.495.364.331.545.764.545 1.298 0 .422-.121.78-.364 1.076a1.53 1.53 0 01-.888.538c.378.056.703.253.974.59.278.338.417.718.417 1.14 0 .57-.185 1.03-.556 1.382-.364.344-.867.516-1.509.516zm-.225-3.988c.393 0 .696-.105.91-.316.214-.211.321-.482.321-.813 0-.33-.11-.6-.332-.812-.214-.218-.513-.327-.899-.327h-2.14v2.268h2.14zm.043 3.207c.414 0 .739-.11.974-.327.236-.218.353-.513.353-.886 0-.345-.117-.633-.353-.865-.228-.232-.553-.348-.974-.348h-2.183v2.426h2.183zm8.335.781h-4.676v-7.036h4.676v.78h-3.788v2.268h3.714v.78h-3.714v2.427h3.788v.78zm4.071 0h-.889v-6.256h-2.258v-.78h5.415v.78h-2.268v6.255zm8.125 0h-4.676v-7.036h4.676v.78h-3.788v2.268h3.713v.78h-3.713v2.427h3.788v.78zm2.304 0h-.888v-7.036h2.868c.692 0 1.238.204 1.637.611.4.408.6.911.6 1.509 0 .598-.204 1.1-.61 1.508-.4.408-.942.612-1.627.612h-1.98v2.796zm1.873-3.576c.421 0 .763-.123 1.027-.37.264-.253.396-.576.396-.97s-.132-.714-.396-.96c-.264-.253-.606-.38-1.027-.38h-1.873v2.68h1.873zm4.376 3.576h-.856v-7.036h.888v5.495l4.109-5.495h.91v7.035h-.888v-5.611l-4.163 5.611zm12.67 0h-.888v-3.228h-4.173v3.227h-.889v-7.035h.889v3.027h4.173v-3.027h.888v7.035zm7.779 0h-1.016l-.632-1.562h-3.553l-.631 1.562h-1.017l2.868-7.036h1.103l2.878 7.035zm-1.915-2.342l-1.509-3.787-1.52 3.787h3.029zm3.737 2.342h-.889v-7.036h2.868c.692 0 1.238.204 1.638.611.399.408.599.911.599 1.509 0 .598-.204 1.1-.61 1.508-.4.408-.942.612-1.627.612h-1.979v2.796zm1.872-3.576c.421 0 .764-.123 1.028-.37.264-.253.396-.576.396-.97s-.132-.714-.396-.96c-.264-.253-.607-.38-1.028-.38h-1.872v2.68h1.872zm9.47 3.576h-.888v-3.228h-4.174v3.227h-.888v-7.035h.888v3.027h4.174v-3.027h.888v7.035zm2.524 0h-.856v-7.036h.889v5.495l4.109-5.495h.909v7.035h-.888v-5.611l-4.163 5.611zm7.577 0h-.856v-7.036h.888v5.495l4.109-5.495h.91v7.035h-.888v-5.611l-4.163 5.611zm3.97-8.365c-.464.618-1.088.928-1.873.928-.777 0-1.405-.31-1.883-.928l.396-.338c.371.506.867.76 1.487.76.628 0 1.12-.254 1.477-.76l.396.338zM186.063 66v-1.297h-5.715v-7.036h.889v6.255h4.173v-6.255h.888v6.255h.653V66h-.888zm6.695-1.297h-4.676v-7.036h4.676v.78h-3.788v2.268h3.713v.78h-3.713v2.427h3.788v.78zm7.366 0h-.888v-3.228h-4.174v3.227h-.888v-7.035h.888v3.027h4.174v-3.027h.888v7.035zm4.322 0h-.888v-6.256H201.3v-.78h5.415v.78h-2.269v6.255zm4.338 0h-.888v-7.036h2.867c.692 0 1.238.204 1.638.611.399.408.599.911.599 1.509 0 .598-.203 1.1-.61 1.508-.399.408-.942.612-1.627.612h-1.979v2.796zm1.872-3.576c.421 0 .764-.123 1.028-.37.264-.253.396-.576.396-.97s-.132-.714-.396-.96c-.264-.253-.607-.38-1.028-.38h-1.872v2.68h1.872z" fill="#008BD2"/></svg>