<svg width="25" height="25" fill="none" xmlns="http://www.w3.org/2000/svg"><g clip-path="url(#clip0_2920_3833)" fill="#fff"><path d="M11.953 16.318v3.273c.902 0 1.636-.734 1.636-1.637 0-.902-.734-1.636-1.636-1.636zm-5.182 0h-.818v1.636h.818a.819.819 0 000-1.636z"/><path d="M17.313.5H4.861C3.658.5 2.68 1.48 2.68 2.682v19.636c0 1.203.978 2.182 2.182 2.182h15.272a2.184 2.184 0 002.182-2.182V5.503L17.313.5zM6.771 19.59h-.819v1.637H4.316v-6.545h2.455c1.352 0 2.454 1.1 2.454 2.454a2.458 2.458 0 01-2.454 2.455zm5.181 1.637h-1.636v-6.545h1.636a3.275 3.275 0 013.273 3.272 3.275 3.275 0 01-3.273 3.273zm9.055-4.909h-3.6v1.091h2.727v1.636h-2.727v2.182h-1.636v-4.909c0-.902.734-1.636 1.636-1.636h3.6v1.636zm-5.236-9.273V1.591l5.454 5.454h-5.454z"/></g><defs><clipPath id="clip0_2920_3833"><path fill="#fff" transform="translate(.5 .5)" d="M0 0h24v24H0z"/></clipPath></defs></svg>