<svg width="36" height="36" fill="none" xmlns="http://www.w3.org/2000/svg"><g clip-path="url(#clip0_2840_1894)" fill="#fff"><path d="M7.313 36h-4.5a1.125 1.125 0 01-1.125-1.125v-3.938c0-.62.503-1.125 1.125-1.125h3.375v-1.687H2.813a1.125 1.125 0 110-2.25h4.5c.62 0 1.125.504 1.125 1.125v3.937c0 .622-.504 1.125-1.125 1.125H3.938v1.688h3.375a1.125 1.125 0 010 2.25zm9-10.125c-.622 0-1.125.504-1.125 1.125v2.812h-2.25V27a1.125 1.125 0 00-2.25 0v3.937c0 .622.503 1.125 1.125 1.125h3.375v2.813a1.125 1.125 0 002.25 0V27c0-.621-.504-1.125-1.125-1.125zM20.25 36a1.125 1.125 0 01-.976-1.683l4.5-7.875a1.125 1.125 0 011.953 1.116l-4.5 7.875a1.124 1.124 0 01-.978.567zm12.937 0a1.125 1.125 0 01-1.125-1.125v-6.75h-3.375a1.125 1.125 0 110-2.25h4.5c.622 0 1.125.504 1.125 1.125v7.875c0 .621-.503 1.125-1.125 1.125zM18 0C10.866 0 5.063 5.804 5.063 12.937c0 .428.028 4.207 1 6.143.203.47 1.807 3.903 5.565 4.53a1.125 1.125 0 00.37-2.22 4.504 4.504 0 01-1.728-.68c.892-.215 1.748-.67 2.384-1.306a4.749 4.749 0 001.37-3.617c-.077-1.16-.603-2.171-1.481-2.845-.426-.326-1.289-.786-3.86-1.013a30.711 30.711 0 00-1.315-.086C7.918 6.463 12.476 2.25 18 2.25s10.082 4.212 10.632 9.593c-.387.017-.84.044-1.315.086-2.571.227-3.434.687-3.86 1.013-.878.674-1.404 1.684-1.48 2.845a4.749 4.749 0 001.37 3.617c.904.904 2.255 1.447 3.517 1.447.214 0 .425-.016.632-.048 1.086-.168 1.945-.764 2.418-1.677.995-1.922 1.023-5.757 1.023-6.188C30.937 5.804 25.134 0 18 0zm-6.826 14.728c.457.35.581.85.604 1.206a2.502 2.502 0 01-.715 1.879c-.557.556-1.488.88-2.214.767-.556-.086-.713-.39-.765-.49-.43-.83-.654-2.587-.735-4 1.796.084 3.445.347 3.825.638zm16.742 3.363c-.052.1-.209.403-.765.489-.725.112-1.657-.21-2.214-.767a2.503 2.503 0 01-.715-1.879c.023-.357.147-.855.604-1.206.38-.291 2.03-.554 3.826-.638-.081 1.412-.305 3.168-.736 4z"/></g><defs><clipPath id="clip0_2840_1894"><path fill="#fff" d="M0 0h36v36H0z"/></clipPath></defs></svg>