<svg width="20" height="20" fill="none" xmlns="http://www.w3.org/2000/svg"><path d="M17.5 3.75C17.5 1.976 16.131 0 14.167 0c-.908 0-1.552.11-2.176.216-.607.103-1.18.2-1.991.2-.811 0-1.384-.097-1.991-.2C7.385.11 6.74 0 5.833 0 3.87 0 2.5 1.976 2.5 3.75c0 1.198.933 3.863 1.788 5.59-.339 2.027.17 8.892 1.316 10.308.235.291.48.352.646.352 1.425 0 1.548-1.761 1.678-3.626.175-2.512.426-4.29 2.072-4.29 1.646 0 1.897 1.778 2.072 4.29.13 1.865.253 3.626 1.678 3.626.165 0 .411-.061.646-.352 1.147-1.416 1.655-8.28 1.316-10.309.855-1.726 1.788-4.391 1.788-5.589z" fill="#fff"/></svg>