<svg width="20" height="20" fill="none" xmlns="http://www.w3.org/2000/svg"><g clip-path="url(#clip0_2850_2802)" fill="#fff"><path d="M9.408 6.107l-.903.902 1.347 1.347-.828.828-1.347-1.347-.86.861 1.346 1.347-.828.828-1.347-1.346-.861.86 1.347 1.347-.828.829-1.347-1.347-1.43 1.43 4.486 4.485 6.538-6.539-4.485-4.485zM16.343 0l-.829.828.47.47-2.432 2.43-1.616-1.615-.828.828.732.733-1.604 1.604 4.486 4.486 1.604-1.604.733.732.828-.828-1.616-1.616 2.432-2.431.469.469.828-.829L16.343 0zM2.97 14.404l-1.29 1.29.9.898L0 19.172.828 20l2.58-2.58.898.9 1.29-1.29-2.626-2.626z"/></g><defs><clipPath id="clip0_2850_2802"><path fill="#fff" d="M0 0h20v20H0z"/></clipPath></defs></svg>