<svg width="36" height="36" fill="none" xmlns="http://www.w3.org/2000/svg"><path d="M28.108 13.474l-.006-.025c-.51-2.081-2.813-4.315-4.926-4.78l-.024-.004a27.15 27.15 0 00-10.304 0l-.024.005c-2.113.464-4.415 2.698-4.926 4.779l-.006.025a20.503 20.503 0 000 8.76l.006.026c.49 1.993 2.62 4.123 4.654 4.71v2.323c0 .84 1.017 1.254 1.594.647l2.335-2.447a27.236 27.236 0 006.671-.448l.024-.005c2.113-.465 4.415-2.698 4.926-4.78l.006-.025a20.505 20.505 0 000-8.76zm-1.847 8.34c-.341 1.357-2.089 3.045-3.477 3.357-1.818.349-3.65.498-5.48.447a.13.13 0 00-.098.04l-1.704 1.763-1.813 1.877a.212.212 0 01-.365-.148V25.3a.132.132 0 00-.107-.13h-.001c-1.389-.312-3.136-2-3.477-3.358a18.606 18.606 0 010-7.917c.341-1.358 2.088-3.046 3.477-3.358a25.286 25.286 0 019.568 0c1.389.312 3.136 2 3.477 3.358.568 2.627.568 5.29 0 7.917z" fill="#fff"/><path d="M21.02 23.59c-.213-.066-.416-.11-.605-.189-1.958-.819-3.76-1.875-5.187-3.495-.812-.921-1.447-1.961-1.984-3.062-.254-.521-.469-1.064-.688-1.603-.2-.491.095-.999.404-1.369.29-.347.664-.613 1.068-.81.316-.152.627-.064.858.206.498.583.956 1.197 1.327 1.873.228.416.166.924-.248 1.207-.1.07-.192.15-.285.228a.937.937 0 00-.216.229.632.632 0 00-.041.551c.51 1.412 1.368 2.51 2.778 3.102.225.094.452.204.712.174.435-.051.576-.533.88-.784.299-.246.68-.25 1-.044.322.205.633.425.942.647.304.218.607.432.887.68.27.24.362.554.21.878-.277.595-.681 1.09-1.265 1.405-.164.09-.36.118-.546.176.185-.058-.214-.066 0 0zm-3.014-11.207c2.56.072 4.664 1.786 5.114 4.339.077.435.104.88.139 1.321.014.186-.09.362-.29.365-.204.002-.297-.171-.31-.357-.026-.367-.045-.736-.095-1.1-.265-1.924-1.786-3.516-3.685-3.857-.286-.051-.578-.065-.867-.096-.184-.019-.423-.03-.464-.26-.034-.192.127-.345.309-.355.05-.002.099 0 .149 0 2.56.072-.05 0 0 0z" fill="#fff"/><path d="M21.897 17.47c-.004.032-.006.108-.025.18-.068.259-.458.291-.548.03a.79.79 0 01-.03-.25 3.161 3.161 0 00-.393-1.57c-.28-.488-.71-.9-1.214-1.148a3.471 3.471 0 00-.968-.3c-.146-.024-.294-.039-.44-.06-.178-.024-.273-.139-.264-.315a.276.276 0 01.306-.274c.588.033 1.156.161 1.678.44 1.063.568 1.67 1.463 1.847 2.66.008.053.02.107.024.161.01.135.017.27.027.446-.004.032-.01-.177 0 0z" fill="#fff"/><path d="M20.304 17.408c-.214.004-.329-.116-.35-.314-.016-.138-.028-.278-.06-.413a1.162 1.162 0 00-.425-.672 1.106 1.106 0 00-.347-.168c-.157-.046-.32-.033-.477-.072-.17-.042-.264-.181-.237-.342a.308.308 0 01.324-.25c.993.073 1.703.59 1.804 1.769.007.083.015.171-.003.25-.031.137-.131.205-.229.212.098-.007-.214.004 0 0z" fill="#fff"/></svg>