<svg width="52" height="52" fill="none" xmlns="http://www.w3.org/2000/svg"><path fill-rule="evenodd" clip-rule="evenodd" d="M26 52c14.36 0 26-11.64 26-26S40.36 0 26 0 0 11.64 0 26s11.64 26 26 26z" fill="#7360F2"/><path d="M40.6 19.463l-.009-.037c-.738-3.006-4.062-6.232-7.115-6.903l-.035-.007a39.216 39.216 0 00-14.883 0l-.035.007c-3.052.671-6.377 3.897-7.115 6.903l-.008.037a29.615 29.615 0 000 12.654l.008.037c.707 2.878 3.784 5.955 6.723 6.802v3.356c0 1.214 1.468 1.81 2.302.934l3.372-3.534c.732.041 1.463.064 2.195.064 2.486 0 4.973-.237 7.441-.712l.035-.007c3.053-.671 6.377-3.897 7.115-6.903l.01-.037a29.615 29.615 0 000-12.654zm-2.668 12.045c-.492 1.961-3.017 4.4-5.023 4.85a36.553 36.553 0 01-7.916.645.187.187 0 00-.14.057l-2.461 2.549-2.619 2.71a.306.306 0 01-.528-.214v-5.559a.191.191 0 00-.154-.188h-.002c-2.005-.45-4.529-2.889-5.022-4.85a26.876 26.876 0 010-11.436c.493-1.962 3.017-4.4 5.022-4.85 4.586-.88 9.236-.88 13.82 0 2.007.45 4.53 2.888 5.023 4.85a26.847 26.847 0 010 11.436z" fill="#fff"/><path d="M30.363 34.074c-.308-.094-.602-.158-.875-.272-2.828-1.183-5.43-2.71-7.492-5.049-1.172-1.33-2.09-2.833-2.866-4.422-.367-.754-.677-1.537-.993-2.316-.288-.71.136-1.443.583-1.977.419-.502.959-.886 1.543-1.17.456-.22.906-.093 1.239.297.72.843 1.381 1.728 1.917 2.705.33.601.239 1.335-.358 1.744-.145.1-.277.216-.413.329-.118.098-.23.197-.31.33a.913.913 0 00-.06.797c.735 2.04 1.976 3.626 4.012 4.48.326.136.653.296 1.028.252.629-.075.832-.77 1.273-1.133.43-.355.98-.36 1.444-.064.464.296.913.614 1.36.935.44.316.876.624 1.28.983.39.346.524.8.305 1.268-.401.859-.985 1.573-1.827 2.03-.238.128-.522.17-.79.253.268-.083-.308-.094 0 0zm-4.355-16.187c3.699.104 6.737 2.58 7.388 6.267.11.628.15 1.27.2 1.908.02.269-.13.523-.417.527-.297.004-.43-.247-.45-.515-.038-.53-.064-1.064-.137-1.59-.383-2.779-2.58-5.077-5.322-5.57-.413-.075-.836-.094-1.254-.139-.264-.028-.61-.044-.669-.375-.049-.278.184-.499.446-.513.071-.004.143 0 .215 0 3.699.104-.072 0 0 0z" fill="#fff"/><path d="M31.629 25.235c-.006.046-.01.156-.036.259-.099.374-.662.421-.791.043a1.136 1.136 0 01-.045-.36c-.001-.79-.171-1.58-.566-2.267a4.198 4.198 0 00-1.755-1.66 5.016 5.016 0 00-1.398-.432c-.21-.035-.424-.057-.636-.087-.256-.036-.393-.2-.381-.456a.399.399 0 01.443-.396c.849.049 1.669.234 2.423.637 1.535.82 2.412 2.113 2.668 3.84.011.079.03.156.035.235.015.194.024.388.039.644-.006.046-.015-.256 0 0z" fill="#fff"/><path d="M29.328 25.144c-.31.006-.475-.167-.507-.453-.022-.2-.04-.401-.087-.596-.093-.382-.294-.736-.613-.97a1.596 1.596 0 00-.5-.244c-.227-.066-.463-.047-.69-.103-.245-.061-.381-.262-.343-.495a.445.445 0 01.47-.36c1.433.104 2.459.852 2.605 2.555.01.12.022.247-.004.361-.046.197-.19.296-.33.305.14-.01-.31.006 0 0z" fill="#fff"/></svg>