<svg width="50" height="50" fill="none" xmlns="http://www.w3.org/2000/svg"><path d="M39.039 18.714l-.01-.035c-.708-2.89-3.905-5.992-6.84-6.638l-.034-.007a37.71 37.71 0 00-14.31 0l-.034.007c-2.935.646-6.132 3.747-6.842 6.638l-.008.035a28.477 28.477 0 000 12.168l.008.035c.68 2.767 3.639 5.727 6.465 6.54v3.227c0 1.168 1.411 1.742 2.214.899l3.242-3.398a37.813 37.813 0 009.265-.623l.033-.007c2.936-.645 6.133-3.747 6.842-6.638l.009-.035c.876-4.037.876-8.13 0-12.168zm-2.566 11.582c-.473 1.886-2.9 4.23-4.83 4.664-2.524.484-5.069.69-7.611.62a.18.18 0 00-.134.055l-2.368 2.45-2.518 2.606a.294.294 0 01-.507-.205V35.14a.184.184 0 00-.148-.18h-.002c-1.928-.433-4.355-2.778-4.83-4.664a25.84 25.84 0 010-10.996c.475-1.886 2.902-4.23 4.83-4.664 4.41-.846 8.88-.846 13.289 0 1.93.433 4.356 2.778 4.829 4.664.79 3.648.79 7.348 0 10.996z" fill="#fff"/><path d="M29.195 32.764c-.296-.091-.579-.152-.841-.262-2.72-1.138-5.222-2.605-7.204-4.855-1.127-1.28-2.01-2.724-2.755-4.252-.354-.725-.652-1.478-.956-2.226-.277-.683.131-1.388.56-1.902.404-.483.923-.852 1.485-1.124.438-.213.87-.09 1.19.285.693.81 1.33 1.662 1.844 2.601.317.578.23 1.284-.344 1.677-.14.096-.267.208-.397.316a1.31 1.31 0 00-.299.318.878.878 0 00-.058.766c.708 1.96 1.901 3.486 3.859 4.307.313.132.628.285.988.242.605-.07.8-.74 1.224-1.089.414-.341.943-.345 1.389-.06.446.284.878.59 1.308.898.422.303.842.6 1.231.945.374.332.503.768.292 1.22-.385.825-.947 1.512-1.756 1.95-.229.124-.502.165-.76.245.258-.08-.296-.091 0 0zm-4.188-15.566c3.557.101 6.478 2.481 7.104 6.027.107.604.145 1.222.192 1.835.02.258-.124.503-.4.506-.286.004-.414-.237-.432-.495-.037-.51-.062-1.023-.132-1.529-.368-2.671-2.481-4.882-5.118-5.356-.397-.072-.803-.09-1.205-.133-.254-.027-.587-.042-.643-.36-.048-.268.176-.48.428-.494.069-.004.138 0 .206 0 3.557.1-.069 0 0 0z" fill="#fff"/><path d="M30.413 24.264c-.006.045-.01.15-.035.25-.095.36-.636.405-.76.041a1.093 1.093 0 01-.044-.346c0-.76-.165-1.519-.545-2.18a4.035 4.035 0 00-1.686-1.596 4.823 4.823 0 00-1.345-.416c-.202-.034-.407-.054-.611-.083-.247-.035-.379-.193-.367-.438a.384.384 0 01.426-.381c.816.046 1.605.224 2.33.612 1.476.788 2.319 2.032 2.565 3.693.011.075.029.15.035.225.014.186.022.373.037.62-.006.044-.015-.247 0 0z" fill="#fff"/><path d="M28.2 24.177c-.297.006-.457-.16-.487-.436-.022-.191-.039-.386-.084-.572-.09-.368-.283-.709-.59-.934a1.535 1.535 0 00-.48-.234c-.219-.063-.445-.046-.663-.1-.236-.058-.367-.251-.33-.475a.428.428 0 01.45-.346c1.38.1 2.365.82 2.506 2.456.01.115.022.238-.004.348-.043.19-.182.284-.318.293.136-.009-.297.006 0 0z" fill="#fff"/></svg>