<svg width="40" height="40" fill="none" xmlns="http://www.w3.org/2000/svg"><path fill-rule="evenodd" clip-rule="evenodd" d="M14.523 20a5.478 5.478 0 1110.956 0 5.478 5.478 0 01-10.956 0zm9.034 0a3.556 3.556 0 10-7.112 0 3.556 3.556 0 007.112 0z" fill="#fff"/><path d="M24.415 14.306a1.28 1.28 0 112.56 0 1.28 1.28 0 01-2.56 0z" fill="#fff"/><path fill-rule="evenodd" clip-rule="evenodd" d="M15.603 9.397c1.138-.051 1.501-.064 4.398-.064h-.003c2.897 0 3.26.013 4.397.064 1.136.052 1.912.232 2.592.496a5.213 5.213 0 011.889 1.23 5.234 5.234 0 011.23 1.89c.263.678.443 1.453.496 2.588.051 1.138.065 1.502.065 4.399 0 2.897-.014 3.26-.065 4.397-.053 1.135-.233 1.91-.495 2.59a5.235 5.235 0 01-1.232 1.888 5.22 5.22 0 01-1.888 1.232c-.678.263-1.454.443-2.59.495-1.138.052-1.5.065-4.397.065-2.897 0-3.26-.013-4.398-.065-1.136-.052-1.91-.232-2.59-.495a5.222 5.222 0 01-1.888-1.232 5.226 5.226 0 01-1.23-1.89c-.264-.677-.444-1.453-.496-2.588-.052-1.138-.065-1.5-.065-4.397 0-2.897.014-3.26.065-4.399.05-1.135.23-1.91.495-2.589a5.236 5.236 0 011.231-1.889 5.224 5.224 0 011.89-1.23c.678-.264 1.453-.444 2.589-.496zm4.042 1.858h-.6v-.002c-1.989.002-2.37.015-3.354.06-1.04.047-1.605.22-1.98.367a3.31 3.31 0 00-1.228.799 3.305 3.305 0 00-.798 1.226c-.146.376-.32.94-.367 1.98-.051 1.125-.061 1.461-.061 4.31 0 2.848.01 3.186.06 4.31.048 1.04.222 1.605.368 1.98.194.498.425.853.798 1.226.374.374.73.605 1.227.798.376.146.94.32 1.98.368 1.125.051 1.463.062 4.311.062s3.186-.01 4.31-.062c1.04-.048 1.605-.22 1.98-.368a3.298 3.298 0 001.226-.797 3.3 3.3 0 00.799-1.226c.146-.375.32-.94.367-1.98.051-1.124.062-1.462.062-4.309 0-2.846-.01-3.184-.062-4.309-.047-1.04-.221-1.604-.367-1.98a3.31 3.31 0 00-.799-1.226 3.3 3.3 0 00-1.225-.798c-.376-.146-.94-.32-1.98-.367-1.125-.052-1.463-.062-4.311-.062h-.356z" fill="#fff"/></svg>