<svg width="40" height="40" fill="none" xmlns="http://www.w3.org/2000/svg"><path d="M31.231 14.971l-.007-.028c-.567-2.312-3.125-4.794-5.473-5.31l-.027-.006c-3.799-.73-7.65-.73-11.448 0l-.027.006c-2.348.516-4.906 2.998-5.474 5.31l-.006.028a22.78 22.78 0 000 9.734l.006.029c.544 2.213 2.911 4.58 5.172 5.232v2.581c0 .935 1.13 1.394 1.771.72l2.594-2.72a29.91 29.91 0 007.412-.498l.027-.005c2.348-.516 4.906-2.998 5.473-5.31l.007-.029a22.79 22.79 0 000-9.734zm-2.053 9.266c-.378 1.509-2.32 3.384-3.863 3.73a28.12 28.12 0 01-6.09.497.144.144 0 00-.107.044l-1.894 1.96-2.014 2.085a.236.236 0 01-.406-.164v-4.277c0-.07-.05-.13-.119-.144-1.544-.347-3.485-2.222-3.864-3.731a20.672 20.672 0 010-8.797c.38-1.509 2.32-3.385 3.863-3.731a28.093 28.093 0 0110.631 0c1.544.346 3.485 2.222 3.863 3.73a20.65 20.65 0 010 8.798z" fill="#303030"/><path d="M23.356 26.21c-.237-.072-.463-.12-.673-.208-2.175-.91-4.177-2.084-5.763-3.884-.902-1.024-1.608-2.18-2.204-3.402-.283-.58-.522-1.183-.765-1.781-.221-.546.105-1.11.449-1.521a3.545 3.545 0 011.187-.9c.35-.17.697-.072.953.228.554.648 1.063 1.33 1.475 2.081.253.462.183 1.027-.276 1.342-.111.076-.213.166-.317.253a1.042 1.042 0 00-.24.254.703.703 0 00-.046.613c.567 1.569 1.52 2.788 3.087 3.446.25.105.502.227.791.193.483-.057.64-.591.979-.87.331-.274.754-.278 1.111-.05.357.228.703.472 1.047.72.337.242.673.479.984.755.3.266.403.615.234.976-.308.66-.758 1.21-1.405 1.56-.183.1-.401.132-.608.196.206-.064-.237-.073 0 0zm-3.35-12.451c2.845.08 5.182 1.984 5.683 4.821.085.483.116.977.154 1.468.016.206-.1.402-.32.405-.229.003-.332-.19-.346-.396-.03-.408-.05-.818-.106-1.223-.294-2.137-1.985-3.906-4.094-4.285-.318-.057-.643-.072-.964-.106-.204-.022-.47-.034-.515-.29-.038-.213.141-.383.343-.394.055-.003.11 0 .165 0 2.845.08-.055 0 0 0z" fill="#303030"/><path d="M24.33 19.411c-.005.036-.007.12-.028.2-.075.288-.508.324-.608.033a.876.876 0 01-.034-.277c-.001-.608-.132-1.215-.436-1.744a3.23 3.23 0 00-1.35-1.276 3.855 3.855 0 00-1.075-.333c-.162-.027-.326-.044-.49-.067-.197-.027-.302-.154-.293-.35a.307.307 0 01.34-.305c.654.037 1.285.18 1.865.49 1.18.63 1.855 1.625 2.052 2.954.009.06.023.12.027.18.012.15.019.299.03.495-.005.036-.011-.197 0 0z" fill="#303030"/><path d="M22.56 19.342c-.238.004-.365-.129-.39-.349-.017-.153-.03-.309-.067-.458a1.29 1.29 0 00-.471-.747 1.228 1.228 0 00-.385-.187c-.174-.05-.356-.037-.53-.08-.19-.047-.294-.201-.264-.38a.342.342 0 01.36-.277c1.104.08 1.892.655 2.005 1.965.008.092.017.19-.003.278-.035.152-.146.227-.255.235.109-.008-.238.004 0 0z" fill="#303030"/></svg>