<svg width="40" height="40" fill="none" xmlns="http://www.w3.org/2000/svg"><path d="M31.231 14.971l-.007-.028c-.567-2.313-3.125-4.794-5.473-5.31l-.027-.006c-3.799-.73-7.65-.73-11.448 0l-.027.006c-2.348.516-4.906 2.997-5.474 5.31l-.006.028a22.78 22.78 0 000 9.734l.006.028c.544 2.214 2.911 4.582 5.172 5.233v2.581c0 .934 1.13 1.393 1.771.72l2.594-2.72a29.908 29.908 0 007.412-.498l.027-.005c2.348-.517 4.906-2.998 5.473-5.31l.007-.029a22.79 22.79 0 000-9.734zm-2.052 9.266c-.38 1.509-2.321 3.384-3.864 3.73-2.02.388-4.056.553-6.09.497a.144.144 0 00-.107.044l-1.893 1.96-2.015 2.085a.236.236 0 01-.406-.165v-4.276c0-.07-.05-.13-.119-.144-1.544-.347-3.485-2.223-3.864-3.731a20.672 20.672 0 010-8.798c.38-1.508 2.32-3.384 3.863-3.73a28.093 28.093 0 0110.631 0c1.544.346 3.485 2.222 3.864 3.73.631 2.92.631 5.879 0 8.798z" fill="#fff"/><path d="M23.356 26.21c-.237-.072-.463-.12-.673-.209-2.175-.91-4.177-2.084-5.763-3.884-.902-1.023-1.608-2.178-2.204-3.401-.283-.58-.522-1.183-.765-1.782-.221-.545.105-1.11.449-1.52a3.545 3.545 0 011.187-.9c.35-.17.697-.072.953.228.554.648 1.063 1.33 1.475 2.08.253.463.183 1.028-.276 1.343-.111.076-.213.166-.317.252a1.044 1.044 0 00-.24.255.702.702 0 00-.045.612c.566 1.57 1.52 2.79 3.086 3.446.25.105.502.228.791.194.484-.057.64-.592.979-.871.331-.273.754-.277 1.111-.05.357.229.703.473 1.047.72.337.242.673.48.984.756.3.266.403.615.234.975-.308.661-.757 1.21-1.405 1.561-.183.1-.401.131-.608.196.207-.064-.237-.073 0 0zm-3.35-12.452c2.845.08 5.182 1.985 5.683 4.822.085.483.116.977.154 1.468.016.206-.1.402-.32.405-.229.003-.332-.19-.346-.396-.03-.409-.05-.819-.106-1.223-.294-2.138-1.985-3.906-4.094-4.285-.318-.058-.643-.073-.964-.107-.204-.021-.47-.034-.515-.289-.038-.213.141-.383.343-.394.055-.003.11 0 .165 0 2.845.08-.055 0 0 0z" fill="#fff"/><path d="M24.33 19.41c-.005.037-.007.121-.028.2-.075.288-.508.325-.608.034a.873.873 0 01-.034-.277c-.001-.608-.132-1.215-.436-1.744-.313-.544-.79-1-1.35-1.277a3.859 3.859 0 00-1.075-.333c-.162-.027-.326-.043-.49-.066-.197-.028-.302-.155-.293-.35a.307.307 0 01.34-.306c.654.038 1.285.18 1.865.49 1.18.63 1.855 1.626 2.052 2.954.009.06.023.12.028.18l.03.496c-.006.036-.012-.197 0 0z" fill="#fff"/><path d="M22.56 19.342c-.238.004-.365-.129-.39-.35-.017-.152-.03-.308-.067-.457a1.29 1.29 0 00-.471-.747 1.23 1.23 0 00-.385-.187c-.174-.051-.356-.037-.53-.08-.19-.047-.294-.201-.264-.38a.342.342 0 01.36-.277c1.104.08 1.892.655 2.005 1.964.008.093.017.19-.003.279-.035.151-.146.227-.255.235.109-.008-.238.004 0 0z" fill="#fff"/></svg>