<svg width="20" height="20" viewBox="0 0 20 20" fill="none" xmlns="http://www.w3.org/2000/svg">
<g clip-path="url(#clip0_2850_1817)">
<path d="M20 5.29082V4.11895H17.744L15.8811 2.25602V0H14.7092V1.85316H13.2335V0H12.0616V1.85316H10.5859V0H9.41406V1.85316H7.9384V0H6.76652V1.85316H5.29086V0H4.11898V2.25602L2.25605 4.11895H0V5.29082H1.85316V6.76648H0V7.93836H1.85316V9.41406H0V10.5859H1.85316V12.0616H0V13.2335H1.85316V14.7091H0V15.881H2.25602L4.11895 17.7439V20H5.29082V18.1468H6.76648V20H7.93836V18.1468H9.41406V20H10.5859V18.1468H12.0616V20H13.2335V18.1468H14.7091V20H15.881V17.744L17.7439 15.8811H20V14.7092H18.1468V13.2335H20V12.0616H18.1468V10.5859H20V9.41406H18.1468V7.9384H20V6.76652H18.1468V5.29086H20V5.29082ZM15.5457 15.5457H4.45434V4.45434H15.5456V15.5457H15.5457Z" fill="white"/>
<path d="M9.62283 9.85964C8.81184 9.63507 8.39923 10.3405 7.46589 10.8155C6.09717 11.5094 6.0431 12.4509 6.63782 12.8309C7.23255 13.211 8.01508 12.6351 8.72078 12.8655C9.43502 13.067 9.76795 13.9826 10.4765 13.9999C11.185 14.0171 11.6773 13.1995 10.9005 11.8463C10.3798 10.9451 10.4196 10.1188 9.62283 9.85964Z" fill="white"/>
<path d="M7.85836 8.67887C8.12016 9.43321 7.94373 10.1847 7.46283 10.3545C6.98193 10.5244 6.37867 10.0666 6.11972 9.29789C5.86077 8.52916 6.03435 7.79209 6.51525 7.62222C6.99615 7.45235 7.59657 7.91014 7.85836 8.67887Z" fill="white"/>
<path d="M11.1632 11.4667C11.4714 11.8768 12.2313 11.8168 12.8606 11.3326C13.4898 10.8485 13.7501 10.1236 13.4418 9.71349C13.1336 9.3034 12.3737 9.36341 11.7445 9.84754C11.1152 10.3317 10.855 11.0566 11.1632 11.4667Z" fill="white"/>
<path d="M10.0552 7.63361C9.95842 8.47145 9.44907 9.0991 8.91695 9.03864C8.38482 8.97818 8.02913 8.24399 8.12588 7.40904C8.22263 6.57408 8.73198 5.94355 9.26411 6.00401C9.79623 6.06447 10.1519 6.79866 10.0552 7.63361Z" fill="white"/>
<path d="M10.4708 7.76029C10.0952 8.51463 10.1862 9.32368 10.6586 9.5684C11.131 9.81313 11.831 9.40141 12.2066 8.64995C12.5822 7.89849 12.4912 7.08945 12.0216 6.84472C11.5521 6.59999 10.8493 7.00884 10.4708 7.76029Z" fill="white"/>
</g>
<defs>
<clipPath id="clip0_2850_1817">
<rect width="20" height="20" fill="white"/>
</clipPath>
</defs>
</svg>
