<svg width="20" height="20" viewBox="0 0 20 20" fill="none" xmlns="http://www.w3.org/2000/svg">
<g clip-path="url(#clip0_2850_6604)">
<path fill-rule="evenodd" clip-rule="evenodd" d="M3.48294 11.0115L8.9886 16.517L16.2434 8.13988L11.86 3.75645L3.48294 11.0115ZM19.0708 2.3634L19.9999 0.957148L19.043 0L17.6367 0.929492L19.0708 2.3634ZM19.2891 4.62297L17.1906 7.04613L12.9537 2.80934L15.3771 0.71082L19.2891 4.62297ZM8.04142 17.6111L6.11735 19.8324C6.00376 19.9635 5.85079 19.996 5.74271 19.9996C5.55079 20.006 5.35509 19.9296 5.22001 19.7944L0.205556 14.7801C0.070244 14.6448 -0.00631851 14.4491 0.000478366 14.2574C0.00430649 14.1491 0.0364549 13.9964 0.167705 13.8825L2.38899 11.9587L8.04142 17.6111ZM11.7964 11.7506C11.6554 11.8915 11.4709 11.9619 11.286 11.9619C11.1016 11.9619 10.9165 11.8914 10.7759 11.7506L10.0232 10.9975L9.27005 11.7506C8.98813 12.0321 8.53118 12.0321 8.2497 11.7506C7.96782 11.4688 7.96782 11.012 8.2497 10.7301L9.00259 9.97738L8.2497 9.22406C7.96782 8.94219 7.96782 8.48539 8.2497 8.20352C8.53157 7.92207 8.98856 7.92207 9.27005 8.20352L10.0232 8.95664L10.7759 8.20352C11.0577 7.92207 11.5145 7.92207 11.7964 8.20352C12.0779 8.48539 12.0779 8.94219 11.7964 9.22406L11.0433 9.97738L11.7964 10.7301C12.0779 11.012 12.0779 11.4687 11.7964 11.7506Z" fill="white"/>
</g>
<defs>
<clipPath id="clip0_2850_6604">
<rect width="20" height="20" fill="white"/>
</clipPath>
</defs>
</svg>
