<svg width="50" height="50" viewBox="0 0 50 50" fill="none" xmlns="http://www.w3.org/2000/svg">
<path fill-rule="evenodd" clip-rule="evenodd" d="M18.1542 25C18.1542 21.2186 21.22 18.1527 25.0015 18.1527C28.7828 18.1528 31.8476 21.2186 31.8476 25C31.8476 28.7814 28.7829 31.8459 25.0015 31.8459C21.22 31.8459 18.1542 28.7814 18.1542 25ZM29.4459 25.0003C29.4459 22.5456 27.4559 20.5558 25.0014 20.5558C22.5467 20.5558 20.5569 22.5456 20.5569 25.0003C20.5569 27.4548 22.5467 29.4448 25.0014 29.4448C27.4559 29.4448 29.4459 27.4548 29.4459 25.0003Z" fill="white"/>
<path d="M30.5187 17.883C30.5187 16.9994 31.2353 16.2835 32.1187 16.2835C33.002 16.2835 33.7187 16.9997 33.7187 17.883C33.7187 18.7663 33.002 19.483 32.1187 19.483C31.2353 19.483 30.5187 18.7663 30.5187 17.883Z" fill="white"/>
<path fill-rule="evenodd" clip-rule="evenodd" d="M19.5035 11.7472C20.9257 11.6825 21.3802 11.6667 25.0013 11.6667H24.9972C28.6194 11.6667 29.0722 11.6825 30.4944 11.7472C31.9139 11.8122 32.8834 12.037 33.7334 12.3667C34.6112 12.707 35.3528 13.1625 36.0945 13.9042C36.8362 14.6453 37.2917 15.3892 37.6334 16.2662C37.9612 17.114 38.1862 18.0829 38.2529 19.5023C38.3167 20.9246 38.3334 21.379 38.3334 25.0002C38.3334 28.6213 38.3167 29.0746 38.2529 30.4969C38.1862 31.9158 37.9612 32.885 37.6334 33.733C37.2917 34.6097 36.8362 35.3536 36.0945 36.0947C35.3537 36.8364 34.6109 37.2931 33.7342 37.6336C32.8859 37.9633 31.9158 38.1881 30.4964 38.2531C29.0742 38.3178 28.6211 38.3336 24.9997 38.3336C21.3788 38.3336 20.9246 38.3178 19.5024 38.2531C18.0832 38.1881 17.114 37.9633 16.2657 37.6336C15.3893 37.2931 14.6454 36.8364 13.9045 36.0947C13.1632 35.3536 12.7076 34.6097 12.3668 33.7327C12.0373 32.885 11.8126 31.9161 11.7473 30.4966C11.6829 29.0744 11.6667 28.6213 11.6667 25.0002C11.6667 21.379 11.6834 20.9243 11.747 19.502C11.8109 18.0831 12.0359 17.114 12.3665 16.2659C12.7081 15.3892 13.1637 14.6453 13.9054 13.9042C14.6465 13.1628 15.3904 12.7073 16.2674 12.3667C17.1151 12.037 18.084 11.8122 19.5035 11.7472ZM24.557 14.0694C24.2874 14.0693 24.0375 14.0692 23.8053 14.0695V14.0662C21.3202 14.069 20.8436 14.0856 19.6136 14.1412C18.3135 14.2009 17.6077 14.4176 17.1377 14.6009C16.5155 14.8431 16.071 15.132 15.6043 15.5987C15.1377 16.0654 14.8482 16.5098 14.6066 17.132C14.4241 17.6021 14.2068 18.3076 14.1474 19.6076C14.0835 21.0132 14.0707 21.4332 14.0707 24.9938C14.0707 28.5544 14.0835 28.9766 14.1474 30.3822C14.2066 31.6822 14.4241 32.3878 14.6066 32.8572C14.8488 33.4797 15.1377 33.9231 15.6043 34.3897C16.071 34.8564 16.5155 35.1453 17.1377 35.387C17.608 35.5695 18.3135 35.7867 19.6136 35.8467C21.0191 35.9106 21.4411 35.9245 25.0014 35.9245C28.5614 35.9245 28.9837 35.9106 30.3892 35.8467C31.6892 35.7872 32.3954 35.5706 32.8648 35.3872C33.4873 35.1456 33.9304 34.8567 34.397 34.39C34.8637 33.9236 35.1532 33.4805 35.3948 32.8583C35.5773 32.3889 35.7946 31.6833 35.854 30.3833C35.9179 28.9777 35.9318 28.5555 35.9318 24.9971C35.9318 21.4388 35.9179 21.0165 35.854 19.611C35.7948 18.3109 35.5773 17.6054 35.3948 17.1359C35.1526 16.5137 34.8637 16.0693 34.397 15.6026C33.9306 15.1359 33.487 14.847 32.8648 14.6054C32.3948 14.4229 31.6892 14.2056 30.3892 14.1462C28.9834 14.0823 28.5614 14.0695 25.0014 14.0695L24.557 14.0694Z" fill="white"/>
</svg>
