<svg width="20" height="20" viewBox="0 0 20 20" fill="none" xmlns="http://www.w3.org/2000/svg">
<path d="M10.4695 13.1885C10.696 13.1885 10.8813 13.0032 10.8813 12.7767V12.5852C10.8813 12.3587 10.696 12.1733 10.4695 12.1733H3.59212C3.36562 12.1733 3.1803 12.3587 3.1803 12.5852V12.7767C3.1803 13.0032 3.36562 13.1885 3.59212 13.1885H10.4695Z" fill="white"/>
<path d="M14.7875 4.69886C14.1409 4.0523 13.3894 3.54576 12.5492 3.18954L12.5451 3.18748C12.2713 3.07217 11.9542 3.17101 11.7936 3.42016L11.3159 4.16349C11.1964 4.12231 11.0688 4.0976 10.937 4.08731C10.8979 4.08525 10.8567 4.08319 10.8155 4.08319C10.7043 4.08319 10.5952 4.09554 10.4902 4.11819L11.3323 2.80449L11.5938 2.39679C11.7771 2.11057 11.6947 1.72758 11.4064 1.54432L9.15585 0.0967775C9.05289 0.0308864 8.93759 0 8.82228 0C8.61845 0 8.41869 0.100896 8.30132 0.284155L4.38698 6.38732C4.20372 6.67353 4.28609 7.05652 4.57436 7.23978L5.00059 7.51364L4.80704 7.81633L4.61348 8.11902L4.492 8.30845C4.30874 8.59465 4.3911 8.97766 4.67937 9.1609L5.04589 9.39564C5.33211 9.57889 5.7151 9.49653 5.89836 9.20826L6.01985 9.01882L6.21338 8.71613L6.40694 8.41345L6.82699 8.68321C6.92995 8.74908 7.04525 8.77996 7.16054 8.77996C7.36439 8.77996 7.56415 8.67909 7.68152 8.49581L9.28761 5.98989C9.32056 6.13814 9.37407 6.27816 9.44822 6.40789C9.51205 6.52114 9.58824 6.62615 9.67678 6.71881C9.97329 7.03179 10.3954 7.22535 10.8628 7.21093C11.6885 7.18622 12.3598 6.51496 12.3825 5.68926C12.3886 5.48747 12.3557 5.29392 12.2919 5.11477C12.7222 5.34951 13.1217 5.64808 13.4779 6.0043C14.458 6.98443 14.9975 8.28578 14.9975 9.67157C14.9975 11.0573 14.458 12.3587 13.4779 13.3388C12.8684 13.9483 12.1354 14.3869 11.3344 14.6319C11.2747 14.6505 11.2129 14.6587 11.1511 14.6587H9.12498C8.78317 14.6587 8.50725 14.3828 8.50725 14.041V13.903H5.55657V14.6587V15.6347V16.6828C5.6204 16.6787 5.68629 16.6766 5.7501 16.6766H9.80858H10.5478H14.075H14.561H14.6083C15.3125 16.551 15.85 15.9353 15.85 15.194C15.85 14.7369 15.6461 14.3271 15.3249 14.0512C15.7202 13.5529 16.0477 13.0052 16.2968 12.4163C16.6633 11.5474 16.8507 10.6249 16.8507 9.67565C16.8507 8.72641 16.6654 7.80395 16.2968 6.93499C15.9406 6.09698 15.434 5.34335 14.7875 4.69886ZM10.8155 6.21229C10.554 6.21229 10.3357 6.03521 10.2719 5.79224C10.2595 5.74694 10.2534 5.69752 10.2534 5.6481C10.2534 5.37012 10.4552 5.1395 10.7208 5.0942C10.7517 5.08803 10.7846 5.08597 10.8176 5.08597C11.1285 5.08597 11.3797 5.33718 11.3797 5.6481C11.3797 5.95902 11.1264 6.21229 10.8155 6.21229ZM14.561 15.6738C14.4951 15.7047 14.421 15.7212 14.3427 15.7212C14.1347 15.7212 13.9556 15.6018 13.8712 15.4267C13.8362 15.3567 13.8176 15.2764 13.8176 15.194C13.8176 14.9037 14.0524 14.6669 14.3448 14.6669C14.423 14.6669 14.4971 14.6834 14.563 14.7143C14.598 14.7308 14.633 14.7513 14.6639 14.774C14.7895 14.8708 14.8719 15.0211 14.8719 15.192C14.8698 15.4082 14.7422 15.5915 14.561 15.6738Z" fill="white"/>
<path d="M5.5565 17.4056C4.20985 17.5044 3.14941 18.6287 3.14941 20.0001H13.9432C14.285 20.0001 14.5609 19.7241 14.5609 19.3823V18.3919V17.3994H5.75005C5.68416 17.3994 5.62033 17.4015 5.5565 17.4056Z" fill="white"/>
</svg>
