<svg width="20" height="20" viewBox="0 0 20 20" fill="none" xmlns="http://www.w3.org/2000/svg">
<path d="M9.05678 9.64873C7.02932 9.0873 5.9978 10.8508 3.66444 12.0384C0.24265 13.7731 0.107483 16.1268 1.59429 17.0769C3.0811 18.027 5.03743 16.5875 6.80168 17.1633C8.58727 17.6672 9.41959 19.9561 11.191 19.9993C12.9623 20.0425 14.193 17.9983 12.2509 14.6153C10.9491 12.3623 11.0487 10.2965 9.05678 9.64873Z" fill="#008BD2"/>
<path d="M4.64627 6.69705C5.30075 8.58289 4.85969 10.4615 3.65744 10.8862C2.45519 11.3109 0.947043 10.1664 0.299678 8.24459C-0.347688 6.32276 0.0862594 4.48011 1.28851 4.05543C2.49076 3.63076 3.99179 4.77522 4.64627 6.69705Z" fill="#008BD2"/>
<path d="M12.9082 13.6663C13.6787 14.6916 15.5786 14.5415 17.1517 13.3312C18.7248 12.1209 19.3754 10.3086 18.6049 9.28336C17.8343 8.25812 15.9345 8.40816 14.3614 9.61849C12.7883 10.8288 12.1377 12.6411 12.9082 13.6663Z" fill="#008BD2"/>
<path d="M10.1379 4.08402C9.896 6.1786 8.62261 7.74773 7.29231 7.59657C5.96201 7.44542 5.07277 5.60996 5.31465 3.52258C5.55652 1.4352 6.82991 -0.141131 8.16021 0.010024C9.49051 0.161179 10.3797 1.99664 10.1379 4.08402Z" fill="#008BD2"/>
<path d="M11.1768 4.40067C10.2377 6.28651 10.4654 8.30911 11.6463 8.92093C12.8272 9.53274 14.5772 8.50345 15.5163 6.62481C16.4553 4.74617 16.2277 2.72356 15.0539 2.11175C13.8801 1.49993 12.1229 2.52202 11.1768 4.40067Z" fill="#008BD2"/>
</svg>
