<svg width="20" height="20" viewBox="0 0 20 20" fill="none" xmlns="http://www.w3.org/2000/svg">
<path d="M9.05672 9.64898C7.02926 9.08754 5.99774 10.851 3.66438 12.0387C0.242589 13.7734 0.107422 16.1271 1.59423 17.0772C3.08104 18.0273 5.03737 16.5877 6.80161 17.1636C8.5872 17.6674 9.41953 19.9563 11.1909 19.9995C12.9623 20.0427 14.193 17.9985 12.2509 14.6155C10.949 12.3626 11.0486 10.2968 9.05672 9.64898Z" fill="white"/>
<path d="M4.64627 6.69717C5.30075 8.58301 4.85969 10.4617 3.65744 10.8863C2.45519 11.311 0.947043 10.1665 0.299678 8.24471C-0.347688 6.32288 0.0862594 4.48023 1.28851 4.05556C2.49076 3.63088 3.99179 4.77534 4.64627 6.69717Z" fill="white"/>
<path d="M12.9082 13.6666C13.6787 14.6918 15.5786 14.5418 17.1517 13.3315C18.7248 12.1211 19.3754 10.3088 18.6049 9.28361C17.8343 8.25837 15.9345 8.40841 14.3614 9.61873C12.7883 10.8291 12.1377 12.6413 12.9082 13.6666Z" fill="white"/>
<path d="M10.1379 4.08402C9.89606 6.1786 8.62267 7.74773 7.29237 7.59657C5.96207 7.44542 5.07283 5.60996 5.31471 3.52258C5.55658 1.4352 6.82997 -0.141131 8.16027 0.010024C9.49057 0.161179 10.3798 1.99664 10.1379 4.08402Z" fill="white"/>
<path d="M11.1768 4.40079C10.2377 6.28663 10.4654 8.30923 11.6463 8.92105C12.8272 9.53287 14.5772 8.50358 15.5163 6.62493C16.4553 4.74629 16.2277 2.72369 15.0539 2.11187C13.8801 1.50005 12.1229 2.52215 11.1768 4.40079Z" fill="white"/>
</svg>
