<svg width="240" height="66" viewBox="0 0 240 66" fill="none" xmlns="http://www.w3.org/2000/svg">
<path fill-rule="evenodd" clip-rule="evenodd" d="M32.5927 60.0074C27.433 57.2788 21.3467 53.4626 16.4941 46.5544C3.36798 27.8719 24.5002 18.4352 32.5612 29.3192C32.5729 29.3368 32.6233 29.3451 32.635 29.3266C40.6492 18.4002 62.1992 28.1385 48.7084 46.5544C43.6477 53.4626 37.7695 57.2788 32.6098 60.0074H32.5927Z" fill="#008BD2"/>
<path fill-rule="evenodd" clip-rule="evenodd" d="M33.8199 51.0726C33.7738 51.0725 33.7278 51.067 33.683 51.056C33.5677 51.0287 33.4627 50.9674 33.3809 50.8797C33.2992 50.792 33.2442 50.6818 33.2229 50.5625L30.3324 34.4196L26.8466 49.0949C26.8208 49.207 26.7649 49.3095 26.6854 49.391C26.6059 49.4724 26.5058 49.5296 26.3964 49.5561C26.2875 49.5823 26.1736 49.5772 26.0674 49.5414C25.9611 49.5056 25.8665 49.4405 25.794 49.3532L23.6113 46.7159H19.4034C19.2427 46.7159 19.0885 46.6505 18.9749 46.5341C18.8612 46.4176 18.7974 46.2597 18.7974 46.0951C18.7972 46.0135 18.8128 45.9326 18.8432 45.8572C18.8736 45.7818 18.9183 45.7132 18.9745 45.6555C19.0308 45.5978 19.0977 45.5519 19.1713 45.5207C19.2448 45.4894 19.3237 45.4733 19.4034 45.4733H23.8922C23.9802 45.4734 24.0671 45.4929 24.147 45.5306C24.2269 45.5684 24.2979 45.6234 24.3551 45.692L25.9489 47.618L29.8263 31.2971C29.8581 31.1582 29.9361 31.035 30.0468 30.9485C30.1575 30.8621 30.2941 30.8177 30.4332 30.8229C30.5721 30.827 30.7054 30.8798 30.8108 30.9724C30.9162 31.0651 30.9873 31.1921 31.0122 31.3321L34.1638 48.9261L36.4609 45.739C36.5171 45.6604 36.5906 45.5965 36.6754 45.5524C36.7602 45.5083 36.8539 45.4854 36.949 45.4853H44.0384C44.1993 45.4853 44.3537 45.5508 44.4675 45.6674C44.5814 45.784 44.6453 45.9422 44.6453 46.1071C44.6453 46.272 44.5814 46.4301 44.4675 46.5467C44.3537 46.6633 44.1993 46.7288 44.0384 46.7288H37.2552L34.3088 50.819C34.2527 50.8976 34.1792 50.9616 34.0944 51.0057C34.0096 51.0497 33.9159 51.0727 33.8208 51.0726H33.8199Z" fill="white"/>
<path fill-rule="evenodd" clip-rule="evenodd" d="M46.2375 46.1162C46.2372 46.4034 46.1537 46.6841 45.9977 46.9227C45.8417 47.1614 45.6201 47.3473 45.361 47.457C45.1019 47.5667 44.8168 47.5953 44.5418 47.5391C44.2669 47.4829 44.0143 47.3445 43.8161 47.1413C43.6179 46.9381 43.483 46.6793 43.4283 46.3976C43.3736 46.1159 43.4017 45.8239 43.5089 45.5585C43.6162 45.2932 43.7978 45.0663 44.0309 44.9066C44.264 44.7469 44.538 44.6616 44.8184 44.6614C45.0049 44.6611 45.1897 44.6985 45.3621 44.7714C45.5345 44.8444 45.6911 44.9516 45.823 45.0868C45.9549 45.2219 46.0594 45.3824 46.1305 45.5591C46.2016 45.7358 46.238 45.9251 46.2375 46.1162Z" fill="white"/>
<path fill-rule="evenodd" clip-rule="evenodd" d="M9.28789 63.0342C9.28791 63.5865 9.73562 64.0342 10.2879 64.0342H54.7211C55.2734 64.0342 55.7211 63.5865 55.7211 63.0342V22.1301C55.7211 22.001 55.7458 21.8731 55.7938 21.7539C55.8418 21.6346 55.9122 21.5263 56.0008 21.4351C56.0895 21.3438 56.1948 21.2715 56.3107 21.2222C56.4265 21.1728 56.5507 21.1475 56.676 21.1476H57.5474C58.5356 21.1476 58.925 19.8671 58.1042 19.317L33.06 2.52996C32.7231 2.30416 32.2832 2.30417 31.9464 2.52997L6.90369 19.317C6.08294 19.8672 6.47241 21.1476 7.4605 21.1476H8.33207C8.58518 21.1476 8.82794 21.2511 9.007 21.4353C9.18606 21.6195 9.28678 21.8694 9.28702 22.1301L9.28789 63.0342ZM56.6769 66H8.33207C8.07896 66 7.8362 65.8965 7.65714 65.7123C7.47808 65.5281 7.37736 65.2782 7.37712 65.0176V24.1134C7.37712 23.5611 6.92941 23.1134 6.37712 23.1134H0.95497C0.749039 23.1136 0.548593 23.0451 0.383577 22.9182C0.218561 22.7914 0.0978344 22.6129 0.039439 22.4096C0.0139576 22.3196 0.000692633 22.2265 2.25385e-05 22.1328C-0.00107809 21.968 0.0381485 21.8056 0.114081 21.6605C0.190013 21.5154 0.300206 21.3923 0.434497 21.3026L31.9818 0.159587C32.1369 0.0554729 32.318 2.81163e-05 32.5032 0C32.688 4.74634e-05 32.8689 0.0554981 33.0236 0.159587L64.5718 21.3091C64.7429 21.4252 64.8731 21.5948 64.9433 21.793C65.0136 21.9912 65.02 22.2074 64.9618 22.4096C64.9035 22.6119 64.7837 22.7895 64.6199 22.9162C64.4561 23.043 64.2571 23.1121 64.0522 23.1134H58.6292C58.0769 23.1134 57.6292 23.5611 57.6292 24.1134V65.0176C57.6292 65.2781 57.5287 65.528 57.3498 65.7123C57.1708 65.8965 56.9282 66 56.6751 66H56.6769Z" fill="#95C11F"/>
<path d="M82.6766 43.1698C82.2239 44.4981 81.806 46.0712 81.4229 47.5044C81.0398 46.1061 80.6567 44.4981 80.204 43.2047L73.4129 24.0137C73.1692 23.3146 72.5771 23 71.9154 23C71.7065 23 71.4975 23.035 71.2886 23.1049C70.5572 23.2797 70 23.8739 70 24.573C70 24.7478 70.0348 24.9576 70.1045 25.1323L79.0547 49.0774C79.5075 50.3009 80.3433 50.6854 81.4229 50.6854C82.4677 50.6854 83.3035 50.3009 83.7562 49.1124L92.7413 25.0624C92.8109 24.8876 92.8458 24.7129 92.8458 24.5381C92.8458 23.839 92.2886 23.3146 91.5572 23.1049C91.3483 23.0699 91.1393 23.035 90.9304 23.035C90.2338 23.035 89.6766 23.3496 89.4328 24.0487L82.6766 43.1698Z" fill="#008BD2"/>
<path d="M109.276 41.387C110.356 41.387 111.017 40.7228 111.017 39.4644C111.017 39.3596 111.017 39.2896 111.017 39.1848C110.669 34.6055 107.813 30.6205 102.729 30.6205C97.0521 30.6205 93.9178 34.8502 93.9178 40.8976C93.9178 46.9451 97.2262 51 102.938 51C107.465 51 109.485 48.6929 110.599 46.3858C110.739 46.176 110.773 45.9663 110.773 45.7566C110.773 45.1273 110.286 44.7079 109.694 44.5331C109.45 44.4632 109.206 44.3933 108.963 44.3933C108.475 44.3933 108.022 44.638 107.709 45.2672C106.873 47.1199 105.48 48.3783 102.972 48.3783C99.2113 48.3783 97.0869 45.6866 97.0173 41.387H109.276ZM97.1217 38.8352C97.5745 35.4095 99.3854 33.1723 102.729 33.1723C105.933 33.1723 107.43 35.7241 107.848 38.206C107.848 38.2759 107.848 38.3458 107.848 38.3808C107.848 38.6954 107.709 38.8352 107.326 38.8352H97.1217Z" fill="#008BD2"/>
<path d="M116.876 31.1099H114.194C113.323 31.1099 112.94 31.7041 112.94 32.5081C112.94 33.3121 113.323 33.8714 114.159 33.8714H116.876V45.8614C116.876 49.5318 118.965 50.965 121.821 50.965C123.318 50.965 124.259 50.6854 125.269 50.196C125.791 49.9164 126 49.427 126 48.9376C126 48.6929 125.965 48.4132 125.861 48.1685C125.652 47.6442 125.234 47.2597 124.711 47.2597C124.502 47.2597 124.294 47.3296 124.085 47.4345C123.493 47.784 122.9 48.0287 122.03 48.0287C120.741 48.0287 120.01 47.2946 120.01 45.5818V33.8714H124.468C125.303 33.8714 125.756 33.3121 125.756 32.5081C125.756 31.6692 125.338 31.1099 124.468 31.1099H120.01V26.8801C120.01 25.9713 119.348 25.4819 118.443 25.4819C117.468 25.4819 116.876 25.9713 116.876 26.8801V31.1099Z" fill="#008BD2"/>
<path d="M154.064 34.6055H139.322V24.4332C139.322 23.4544 138.595 23 137.661 23C136.692 23 136 23.4544 136 24.4332V49.2172C136 50.161 136.692 50.6504 137.661 50.6504C138.595 50.6504 139.322 50.161 139.322 49.2172V37.6467H154.064V49.2172C154.064 50.161 154.791 50.6504 155.795 50.6504C156.695 50.6504 157.387 50.161 157.387 49.2172V24.4332C157.387 23.4544 156.695 23 155.795 23C154.791 23 154.064 23.4544 154.064 24.4332V34.6055Z" fill="#95C11F"/>
<path d="M170.951 30.5855C165.345 30.5855 161.988 34.6754 161.988 40.7228C161.988 46.9451 165.31 51 171.02 51C176.419 51 179.741 46.8052 179.741 40.7228C179.741 34.6404 176.488 30.5855 170.951 30.5855ZM171.055 33.2772C174.585 33.2772 176.557 36.2834 176.557 40.6879C176.557 45.3371 174.585 48.3084 170.813 48.3084C167.248 48.3084 165.172 45.2672 165.172 40.8277C165.172 36.1785 167.318 33.2772 171.055 33.2772Z" fill="#95C11F"/>
<path d="M183.636 44.1136C183.636 48.3783 185.885 50.965 189.969 50.965C193.429 50.965 195.436 49.1823 196.509 46.7353C196.405 47.2946 196.302 47.9938 196.302 48.3783V49.3571C196.302 50.231 196.959 50.6504 197.893 50.6504C198.793 50.6504 199.416 50.196 199.416 49.2522V32.2634C199.416 31.3196 198.759 30.8652 197.859 30.8652C196.925 30.8652 196.267 31.3196 196.267 32.2634V41.9813C196.267 43.3446 195.921 44.4282 195.09 45.6167C193.914 47.2597 192.426 48.1336 190.592 48.1336C188.031 48.1336 186.819 46.4557 186.819 43.4494V32.2634C186.819 31.3196 186.162 30.8652 185.228 30.8652C184.293 30.8652 183.636 31.3196 183.636 32.2634V44.1136Z" fill="#95C11F"/>
<path d="M211.829 41.9463C214.978 42.5755 215.878 43.5194 215.878 45.2322C215.878 47.015 214.078 48.2385 211.31 48.2385C208.576 48.2385 207.157 47.2247 206.534 45.1973C206.326 44.5331 205.703 44.2534 205.046 44.2534C204.907 44.2534 204.734 44.2884 204.561 44.3233C203.904 44.4632 203.316 44.9526 203.316 45.6517C203.316 45.7915 203.35 45.9313 203.385 46.1061C204.285 49.2172 206.88 51 211.31 51C216.154 51 218.992 48.5181 218.992 45.1623C218.992 41.4919 217.193 40.1635 212.694 39.2197L210.548 38.7653C207.641 38.1361 206.984 37.437 206.984 35.829C206.984 34.3608 208.299 33.2072 211.102 33.2072C213.075 33.2072 214.597 34.0112 215.047 35.5843C215.22 36.2484 215.843 36.5281 216.466 36.5281C216.639 36.5281 216.847 36.4931 217.02 36.4582C217.643 36.2834 218.231 35.829 218.231 35.1648C218.231 35.025 218.196 34.8851 218.162 34.7453C217.296 32.1935 214.839 30.5506 210.998 30.5506C206.534 30.5506 203.835 32.7179 203.835 35.8989C203.835 39.2197 205.6 40.7228 209.856 41.5618L211.829 41.9463Z" fill="#95C11F"/>
<path d="M237.27 41.3521C238.342 41.3521 239 40.6879 239 39.4295C239 39.3246 239 39.2547 239 39.1498C238.654 34.5705 235.816 30.5855 230.764 30.5855C225.123 30.5855 222.008 34.8152 222.008 40.8627C222.008 46.9101 225.296 50.965 230.971 50.965C235.47 50.965 237.477 48.6579 238.585 46.3508C238.723 46.1411 238.758 45.9313 238.758 45.7216C238.758 45.0924 238.273 44.6729 237.685 44.4981C237.443 44.4282 237.2 44.3583 236.958 44.3583C236.474 44.3583 236.024 44.603 235.712 45.2322C234.882 47.0849 233.498 48.3433 231.006 48.3433C227.268 48.3433 225.158 45.6517 225.088 41.3521H237.27ZM225.192 38.8003C225.642 35.3745 227.442 33.1373 230.764 33.1373C233.947 33.1373 235.436 35.6891 235.851 38.171C235.851 38.2409 235.851 38.3109 235.851 38.3458C235.851 38.6604 235.712 38.8003 235.332 38.8003H225.192Z" fill="#95C11F"/>
<path d="M98.2532 64.7025H95V57.6667H98.1783C98.7918 57.6667 99.2769 57.8319 99.6336 58.1624C99.9975 58.493 100.179 58.9255 100.179 59.4599C100.179 59.8819 100.058 60.2405 99.8155 60.5359C99.573 60.8242 99.2769 61.0035 98.9273 61.0738C99.3054 61.1301 99.6301 61.327 99.9011 61.6646C100.179 62.0021 100.318 62.3819 100.318 62.8038C100.318 63.3734 100.133 63.834 99.762 64.1857C99.3982 64.5302 98.8952 64.7025 98.2532 64.7025ZM98.0284 60.7152C98.4208 60.7152 98.724 60.6097 98.938 60.3987C99.1521 60.1878 99.2591 59.917 99.2591 59.5865C99.2591 59.256 99.1485 58.9852 98.9273 58.7743C98.7133 58.5563 98.4137 58.4473 98.0284 58.4473H95.8882V60.7152H98.0284ZM98.0712 63.9219C98.485 63.9219 98.8096 63.8129 99.0451 63.5949C99.2805 63.3769 99.3982 63.0816 99.3982 62.7089C99.3982 62.3643 99.2805 62.076 99.0451 61.8439C98.8168 61.6118 98.4922 61.4958 98.0712 61.4958H95.8882V63.9219H98.0712Z" fill="#008BD2"/>
<path d="M106.406 64.7025H101.73V57.6667H106.406V58.4473H102.618V60.7152H106.332V61.4958H102.618V63.9219H106.406V64.7025Z" fill="#008BD2"/>
<path d="M110.477 64.7025H109.588V58.4473H107.33V57.6667H112.745V58.4473H110.477V64.7025Z" fill="#008BD2"/>
<path d="M118.602 64.7025H113.926V57.6667H118.602V58.4473H114.814V60.7152H118.527V61.4958H114.814V63.9219H118.602V64.7025Z" fill="#008BD2"/>
<path d="M120.906 64.7025H120.018V57.6667H122.886C123.578 57.6667 124.124 57.8706 124.523 58.2785C124.923 58.6864 125.123 59.1892 125.123 59.7869C125.123 60.3847 124.919 60.8875 124.513 61.2954C124.113 61.7032 123.571 61.9072 122.886 61.9072H120.906V64.7025ZM122.779 61.1266C123.2 61.1266 123.542 61.0035 123.806 60.7574C124.07 60.5042 124.202 60.1807 124.202 59.7869C124.202 59.3931 124.07 59.0731 123.806 58.827C123.542 58.5738 123.2 58.4473 122.779 58.4473H120.906V61.1266H122.779Z" fill="#008BD2"/>
<path d="M127.155 64.7025H126.299V57.6667H127.187V63.1624L131.296 57.6667H132.206V64.7025H131.318V59.0907L127.155 64.7025Z" fill="#008BD2"/>
<path d="M139.825 64.7025H138.937V61.4747H134.764V64.7025H133.875V57.6667H134.764V60.6941H138.937V57.6667H139.825V64.7025Z" fill="#008BD2"/>
<path d="M147.604 64.7025H146.588L145.956 63.1414H142.403L141.772 64.7025H140.755L143.623 57.6667H144.726L147.604 64.7025ZM145.689 62.3608L144.18 58.5738L142.66 62.3608H145.689Z" fill="#008BD2"/>
<path d="M149.426 64.7025H148.537V57.6667H151.405C152.097 57.6667 152.643 57.8706 153.043 58.2785C153.442 58.6864 153.642 59.1892 153.642 59.7869C153.642 60.3847 153.438 60.8875 153.032 61.2954C152.632 61.7032 152.09 61.9072 151.405 61.9072H149.426V64.7025ZM151.298 61.1266C151.719 61.1266 152.062 61.0035 152.326 60.7574C152.59 60.5042 152.722 60.1807 152.722 59.7869C152.722 59.3931 152.59 59.0731 152.326 58.827C152.062 58.5738 151.719 58.4473 151.298 58.4473H149.426V61.1266H151.298Z" fill="#008BD2"/>
<path d="M160.768 64.7025H159.88V61.4747H155.706V64.7025H154.818V57.6667H155.706V60.6941H159.88V57.6667H160.768V64.7025Z" fill="#008BD2"/>
<path d="M163.292 64.7025H162.436V57.6667H163.325V63.1624L167.434 57.6667H168.343V64.7025H167.455V59.0907L163.292 64.7025Z" fill="#008BD2"/>
<path d="M170.869 64.7025H170.013V57.6667H170.901V63.1624L175.01 57.6667H175.92V64.7025H175.032V59.0907L170.869 64.7025ZM174.839 56.3376C174.375 56.9564 173.751 57.2658 172.966 57.2658C172.189 57.2658 171.561 56.9564 171.083 56.3376L171.479 56C171.85 56.5063 172.346 56.7595 172.966 56.7595C173.594 56.7595 174.086 56.5063 174.443 56L174.839 56.3376Z" fill="#008BD2"/>
<path d="M186.063 66V64.7025H180.348V57.6667H181.237V63.9219H185.41V57.6667H186.298V63.9219H186.951V66H186.063Z" fill="#008BD2"/>
<path d="M192.758 64.7025H188.082V57.6667H192.758V58.4473H188.97V60.7152H192.683V61.4958H188.97V63.9219H192.758V64.7025Z" fill="#008BD2"/>
<path d="M200.124 64.7025H199.236V61.4747H195.062V64.7025H194.174V57.6667H195.062V60.6941H199.236V57.6667H200.124V64.7025Z" fill="#008BD2"/>
<path d="M204.446 64.7025H203.558V58.4473H201.3V57.6667H206.715V58.4473H204.446V64.7025Z" fill="#008BD2"/>
<path d="M208.784 64.7025H207.896V57.6667H210.763C211.455 57.6667 212.001 57.8706 212.401 58.2785C212.8 58.6864 213 59.1892 213 59.7869C213 60.3847 212.797 60.8875 212.39 61.2954C211.991 61.7032 211.448 61.9072 210.763 61.9072H208.784V64.7025ZM210.656 61.1266C211.077 61.1266 211.42 61.0035 211.684 60.7574C211.948 60.5042 212.08 60.1807 212.08 59.7869C212.08 59.3931 211.948 59.0731 211.684 58.827C211.42 58.5738 211.077 58.4473 210.656 58.4473H208.784V61.1266H210.656Z" fill="#008BD2"/>
</svg>
