<svg width="25" height="25" viewBox="0 0 25 25" fill="none" xmlns="http://www.w3.org/2000/svg">
<g clip-path="url(#clip0_2920_3833)">
<path d="M11.9531 16.3181V19.5908C12.8553 19.5908 13.5895 18.8567 13.5895 17.9545C13.5895 17.0523 12.8553 16.3181 11.9531 16.3181Z" fill="white"/>
<path d="M6.7713 16.3181H5.95312V17.9545H6.7713C7.22294 17.9545 7.58948 17.5879 7.58948 17.1363C7.58948 16.6847 7.22294 16.3181 6.7713 16.3181Z" fill="white"/>
<path d="M17.3131 0.5H4.86147C3.65823 0.5 2.67969 1.47962 2.67969 2.68184V22.3182C2.67969 23.5215 3.65823 24.5001 4.86152 24.5001H20.1342C21.3375 24.5001 22.3161 23.5215 22.3161 22.3182V5.50293L17.3131 0.5ZM6.7706 19.5909H5.95242V21.2273H4.31605V14.6818H6.7706C8.12331 14.6818 9.22515 15.7825 9.22515 17.1364C9.22515 18.4902 8.12331 19.5909 6.7706 19.5909ZM11.9524 21.2273H10.316V14.6818H11.9524C13.7579 14.6818 15.2251 16.1491 15.2251 17.9545C15.2251 19.76 13.7579 21.2273 11.9524 21.2273ZM21.007 16.3182H17.407V17.4091H20.1342V19.0454H17.407V21.2273H15.7706V16.3182C15.7706 15.416 16.5048 14.6818 17.407 14.6818H21.007V16.3182ZM15.7706 7.04546V1.59089L21.2251 7.04546H15.7706Z" fill="white"/>
</g>
<defs>
<clipPath id="clip0_2920_3833">
<rect width="24" height="24" fill="white" transform="translate(0.5 0.5)"/>
</clipPath>
</defs>
</svg>
