<svg width="60" height="60" viewBox="0 0 60 60" fill="none" xmlns="http://www.w3.org/2000/svg">
<path d="M35.595 39.0058H35.567C31.7253 38.9112 28.0593 37.3773 25.295 34.7078C22.6245 31.946 21.0897 28.2813 20.9949 24.4408C20.9892 23.9028 21.2004 23.3851 21.581 23.0048L24.295 20.2928C24.6855 19.9024 25.3185 19.9024 25.709 20.2928L29.709 24.2928C30.0994 24.6833 30.0994 25.3163 29.709 25.7068L28.113 27.2998C28.409 28.4057 28.9542 29.4292 29.707 30.2918C30.568 31.0448 31.5902 31.5904 32.695 31.8868L34.295 30.2928C34.6855 29.9024 35.3185 29.9024 35.709 30.2928L39.709 34.2928C40.0994 34.6833 40.0994 35.3163 39.709 35.7068L36.995 38.4198C36.6249 38.7937 36.121 39.0046 35.595 39.0058ZM25 22.4148H24.995L22.995 24.4188C23.0765 27.7374 24.4013 30.9045 26.707 33.2928C29.0954 35.5977 32.2618 36.9223 35.58 37.0048L37.587 34.9998L34.995 32.4148L33.702 33.7068C33.517 33.8938 33.265 33.9993 33.002 33.9998C32.9317 33.9998 32.8617 33.9924 32.793 33.9778C31.1266 33.6092 29.5794 32.8283 28.293 31.7068C27.1714 30.4204 26.3906 28.8732 26.022 27.2068C25.9524 26.8756 26.0552 26.5316 26.295 26.2928L27.587 24.9998L25 22.4148Z" fill="#008BD2"/>
</svg>
