<svg width="36" height="36" viewBox="0 0 36 36" fill="none" xmlns="http://www.w3.org/2000/svg">
<g clip-path="url(#clip0_2840_1894)">
<path d="M7.31256 35.9998H2.81256C2.19121 35.9998 1.68756 35.4961 1.68756 34.8748V30.9373C1.68756 30.3161 2.19121 29.8123 2.81256 29.8123H6.18756V28.1248H2.81256C2.19121 28.1248 1.68756 27.6211 1.68756 26.9998C1.68756 26.3786 2.19121 25.8748 2.81256 25.8748H7.31256C7.93391 25.8748 8.43756 26.3786 8.43756 26.9998V30.9373C8.43756 31.5586 7.93391 32.0623 7.31256 32.0623H3.93756V33.7498H7.31256C7.93391 33.7498 8.43756 34.2536 8.43756 34.8748C8.43756 35.4961 7.93391 35.9998 7.31256 35.9998Z" fill="white"/>
<path d="M16.3126 25.8748C15.6913 25.8748 15.1876 26.3786 15.1876 26.9998V29.8123H12.9376V26.9998C12.9376 26.3786 12.434 25.8748 11.8126 25.8748C11.1913 25.8748 10.6876 26.3786 10.6876 26.9998V30.9373C10.6876 31.5586 11.1913 32.0623 11.8126 32.0623H15.1876V34.8748C15.1876 35.4961 15.6913 35.9998 16.3126 35.9998C16.934 35.9998 17.4376 35.4961 17.4376 34.8748V26.9998C17.4376 26.3786 16.934 25.8748 16.3126 25.8748Z" fill="white"/>
<path d="M20.2491 36.0001C20.0598 36.0001 19.868 35.9523 19.6919 35.8516C19.1525 35.5434 18.965 34.8561 19.2733 34.3167L23.7733 26.4417C24.0816 25.9022 24.7686 25.7149 25.3083 26.0231C25.8477 26.3313 26.0351 27.0185 25.7268 27.558L21.2268 35.433C21.0192 35.7964 20.6396 36.0001 20.2491 36.0001Z" fill="white"/>
<path d="M33.1874 35.9998C32.566 35.9998 32.0624 35.4961 32.0624 34.8748V28.1248H28.6874C28.066 28.1248 27.5624 27.6211 27.5624 26.9998C27.5624 26.3786 28.066 25.8748 28.6874 25.8748H33.1874C33.8087 25.8748 34.3124 26.3786 34.3124 26.9998V34.8748C34.3124 35.4961 33.8087 35.9998 33.1874 35.9998Z" fill="white"/>
<path d="M18 0C10.8663 0 5.06256 5.8037 5.06256 12.9374C5.06256 13.3651 5.09097 17.1443 6.06331 19.0797C6.2663 19.5499 7.86956 22.9832 11.6276 23.6095C11.6902 23.6199 11.7524 23.625 11.8139 23.625C12.3539 23.625 12.8304 23.2351 12.9222 22.6848C13.0244 22.0719 12.6103 21.4923 11.9975 21.3901C11.3299 21.2788 10.7562 21.0269 10.2704 20.7106C11.1615 20.4952 12.0178 20.0394 12.6537 19.4035C13.5982 18.459 14.1103 17.1069 14.0235 15.7867C13.9473 14.6262 13.4214 13.616 12.5427 12.9423C12.1171 12.616 11.254 12.1558 8.68279 11.9289C8.20783 11.887 7.75495 11.8602 7.36817 11.8429C7.91801 6.46217 12.4763 2.24999 18 2.24999C23.5236 2.24999 28.082 6.46217 28.6317 11.8431C28.245 11.8603 27.7921 11.8871 27.3171 11.929C24.7459 12.156 23.8827 12.616 23.4572 12.9424C22.5786 13.6161 22.0526 14.6263 21.9764 15.7868C21.8897 17.107 22.4017 18.4591 23.3462 19.4036C24.251 20.3084 25.6016 20.8508 26.8644 20.8508C27.0781 20.8508 27.2895 20.8352 27.4956 20.8033C28.5817 20.635 29.4405 20.0391 29.9136 19.1256C30.9087 17.2045 30.9374 13.3686 30.9374 12.9376C30.9374 5.8037 25.1337 0 18 0V0ZM11.1737 14.7279C11.631 15.0786 11.755 15.5774 11.7785 15.9343C11.8227 16.6072 11.5485 17.3269 11.0628 17.8126C10.5058 18.3695 9.57498 18.6923 8.84908 18.5798C8.29305 18.4936 8.1359 18.1903 8.08429 18.0906C7.65405 17.2599 7.43011 15.5031 7.3489 14.0903C9.1453 14.1742 10.7938 14.4365 11.1737 14.7279ZM27.9158 18.0907C27.8642 18.1903 27.7071 18.4936 27.151 18.5798C26.4258 18.6924 25.4943 18.3696 24.9373 17.8126C24.4517 17.3269 24.1774 16.6072 24.2216 15.9343C24.2451 15.5774 24.3691 15.0786 24.8264 14.7279C25.2063 14.4365 26.8552 14.1741 28.6517 14.0903C28.571 15.5019 28.3473 17.2576 27.9158 18.0907Z" fill="white"/>
</g>
<defs>
<clipPath id="clip0_2840_1894">
<rect width="36" height="36" fill="white"/>
</clipPath>
</defs>
</svg>
