<svg width="20" height="20" viewBox="0 0 20 20" fill="none" xmlns="http://www.w3.org/2000/svg">
<path d="M17.5 3.75C17.5 1.97633 16.1312 0 14.1667 0C13.2593 0 12.6148 0.109883 11.9914 0.215664C11.3843 0.319023 10.8114 0.41668 10 0.41668C9.18863 0.41668 8.6157 0.319023 8.00863 0.215664C7.38527 0.109883 6.74074 0 5.83332 0C3.86883 0 2.5 1.97633 2.5 3.75C2.5 4.94801 3.43262 7.61328 4.28797 9.33934C3.94922 11.3669 4.45719 18.2324 5.60383 19.6484C5.83902 19.939 6.0848 20 6.25 20C7.67496 20 7.79785 18.2389 7.92805 16.3741C8.10301 13.8619 8.35367 12.0833 10 12.0833C11.6463 12.0833 11.897 13.8619 12.072 16.3741C12.2021 18.2389 12.325 20 13.75 20C13.9152 20 14.161 19.9389 14.3962 19.6484C15.5428 18.2324 16.0508 11.3671 15.712 9.33945C16.5674 7.61332 17.5 4.94801 17.5 3.75Z" fill="white"/>
</svg>
