<svg width="20" height="20" viewBox="0 0 20 20" fill="none" xmlns="http://www.w3.org/2000/svg">
<path d="M4.72278 0H15.2771V3.12744H4.72278V0Z" fill="white"/>
<path d="M10.7823 9.72876H9.21768V11.9543H6.99219V13.519H9.21768V15.7444H10.7823V13.519H13.0078V11.9543H10.7823V9.72876Z" fill="white"/>
<path d="M15.2132 5.47318H14.1043V4.29932H5.89569V5.47318H4.78683C3.28888 5.47318 2.07031 6.69174 2.07031 8.1897V17.2835C2.07031 18.7814 3.28888 20 4.78683 20H15.2132C16.7111 20 17.9297 18.7814 17.9297 17.2835V8.1897C17.9297 6.69174 16.7111 5.47318 15.2132 5.47318ZM14.1797 14.6909H11.9542V16.9162H8.04581V14.6909H5.82031V10.7823H8.04581V8.55682H11.9542V10.7823H14.1797V14.6909Z" fill="white"/>
</svg>
