<svg width="60" height="60" viewBox="0 0 60 60" fill="none" xmlns="http://www.w3.org/2000/svg">
<path d="M23 39H21V38C21.0044 34.1358 24.1358 31.0044 28 31H32C35.8642 31.0044 38.9956 34.1358 39 38V39H37V38C36.9967 35.2399 34.7601 33.0033 32 33H28C25.2399 33.0033 23.0033 35.2399 23 38V39ZM30 30C27.2386 30 25 27.7614 25 25C25 22.2386 27.2386 20 30 20C32.7614 20 35 22.2386 35 25C34.9967 27.7601 32.7601 29.9967 30 30ZM30 22C28.3431 22 27 23.3431 27 25C27 26.6569 28.3431 28 30 28C31.6569 28 33 26.6569 33 25C33 23.3431 31.6569 22 30 22Z" fill="#008BD2"/>
</svg>
