<svg width="20" height="20" viewBox="0 0 20 20" fill="none" xmlns="http://www.w3.org/2000/svg">
<g clip-path="url(#clip0_2850_2802)">
<path d="M9.40775 6.10657L8.50534 7.00897L9.85239 8.35602L9.02399 9.18427L7.67694 7.83722L6.81619 8.69812L8.16309 10.0452L7.33484 10.8734L5.98779 9.52652L5.12689 10.3873L6.47394 11.7343L5.64554 12.5627L4.29865 11.2157L2.8689 12.6454L7.35452 17.131L13.8934 10.5922L9.40775 6.10657Z" fill="white"/>
<path d="M16.3427 0L15.5144 0.8284L15.9835 1.29745L13.552 3.72894L11.9361 2.11304L11.1077 2.94144L11.8402 3.67401L10.2361 5.27817L14.7219 9.76395L16.326 8.15979L17.0586 8.89236L17.887 8.06396L16.2711 6.44806L18.7026 4.01657L19.1716 4.48563L20 3.65738L16.3427 0Z" fill="white"/>
<path d="M2.97043 14.4036L1.68045 15.6935L2.57935 16.5923L0 19.1716L0.8284 20L3.40775 17.4207L4.30649 18.3196L5.59647 17.0296L2.97043 14.4036Z" fill="white"/>
</g>
<defs>
<clipPath id="clip0_2850_2802">
<rect width="20" height="20" fill="white"/>
</clipPath>
</defs>
</svg>
