<svg width="52" height="52" viewBox="0 0 52 52" fill="none" xmlns="http://www.w3.org/2000/svg">
<path fill-rule="evenodd" clip-rule="evenodd" d="M26 52C40.3594 52 52 40.3594 52 26C52 11.6406 40.3594 0 26 0C11.6406 0 0 11.6406 0 26C0 40.3594 11.6406 52 26 52Z" fill="#7360F2"/>
<path d="M40.6001 19.4629L40.591 19.4261C39.8535 16.4198 36.5289 13.194 33.4757 12.5229L33.4413 12.5157C28.503 11.5657 23.4957 11.5657 18.5584 12.5157L18.523 12.5229C15.4708 13.194 12.1462 16.4198 11.4077 19.4261L11.3996 19.4629C10.4879 23.6612 10.4879 27.9187 11.3996 32.1171L11.4077 32.1538C12.1147 35.0318 15.1917 38.1094 18.1309 38.9558V42.3116C18.1309 43.5262 19.5988 44.1227 20.4335 43.2463L23.8052 39.712C24.5365 39.7533 25.2682 39.7763 25.9999 39.7763C28.4857 39.7763 30.9726 39.5393 33.4413 39.0643L33.4757 39.0572C36.5289 38.386 39.8535 35.1602 40.591 32.1539L40.6001 32.1172C41.5118 27.9187 41.5118 23.6612 40.6001 19.4629ZM37.9319 31.5082C37.4396 33.4695 34.9152 35.9078 32.9095 36.3583C30.2837 36.8618 27.6372 37.077 24.9932 37.0031C24.9407 37.0017 24.8901 37.0222 24.8535 37.0602C24.4782 37.4486 22.3916 39.6087 22.3916 39.6087L19.773 42.3187C19.5815 42.5199 19.2452 42.383 19.2452 42.1052V36.546C19.2452 36.4542 19.1802 36.3762 19.0907 36.3585L19.0892 36.3582C17.0835 35.9077 14.5601 33.4694 14.0668 31.5081C13.2463 27.7133 13.2463 23.8664 14.0668 20.0716C14.5601 18.1103 17.0835 15.672 19.0892 15.2215C23.675 14.342 28.3247 14.342 32.9095 15.2215C34.9162 15.672 37.4396 18.1103 37.9319 20.0716C38.7533 23.8665 38.7533 27.7134 37.9319 31.5082Z" fill="white"/>
<path d="M30.363 34.0741C30.0547 33.9797 29.7608 33.9163 29.4879 33.8021C26.66 32.619 24.0575 31.0927 21.9959 28.753C20.8236 27.4225 19.906 25.9204 19.1304 24.3308C18.7625 23.5769 18.4526 22.7935 18.1366 22.0152C17.8485 21.3055 18.2729 20.5723 18.7197 20.0375C19.139 19.5357 19.6785 19.1516 20.2628 18.8685C20.7188 18.6476 21.1687 18.775 21.5018 19.1648C22.2218 20.0075 22.8832 20.8933 23.4188 21.8702C23.7481 22.471 23.6577 23.2055 23.0609 23.6144C22.9158 23.7138 22.7836 23.8304 22.6485 23.9427C22.53 24.0411 22.4184 24.1404 22.3372 24.2736C22.1887 24.5174 22.1816 24.8048 22.2772 25.0698C23.0133 27.1095 24.2539 28.6956 26.2898 29.5498C26.6156 29.6865 26.9428 29.8457 27.3181 29.8015C27.9466 29.7275 28.1501 29.0323 28.5906 28.669C29.0211 28.314 29.5713 28.3093 30.035 28.6053C30.4989 28.9013 30.9485 29.2191 31.3955 29.5402C31.8342 29.8555 32.271 30.1639 32.6757 30.5232C33.0648 30.8688 33.1988 31.3221 32.9797 31.7911C32.5785 32.65 31.9949 33.3645 31.1529 33.8206C30.9151 33.9492 30.6312 33.9909 30.363 34.0741C30.6312 33.9909 30.0547 33.9796 30.363 34.0741ZM26.0077 17.8865C29.7066 17.991 32.7447 20.4664 33.3957 24.1539C33.5067 24.7822 33.5462 25.4247 33.5955 26.0624C33.6163 26.3306 33.4656 26.5855 33.1785 26.589C32.882 26.5925 32.7486 26.3424 32.7294 26.0742C32.6913 25.5435 32.6649 25.0103 32.5923 24.484C32.2094 21.7054 30.0122 19.4067 27.2696 18.9134C26.8569 18.8391 26.4344 18.8196 26.0164 18.7754C25.7521 18.7474 25.4059 18.7313 25.3474 18.4C25.2983 18.1222 25.5307 17.9011 25.793 17.8869C25.8643 17.8829 25.936 17.8862 26.0077 17.8865C29.7066 17.991 25.936 17.8862 26.0077 17.8865Z" fill="white"/>
<path d="M31.6289 25.2346C31.6229 25.2812 31.6196 25.3907 31.5926 25.4939C31.4944 25.8684 30.9314 25.9152 30.8017 25.5373C30.7633 25.4251 30.7575 25.2975 30.7573 25.1768C30.756 24.3868 30.5857 23.5976 30.1907 22.9102C29.7846 22.2038 29.1641 21.6099 28.4364 21.2505C27.9963 21.0332 27.5204 20.8982 27.0381 20.8177C26.8273 20.7826 26.6143 20.7612 26.4025 20.7315C26.1458 20.6955 26.0087 20.5306 26.0209 20.2755C26.0322 20.0365 26.2055 19.8646 26.4638 19.8793C27.3127 19.9279 28.1326 20.1129 28.8873 20.5159C30.4219 21.3354 31.2986 22.629 31.5545 24.3563C31.566 24.4346 31.5847 24.5121 31.5905 24.5907C31.605 24.7847 31.6141 24.9788 31.6289 25.2346C31.6229 25.2812 31.6141 24.9788 31.6289 25.2346Z" fill="white"/>
<path d="M29.3282 25.1444C29.0187 25.15 28.8531 24.9773 28.8212 24.6912C28.799 24.4917 28.7815 24.2895 28.7343 24.0954C28.6413 23.7132 28.4398 23.359 28.1209 23.1247C27.9704 23.0141 27.7998 22.9335 27.6211 22.8815C27.3941 22.8154 27.1583 22.8336 26.9318 22.7776C26.6859 22.7168 26.5498 22.516 26.5885 22.2833C26.6237 22.0716 26.828 21.9063 27.0574 21.923C28.4915 22.0274 29.5165 22.7751 29.6628 24.4775C29.6731 24.5976 29.6853 24.7246 29.6588 24.8395C29.6135 25.0362 29.4691 25.1348 29.3282 25.1444C29.4691 25.1348 29.0187 25.15 29.3282 25.1444Z" fill="white"/>
</svg>
