<svg width="50" height="50" viewBox="0 0 50 50" fill="none" xmlns="http://www.w3.org/2000/svg">
<path d="M39.0386 18.7143L39.0299 18.6789C38.3208 15.7883 35.124 12.6865 32.1883 12.0412L32.1551 12.0343C27.4067 11.1209 22.5921 11.1209 17.8447 12.0343L17.8106 12.0412C14.8758 12.6865 11.679 15.7883 10.969 18.6789L10.9612 18.7143C10.0846 22.7511 10.0846 26.8449 10.9612 30.8818L10.969 30.9171C11.6488 33.6844 14.6075 36.6437 17.4336 37.4575V40.6842C17.4336 41.8521 18.845 42.4257 19.6476 41.583L22.8897 38.1846C23.5928 38.2243 24.2964 38.2464 24.9999 38.2464C27.3902 38.2464 29.7814 38.0185 32.1551 37.5618L32.1883 37.5549C35.124 36.9096 38.3208 33.8078 39.0299 30.9172L39.0386 30.8819C39.9153 26.8449 39.9153 22.7511 39.0386 18.7143ZM36.473 30.2964C35.9996 32.1822 33.5724 34.5267 31.6438 34.9599C29.119 35.444 26.5742 35.6509 24.032 35.5799C23.9815 35.5786 23.9329 35.5983 23.8976 35.6348C23.5368 36.0083 21.5304 38.0852 21.5304 38.0852L19.0125 40.691C18.8284 40.8845 18.5051 40.7529 18.5051 40.4857V35.1404C18.5051 35.0521 18.4425 34.9771 18.3565 34.9601L18.3551 34.9598C16.4265 34.5266 14.0002 32.1821 13.5258 30.2963C12.7368 26.6474 12.7368 22.9484 13.5258 19.2996C14.0002 17.4137 16.4265 15.0692 18.3551 14.6361C22.7645 13.7904 27.2353 13.7904 31.6438 14.6361C33.5733 15.0692 35.9996 17.4137 36.473 19.2996C37.2629 22.9485 37.2629 26.6475 36.473 30.2964Z" fill="white"/>
<path d="M29.1953 32.7636C28.8988 32.6728 28.6162 32.6118 28.3538 32.502C25.6347 31.3644 23.1322 29.8968 21.15 27.6471C20.0227 26.3678 19.1404 24.9234 18.3946 23.3949C18.0409 22.6701 17.7429 21.9168 17.4391 21.1685C17.1621 20.4861 17.5701 19.781 17.9997 19.2669C18.4029 18.7843 18.9217 18.415 19.4835 18.1428C19.922 17.9304 20.3546 18.0529 20.6748 18.4277C21.3672 19.238 22.0031 20.0897 22.5181 21.029C22.8347 21.6067 22.7479 22.313 22.174 22.7061C22.0345 22.8017 21.9074 22.9139 21.7774 23.0218C21.6635 23.1164 21.5562 23.212 21.4781 23.34C21.3353 23.5744 21.3285 23.8508 21.4204 24.1056C22.1282 26.0668 23.3211 27.5919 25.2787 28.4133C25.5919 28.5447 25.9065 28.6977 26.2674 28.6553C26.8718 28.5841 27.0675 27.9156 27.491 27.5664C27.905 27.225 28.434 27.2205 28.8799 27.5051C29.3259 27.7897 29.7582 28.0953 30.188 28.4041C30.6098 28.7072 31.0299 29.0037 31.419 29.3492C31.7931 29.6815 31.922 30.1174 31.7113 30.5683C31.3256 31.3942 30.7643 32.0812 29.9547 32.5198C29.7261 32.6434 29.4531 32.6835 29.1953 32.7636C29.4531 32.6835 28.8988 32.6727 29.1953 32.7636ZM25.0074 17.1985C28.5641 17.299 31.4853 19.6792 32.1113 23.2249C32.218 23.8291 32.256 24.4468 32.3034 25.06C32.3234 25.3179 32.1785 25.563 31.9025 25.5663C31.6174 25.5697 31.4891 25.3292 31.4706 25.0714C31.434 24.561 31.4086 24.0484 31.3388 23.5423C30.9706 20.8706 28.858 18.6602 26.2208 18.1859C25.8239 18.1145 25.4178 18.0958 25.0158 18.0532C24.7617 18.0263 24.4288 18.0108 24.3725 17.6923C24.3253 17.4252 24.5488 17.2126 24.801 17.1989C24.8696 17.1951 24.9385 17.1982 25.0074 17.1985C28.5641 17.299 24.9385 17.1982 25.0074 17.1985Z" fill="white"/>
<path d="M30.4125 24.2641C30.4066 24.3088 30.4035 24.4141 30.3775 24.5133C30.2831 24.8734 29.7418 24.9185 29.6171 24.5551C29.5802 24.4472 29.5746 24.3246 29.5744 24.2085C29.5731 23.4488 29.4094 22.69 29.0295 22.0291C28.639 21.3498 28.0425 20.7787 27.3427 20.4332C26.9196 20.2243 26.462 20.0944 25.9983 20.017C25.7956 19.9832 25.5907 19.9627 25.387 19.9341C25.1402 19.8995 25.0084 19.7409 25.0201 19.4957C25.031 19.2658 25.1976 19.1005 25.446 19.1147C26.2622 19.1614 27.0506 19.3393 27.7763 19.7268C29.2519 20.5148 30.0948 21.7587 30.3409 23.4196C30.352 23.4948 30.3699 23.5693 30.3756 23.6449C30.3895 23.8314 30.3982 24.0181 30.4125 24.2641C30.4066 24.3088 30.3982 24.0181 30.4125 24.2641Z" fill="white"/>
<path d="M28.2002 24.1773C27.9026 24.1827 27.7434 24.0166 27.7127 23.7415C27.6914 23.5497 27.6745 23.3553 27.6291 23.1687C27.5397 22.8011 27.346 22.4605 27.0394 22.2353C26.8946 22.1289 26.7306 22.0514 26.5588 22.0014C26.3405 21.9379 26.1138 21.9554 25.896 21.9016C25.6595 21.8431 25.5287 21.65 25.5659 21.4263C25.5997 21.2227 25.7962 21.0637 26.0168 21.0798C27.3958 21.1802 28.3813 21.8991 28.5219 23.536C28.5319 23.6515 28.5436 23.7736 28.5181 23.8841C28.4746 24.0733 28.3357 24.1681 28.2002 24.1773C28.3357 24.1681 27.9026 24.1827 28.2002 24.1773Z" fill="white"/>
</svg>
