<svg width="36" height="36" viewBox="0 0 36 36" fill="none" xmlns="http://www.w3.org/2000/svg">
<path d="M28.108 13.4743L28.1016 13.4488C27.5911 11.3676 25.2894 9.13431 23.1757 8.66969L23.1519 8.66474C19.733 8.00706 16.2665 8.00706 12.8483 8.66474L12.8238 8.66969C10.7107 9.13431 8.40906 11.3676 7.89781 13.4488L7.8922 13.4743C7.26103 16.3808 7.26103 19.3284 7.8922 22.2349L7.89781 22.2604C8.38725 24.2528 10.5175 26.3835 12.5524 26.9694V29.2927C12.5524 30.1335 13.5685 30.5465 14.1464 29.9397L16.4807 27.493C16.987 27.5215 17.4935 27.5374 18.0001 27.5374C19.7211 27.5374 21.4428 27.3734 23.1519 27.0445L23.1757 27.0396C25.2894 26.575 27.5911 24.3417 28.1016 22.2604L28.108 22.235C28.7391 19.3284 28.7391 16.3808 28.108 13.4743ZM26.2607 21.8134C25.9199 23.1712 24.1722 24.8593 22.7837 25.1711C20.9658 25.5197 19.1336 25.6687 17.3032 25.6176C17.2668 25.6166 17.2318 25.6308 17.2064 25.6571C16.9467 25.926 15.502 27.4214 15.502 27.4214L13.6892 29.2976C13.5566 29.4369 13.3238 29.3421 13.3238 29.1498V25.3011C13.3238 25.2375 13.2788 25.1835 13.2168 25.1713L13.2158 25.1711C11.8272 24.8592 10.0803 23.1711 9.73873 21.8133C9.17068 19.1862 9.17068 16.5229 9.73873 13.8957C10.0803 12.5379 11.8272 10.8499 13.2158 10.538C16.3906 9.92911 19.6096 9.92911 22.7837 10.538C24.1729 10.8499 25.9199 12.5379 26.2607 13.8957C26.8294 16.523 26.8294 19.1862 26.2607 21.8134Z" fill="white"/>
<path d="M21.0207 23.5898C20.8073 23.5244 20.6038 23.4805 20.4149 23.4015C18.4571 22.5824 16.6553 21.5257 15.2281 19.9059C14.4165 18.9848 13.7813 17.9449 13.2443 16.8444C12.9896 16.3225 12.775 15.7801 12.5563 15.2413C12.3568 14.75 12.6506 14.2424 12.96 13.8722C13.2502 13.5247 13.6237 13.2588 14.0283 13.0629C14.344 12.9099 14.6554 12.9981 14.886 13.2679C15.3845 13.8514 15.8424 14.4646 16.2132 15.1409C16.4412 15.5569 16.3786 16.0653 15.9654 16.3484C15.865 16.4172 15.7734 16.498 15.6799 16.5757C15.5978 16.6438 15.5206 16.7126 15.4644 16.8049C15.3616 16.9736 15.3567 17.1726 15.4229 17.356C15.9324 18.7681 16.7913 19.8662 18.2008 20.4576C18.4263 20.5522 18.6529 20.6624 18.9127 20.6319C19.3478 20.5806 19.4887 20.0993 19.7937 19.8478C20.0917 19.602 20.4726 19.5988 20.7937 19.8037C21.1148 20.0086 21.4261 20.2286 21.7355 20.451C22.0392 20.6692 22.3416 20.8827 22.6218 21.1315C22.8912 21.3707 22.984 21.6846 22.8323 22.0092C22.5546 22.6038 22.1505 23.0985 21.5675 23.4143C21.4029 23.5033 21.2064 23.5322 21.0207 23.5898C21.2064 23.5322 20.8073 23.5244 21.0207 23.5898ZM18.0055 12.383C20.5663 12.4553 22.6696 14.169 23.1203 16.722C23.1971 17.157 23.2244 17.6017 23.2586 18.0432C23.273 18.2289 23.1687 18.4054 22.9699 18.4078C22.7647 18.4102 22.6723 18.237 22.659 18.0514C22.6326 17.684 22.6143 17.3149 22.5641 16.9505C22.299 15.0268 20.7779 13.4354 18.8791 13.0939C18.5934 13.0425 18.3009 13.029 18.0115 12.9984C17.8285 12.979 17.5889 12.9678 17.5484 12.7385C17.5144 12.5462 17.6753 12.3931 17.8569 12.3833C17.9063 12.3805 17.9559 12.3828 18.0055 12.383C20.5663 12.4553 17.9559 12.3828 18.0055 12.383Z" fill="white"/>
<path d="M21.8971 17.4701C21.8929 17.5024 21.8907 17.5782 21.872 17.6496C21.804 17.9089 21.4142 17.9413 21.3244 17.6797C21.2979 17.602 21.2939 17.5137 21.2937 17.4301C21.2928 16.8832 21.1749 16.3368 20.9014 15.8609C20.6203 15.3719 20.1907 14.9607 19.6869 14.7119C19.3823 14.5615 19.0528 14.468 18.7189 14.4123C18.573 14.3879 18.4255 14.3732 18.2788 14.3526C18.1011 14.3277 18.0062 14.2135 18.0146 14.0369C18.0225 13.8714 18.1424 13.7524 18.3213 13.7626C18.9089 13.7962 19.4766 13.9243 19.9991 14.2033C21.0615 14.7707 21.6684 15.6663 21.8456 16.8621C21.8536 16.9163 21.8665 16.9699 21.8705 17.0243C21.8806 17.1586 21.8869 17.2931 21.8971 17.4701C21.8929 17.5024 21.8869 17.2931 21.8971 17.4701Z" fill="white"/>
<path d="M20.3043 17.4077C20.0901 17.4116 19.9754 17.292 19.9533 17.0939C19.9379 16.9558 19.9258 16.8158 19.8931 16.6815C19.8287 16.4168 19.6893 16.1716 19.4685 16.0094C19.3643 15.9329 19.2462 15.8771 19.1225 15.8411C18.9653 15.7953 18.8021 15.8079 18.6453 15.7691C18.475 15.7271 18.3808 15.588 18.4076 15.4269C18.432 15.2803 18.5734 15.1659 18.7323 15.1775C19.7251 15.2498 20.4347 15.7674 20.5359 16.946C20.5431 17.0291 20.5515 17.117 20.5332 17.1966C20.5019 17.3328 20.4018 17.401 20.3043 17.4077C20.4018 17.401 20.0901 17.4116 20.3043 17.4077Z" fill="white"/>
</svg>
