<svg width="100" height="100" fill="none" xmlns="http://www.w3.org/2000/svg"><g clip-path="url(#clip0_1946_202233)"><path d="M54.216 48.244c10.137-2.807 15.295 6.01 26.962 11.948 17.109 8.674 17.785 20.442 10.35 25.193-7.433 4.75-17.215-2.447-26.036.432-8.928 2.52-13.09 13.964-21.947 14.18-8.857.216-15.01-10.005-5.3-26.92 6.51-11.265 6.012-21.594 15.971-24.833zm22.053-14.759c-3.273 9.43-1.068 18.822 4.944 20.946 6.011 2.123 13.552-3.6 16.789-13.208 3.237-9.61 1.067-18.823-4.944-20.946-6.012-2.124-13.517 3.599-16.79 13.208zm-41.31 34.847c-3.853 5.126-13.352 4.376-21.218-1.676-7.865-6.052-11.118-15.113-7.265-20.24 3.852-5.125 13.352-4.375 21.217 1.677 7.866 6.051 11.119 15.112 7.266 20.239zM48.81 20.42c1.21 10.473 7.577 18.319 14.228 17.563 6.652-.756 11.098-9.933 9.889-20.37C71.717 7.176 65.35-.706 58.699.05 52.047.806 47.6 9.983 48.81 20.42zm-5.194 1.583c4.695 9.429 3.557 19.542-2.348 22.601-5.904 3.06-14.654-2.087-19.35-11.48-4.695-9.394-3.556-19.507 2.313-22.566C30.1 7.5 38.885 12.61 43.616 22.003z" fill="#F0F3FA"/><g clip-path="url(#clip1_1946_202233)"><path d="M65.69 45.172h16.896A2.42 2.42 0 0185 47.586v28.966a2.421 2.421 0 01-2.414 2.413H81.38c-.666 0-1.207.54-1.207 1.207V85L69.31 78.966H43.966a2.421 2.421 0 01-2.414-2.414V56.034L65.69 45.172z" fill="#955BA5"/><path d="M15 17.414V53.62a2.414 2.414 0 002.414 2.413h3.62c.667 0 1.207.54 1.207 1.207v6.035l13.276-7.242h27.759a2.414 2.414 0 002.414-2.413V17.414A2.414 2.414 0 0063.276 15H17.414A2.414 2.414 0 0015 17.414z" fill="#F0C419"/><path d="M40.345 47.586c2.032 0 3.048 1.207 5.08 1.207 4.066 0 4.066-4.828 2.033-7.241-2.032-2.414-3.048-7.242-7.113-7.242s-5.081 4.828-7.114 7.242c-2.032 2.413-2.032 7.241 2.033 7.241 2.032 0 3.048-1.207 5.08-1.207zm-5.211-15.805c1.97-.342 3.197-2.748 2.741-5.374-.456-2.626-2.422-4.478-4.392-4.136-1.97.342-3.196 2.748-2.74 5.374.455 2.626 2.422 4.478 4.391 4.136zm-6.32 8.348c1.591-.495 2.4-2.444 1.806-4.353-.594-1.91-2.365-3.057-3.956-2.562-1.592.495-2.4 2.444-1.806 4.354.593 1.91 2.365 3.056 3.956 2.561zm21.184-12.454c.456-2.626-.771-5.032-2.74-5.374-1.97-.342-3.937 1.51-4.393 4.136-.456 2.626.771 5.033 2.741 5.374 1.97.343 3.936-1.51 4.392-4.136zm5.854 9.904c.594-1.91-.215-3.859-1.806-4.354-1.591-.495-3.363.652-3.956 2.561-.594 1.91.214 3.86 1.805 4.354 1.592.495 3.363-.652 3.957-2.561z" fill="#35495E"/><path d="M19.828 23.448c-.667 0-1.207-.54-1.207-1.207v-2.413a1.207 1.207 0 012.413 0v2.413c0 .667-.54 1.207-1.206 1.207zm0 22.932a1.207 1.207 0 01-1.207-1.208V27.07a1.207 1.207 0 012.413 0v18.103c0 .667-.54 1.207-1.206 1.207z" fill="#F5EFCA"/><path d="M58.448 72.93H47.586a1.207 1.207 0 010-2.413h10.862a1.207 1.207 0 010 2.414zm20.518 0h-15.69a1.207 1.207 0 010-2.413h15.69a1.207 1.207 0 010 2.414zm0-4.827h-31.38a1.207 1.207 0 110-2.413h31.38a1.207 1.207 0 110 2.413zM65.69 63.276H47.586a1.207 1.207 0 110-2.414H65.69a1.207 1.207 0 110 2.414zm13.276 0h-8.449a1.207 1.207 0 110-2.414h8.449a1.207 1.207 0 010 2.414zm0-4.828h-8.449a1.207 1.207 0 010-2.414h8.449a1.207 1.207 0 010 2.414zm0-4.828h-8.449a1.207 1.207 0 010-2.413h8.449a1.207 1.207 0 010 2.414z" fill="#3D324C"/></g></g><defs><clipPath id="clip0_1946_202233"><path fill="#fff" d="M0 0h100v100H0z"/></clipPath><clipPath id="clip1_1946_202233"><path fill="#fff" transform="translate(15 15)" d="M0 0h70v70H0z"/></clipPath></defs></svg>