<svg width="100" height="100" fill="none" xmlns="http://www.w3.org/2000/svg"><g clip-path="url(#clip0_1946_202207)"><path d="M54.216 48.244c10.137-2.807 15.295 6.01 26.962 11.948 17.109 8.674 17.785 20.442 10.35 25.193-7.433 4.75-17.215-2.447-26.036.432-8.928 2.52-13.09 13.964-21.947 14.18-8.857.216-15.01-10.005-5.3-26.92 6.51-11.265 6.012-21.594 15.971-24.833zm22.053-14.759c-3.273 9.43-1.068 18.822 4.944 20.946 6.011 2.123 13.552-3.6 16.789-13.208 3.237-9.61 1.067-18.823-4.944-20.946-6.012-2.124-13.517 3.599-16.79 13.208zm-41.31 34.847c-3.853 5.126-13.352 4.376-21.218-1.676-7.865-6.052-11.118-15.113-7.265-20.24 3.852-5.125 13.352-4.375 21.217 1.677 7.866 6.051 11.119 15.112 7.266 20.239zM48.81 20.42c1.21 10.473 7.577 18.319 14.228 17.563 6.652-.756 11.098-9.933 9.889-20.37C71.717 7.176 65.35-.706 58.699.05 52.047.806 47.6 9.983 48.81 20.42zm-5.194 1.583c4.695 9.429 3.557 19.542-2.348 22.601-5.904 3.06-14.654-2.087-19.35-11.48-4.695-9.394-3.556-19.507 2.313-22.566C30.1 7.5 38.885 12.61 43.616 22.003z" fill="#F0F3FA"/><g clip-path="url(#clip1_1946_202207)"><path d="M84.333 40.807a31.958 31.958 0 01-.793 6.918C81.078 58.937 72.317 73.287 50.5 80.333c-21.817-7.046-30.578-21.396-33.04-32.608a31.958 31.958 0 01-.793-6.918c0-11.317 6.906-21.14 16.916-21.14A22.867 22.867 0 0150.5 27.25a22.867 22.867 0 0116.917-7.583c10.01 0 16.916 9.823 16.916 21.14z" fill="#DF4D60"/><path d="M84.333 40.807a31.958 31.958 0 01-.793 6.918C77.287 55.32 64.838 60.5 50.5 60.5c-14.338 0-26.787-5.18-33.04-12.775a31.958 31.958 0 01-.793-6.918c0-11.317 6.906-21.14 16.916-21.14A22.867 22.867 0 0150.5 27.25a22.867 22.867 0 0116.917-7.583c10.01 0 16.916 9.823 16.916 21.14z" fill="#FF5364"/><path d="M30.667 25.933a1.167 1.167 0 01-.343-2.283 11.078 11.078 0 013.26-.483 1.167 1.167 0 110 2.333 8.763 8.763 0 00-2.574.38 1.167 1.167 0 01-.343.053zm-9.334 16.042a1.167 1.167 0 01-1.166-1.167c0-6.122 2.398-11.887 6.26-15.044a1.166 1.166 0 111.477 1.806c-3.283 2.684-5.404 7.88-5.404 13.238 0 .644-.522 1.167-1.167 1.167z" fill="#FB7B76"/><path d="M50.5 65.167c3.53 0 3.53 2.333 7.106 2.333 5.33 0 5.834-7 2.308-10.5s-3.53-8.167-9.414-8.167c-5.883 0-5.883 4.667-9.414 8.167-3.53 3.5-3.021 10.5 2.308 10.5 3.576 0 3.576-2.333 7.106-2.333zM44.367 45.28c2.552-.366 4.212-3.507 3.709-7.015-.503-3.509-2.98-6.056-5.531-5.69-2.552.366-4.212 3.507-3.709 7.015.503 3.508 2.98 6.056 5.531 5.69zm17.787-5.714c.503-3.509-1.157-6.65-3.709-7.016-2.551-.365-5.028 2.182-5.531 5.69-.503 3.509 1.157 6.65 3.709 7.015 2.551.366 5.028-2.181 5.531-5.69z" fill="#35495E"/><path d="M31.833 65.167c-.46 0-.879-.272-1.066-.693l-3.662-8.242-1.222 2.456a1.167 1.167 0 01-1.05.645h-8.166a1.167 1.167 0 110-2.333h7.445l2.01-4.021a1.15 1.15 0 011.07-.645c.452.01.858.28 1.041.692l3.29 7.404 2.683-10.713a1.167 1.167 0 012.264.567l-3.5 14a1.167 1.167 0 01-1.137.883zm38.5-2.333h-.056a1.167 1.167 0 01-1.05-.797L65.333 50.37a1.168 1.168 0 012.217-.737l2.943 8.814 3.445-7.753A1.196 1.196 0 0175.022 50c.47.009.887.297 1.062.733l2.04 5.1h6.21a1.167 1.167 0 010 2.334h-7c-.478 0-.907-.29-1.085-.733l-1.306-3.267-3.543 7.975a1.167 1.167 0 01-1.067.691z" fill="#ECF0F1"/><path d="M36.448 53.242c1.74-.843 2.239-3.407 1.115-5.726-1.124-2.32-3.445-3.517-5.185-2.674-1.74.843-2.239 3.406-1.115 5.726 1.124 2.32 3.445 3.517 5.185 2.674zm33.276-2.702c1.123-2.32.624-4.884-1.116-5.727-1.74-.843-4.06.355-5.185 2.674-1.123 2.32-.624 4.883 1.116 5.726 1.74.843 4.06-.354 5.184-2.674z" fill="#35495E"/></g></g><defs><clipPath id="clip0_1946_202207"><path fill="#fff" d="M0 0h100v100H0z"/></clipPath><clipPath id="clip1_1946_202207"><path fill="#fff" transform="translate(15.5 15)" d="M0 0h70v70H0z"/></clipPath></defs></svg>