<svg width="100" height="100" fill="none" xmlns="http://www.w3.org/2000/svg"><g clip-path="url(#clip0_1946_202264)"><path d="M54.216 48.244c10.137-2.807 15.295 6.01 26.962 11.948 17.109 8.674 17.785 20.442 10.35 25.193-7.434 4.75-17.215-2.447-26.037.432-8.927 2.52-13.09 13.964-21.946 14.18-8.857.216-15.01-10.005-5.3-26.92 6.51-11.265 6.012-21.594 15.971-24.833zm22.053-14.759c-3.273 9.43-1.067 18.822 4.944 20.946 6.011 2.123 13.552-3.6 16.789-13.208 3.237-9.61 1.067-18.823-4.944-20.946-6.012-2.124-13.517 3.599-16.79 13.208zm-41.31 34.847c-3.853 5.126-13.352 4.376-21.218-1.676-7.865-6.052-11.118-15.113-7.266-20.24 3.853-5.125 13.352-4.375 21.218 1.677 7.865 6.051 11.118 15.112 7.266 20.239zM48.81 20.42c1.21 10.473 7.577 18.319 14.228 17.563 6.652-.756 11.098-9.933 9.889-20.37C71.717 7.176 65.35-.706 58.699.05 52.047.806 47.6 9.983 48.81 20.42zm-5.194 1.583c4.695 9.429 3.557 19.542-2.347 22.601-5.905 3.06-14.655-2.087-19.35-11.48-4.695-9.394-3.557-19.507 2.312-22.566C30.1 7.5 38.885 12.61 43.616 22.003z" fill="#F0F3FA"/><g clip-path="url(#clip1_1946_202264)"><path d="M62.069 67.38v7.965A9.655 9.655 0 0152.414 85h-4.828a9.655 9.655 0 01-9.655-9.655v-12.07c0-.666-.54-1.206-1.207-1.206H24.655A9.655 9.655 0 0115 52.414v-4.828a9.655 9.655 0 019.655-9.655h12.07c.666 0 1.206-.54 1.206-1.207V24.655A9.655 9.655 0 0147.586 15h4.828a9.655 9.655 0 019.655 9.655V67.38z" fill="#E64C3C"/><path d="M64.483 66.897c3.652 0 3.652 2.413 7.351 2.413 5.513 0 6.034-7.241 2.387-10.862C70.574 54.828 70.57 50 64.483 50s-6.087 4.828-9.739 8.448c-3.652 3.621-3.126 10.862 2.388 10.862 3.699 0 3.699-2.413 7.35-2.413zm-6.337-20.563c2.64-.38 4.358-3.629 3.837-7.259-.52-3.63-3.083-6.266-5.723-5.887-2.64.379-4.358 3.628-3.837 7.258.52 3.63 3.083 6.266 5.723 5.888zm-8.199 8.23c1.8-.872 2.316-3.524 1.154-5.924-1.163-2.4-3.564-3.638-5.364-2.766-1.8.872-2.316 3.524-1.153 5.923 1.162 2.4 3.563 3.639 5.363 2.767zM76.536 40.41c.52-3.629-1.197-6.878-3.837-7.256-2.64-.38-5.2 2.256-5.721 5.885-.521 3.63 1.197 6.879 3.836 7.258 2.64.378 5.202-2.257 5.722-5.886zm7.831 11.35c1.162-2.4.646-5.052-1.154-5.924-1.8-.872-4.2.367-5.363 2.766-1.163 2.4-.646 5.052 1.154 5.924 1.8.871 4.2-.367 5.363-2.767z" fill="#35495E"/><path d="M19.828 48.793c-.667 0-1.207-.54-1.207-1.207a6.042 6.042 0 016.034-6.034 1.207 1.207 0 010 2.413c-2 0-3.62 1.622-3.62 3.621a1.207 1.207 0 01-1.207 1.207zm10.862-4.827h-1.207a1.207 1.207 0 010-2.414h1.207a1.207 1.207 0 010 2.414z" fill="#FB7B76"/></g></g><defs><clipPath id="clip0_1946_202264"><path fill="#fff" d="M0 0h100v100H0z"/></clipPath><clipPath id="clip1_1946_202264"><path fill="#fff" transform="translate(15 15)" d="M0 0h70v70H0z"/></clipPath></defs></svg>