<svg width="116" height="24" fill="none" xmlns="http://www.w3.org/2000/svg"><path d="M5 13v-2h14v2H5z" fill="#008BD2"/><path d="M35.71 18.5a.439.439 0 01-.324-.126.439.439 0 01-.126-.324V6.35c0-.132.042-.24.126-.324a.48.48 0 01.324-.126h9.99c.132 0 .24.042.324.126a.439.439 0 01.126.324v11.7c0 .132-.042.24-.126.324a.439.439 0 01-.324.126h-2.322a.439.439 0 01-.324-.126.439.439 0 01-.126-.324V8.78H38.5v9.27a.41.41 0 01-.144.324.439.439 0 01-.324.126H35.71zm13.412 0a.48.48 0 01-.324-.126.48.48 0 01-.126-.324V6.35c0-.132.042-.24.126-.324a.48.48 0 01.324-.126h5.04c1.536 0 2.742.354 3.618 1.062.888.708 1.332 1.74 1.332 3.096 0 1.344-.438 2.358-1.314 3.042-.876.672-2.088 1.008-3.636 1.008H52.02v3.942a.41.41 0 01-.144.324.439.439 0 01-.324.126h-2.43zm4.95-6.876c.528 0 .942-.132 1.242-.396.3-.276.45-.678.45-1.206 0-.492-.144-.882-.432-1.17-.276-.3-.696-.45-1.26-.45h-2.106v3.222h2.106zm11.912 7.056c-1.692 0-3.024-.414-3.996-1.242-.972-.828-1.488-2.046-1.548-3.654a48.899 48.899 0 01-.018-1.548c0-.696.006-1.218.018-1.566.06-1.584.582-2.802 1.566-3.654.996-.864 2.322-1.296 3.978-1.296 1.656 0 2.982.432 3.978 1.296.996.852 1.518 2.07 1.566 3.654.024.696.036 1.218.036 1.566 0 .336-.012.852-.036 1.548-.06 1.608-.576 2.826-1.548 3.654-.972.828-2.304 1.242-3.996 1.242zm0-2.592c.66 0 1.182-.198 1.566-.594.396-.396.606-1.002.63-1.818.024-.696.036-1.188.036-1.476 0-.312-.012-.804-.036-1.476-.024-.816-.234-1.422-.63-1.818-.396-.396-.918-.594-1.566-.594s-1.17.198-1.566.594c-.384.396-.594 1.002-.63 1.818-.012.336-.018.828-.018 1.476 0 .636.006 1.128.018 1.476.036.816.246 1.422.63 1.818.384.396.906.594 1.566.594zM77.933 18.5a.439.439 0 01-.324-.126.439.439 0 01-.126-.324V6.35c0-.132.042-.24.126-.324a.48.48 0 01.324-.126h2.322c.132 0 .24.042.324.126a.41.41 0 01.144.324v4.338h4.428V6.35c0-.132.042-.24.126-.324A.439.439 0 0185.6 5.9h2.322c.132 0 .24.042.324.126a.439.439 0 01.126.324v11.7c0 .132-.042.24-.126.324a.439.439 0 01-.324.126H85.6a.439.439 0 01-.324-.126.439.439 0 01-.126-.324v-4.482h-4.428v4.482a.41.41 0 01-.144.324.439.439 0 01-.324.126h-2.322zm12.242 0a.408.408 0 01-.27-.108.408.408 0 01-.108-.27c0-.072.006-.126.018-.162l4.23-11.556a.654.654 0 01.234-.36.726.726 0 01.468-.144h2.664c.192 0 .348.048.468.144.12.096.198.216.234.36l4.212 11.556.036.162a.378.378 0 01-.126.27.366.366 0 01-.27.108h-2.214c-.288 0-.48-.126-.576-.378l-.702-1.836h-4.806l-.684 1.836c-.096.252-.294.378-.594.378h-2.214zm7.578-4.806l-1.674-4.752-1.674 4.752h3.348zm11.193 4.986c-1.716 0-3.06-.414-4.032-1.242-.96-.84-1.47-2.052-1.53-3.636a48.41 48.41 0 01-.018-1.584c0-.744.006-1.284.018-1.62.06-1.56.582-2.76 1.566-3.6.984-.852 2.316-1.278 3.996-1.278 1.056 0 2.004.18 2.844.54.84.348 1.5.852 1.98 1.512.492.648.744 1.41.756 2.286v.036c0 .096-.042.18-.126.252a.382.382 0 01-.252.09h-2.43c-.156 0-.276-.03-.36-.09-.084-.072-.156-.198-.216-.378-.168-.612-.432-1.038-.792-1.278-.36-.252-.834-.378-1.422-.378-1.416 0-2.148.792-2.196 2.376a44.56 44.56 0 00-.018 1.494c0 .672.006 1.182.018 1.53.048 1.584.78 2.376 2.196 2.376.588 0 1.068-.126 1.44-.378.372-.264.63-.69.774-1.278.048-.18.114-.3.198-.36.084-.072.21-.108.378-.108h2.43c.108 0 .198.036.27.108.084.072.12.162.108.27-.012.876-.264 1.644-.756 2.304-.48.648-1.14 1.152-1.98 1.512-.84.348-1.788.522-2.844.522z" fill="#303030"/></svg>