<svg width="273" height="75" fill="none" xmlns="http://www.w3.org/2000/svg"><path fill-rule="evenodd" clip-rule="evenodd" d="M37.074 68.19c-5.869-3.1-12.792-7.437-18.312-15.287-14.93-21.23 9.107-31.954 18.276-19.585.014.02.071.029.084.008 9.117-12.417 33.63-1.35 18.284 19.577-5.757 7.85-12.443 12.187-18.312 15.287h-.02z" fill="#fff"/><path fill-rule="evenodd" clip-rule="evenodd" d="M38.47 58.037a.687.687 0 01-.5-.22.713.713 0 01-.179-.36l-3.288-18.344-3.965 16.676a.71.71 0 01-.183.337.685.685 0 01-.703.17.693.693 0 01-.311-.213l-2.483-2.997H22.07a.681.681 0 01-.487-.207.714.714 0 01-.15-.769.706.706 0 01.373-.382.674.674 0 01.264-.054h5.106a.679.679 0 01.527.248l1.813 2.19 4.41-18.547a.701.701 0 01.251-.396.68.68 0 01.87.027c.12.105.2.25.228.408l3.585 19.994 2.613-3.622a.693.693 0 01.556-.288h8.064c.183 0 .358.074.488.207a.715.715 0 010 .999.682.682 0 01-.488.207h-7.716l-3.352 4.648a.691.691 0 01-.555.288z" fill="#008BD2"/><path fill-rule="evenodd" clip-rule="evenodd" d="M52.595 52.404c0 .326-.095.645-.273.917-.177.27-.429.482-.724.607a1.58 1.58 0 01-.932.093 1.602 1.602 0 01-.825-.452 1.664 1.664 0 01-.441-.845 1.69 1.69 0 01.092-.954c.122-.301.328-.559.593-.74a1.587 1.587 0 012.039.204 1.684 1.684 0 01.472 1.17z" fill="#008BD2"/><path fill-rule="evenodd" clip-rule="evenodd" d="M10.565 71.63c0 .627.509 1.136 1.136 1.136h50.545c.628 0 1.137-.509 1.137-1.136V25.148a1.145 1.145 0 01.318-.79 1.082 1.082 0 01.768-.327h.992c1.123 0 1.565-1.455.632-2.08L37.605 2.874a1.136 1.136 0 00-1.265 0L7.853 21.951c-.933.625-.49 2.08.633 2.08h.992c.288 0 .564.118.768.327.203.21.318.494.318.79l.001 46.482zM64.47 75H9.478c-.288 0-.564-.118-.768-.327a1.134 1.134 0 01-.319-.79v-46.48c0-.628-.508-1.137-1.136-1.137H1.086c-.234 0-.462-.077-.65-.222A1.117 1.117 0 010 25.151a1.141 1.141 0 01.13-.537c.086-.165.211-.305.364-.407L36.38.181a1.064 1.064 0 011.185 0L73.45 24.215c.195.132.343.325.423.55.08.225.087.47.021.7-.066.23-.203.432-.389.576a1.067 1.067 0 01-.646.224h-6.17c-.627 0-1.136.509-1.136 1.137v46.482c0 .296-.114.58-.318.789a1.07 1.07 0 01-.767.327h.002z" fill="#fff"/><path d="M93.95 49.057c-.514 1.51-.989 3.297-1.424 4.926-.435-1.59-.87-3.417-1.385-4.886l-7.717-21.808c-.277-.795-.95-1.152-1.702-1.152-.237 0-.475.04-.712.119-.831.198-1.465.874-1.465 1.668 0 .199.04.437.12.636l10.17 27.21c.514 1.39 1.464 1.827 2.691 1.827 1.187 0 2.137-.437 2.651-1.787l10.211-27.33a1.6 1.6 0 00.119-.596c0-.794-.634-1.39-1.465-1.628a4.344 4.344 0 00-.712-.08c-.792 0-1.425.358-1.702 1.152l-7.677 21.729zm30.227-2.026c1.227 0 1.979-.755 1.979-2.185v-.317c-.396-5.204-3.641-9.733-9.419-9.733-6.451 0-10.012 4.807-10.012 11.679s3.759 11.48 10.25 11.48c5.144 0 7.44-2.622 8.706-5.243.158-.239.198-.477.198-.716 0-.715-.554-1.191-1.227-1.39-.277-.08-.554-.159-.831-.159-.554 0-1.068.278-1.425.993-.949 2.106-2.532 3.536-5.382 3.536-4.274 0-6.688-3.059-6.767-7.945h13.93zm-13.811-2.9c.514-3.893 2.572-6.435 6.371-6.435 3.641 0 5.343 2.9 5.818 5.72v.199c0 .357-.159.516-.594.516h-11.595zm22.447-8.779h-3.047c-.989 0-1.425.676-1.425 1.59 0 .913.436 1.549 1.385 1.549h3.087v13.625c0 4.17 2.375 5.8 5.62 5.8 1.702 0 2.77-.319 3.918-.875.593-.317.831-.874.831-1.43 0-.278-.04-.596-.158-.874-.238-.596-.713-1.032-1.306-1.032-.238 0-.475.079-.713.198-.673.397-1.345.675-2.335.675-1.464 0-2.295-.834-2.295-2.78V38.49h5.066c.949 0 1.464-.636 1.464-1.55 0-.953-.475-1.589-1.464-1.589h-5.066v-4.806c0-1.033-.752-1.589-1.781-1.589-1.108 0-1.781.556-1.781 1.589v4.806zm42.26 3.972h-16.752v-11.56c0-1.112-.826-1.628-1.888-1.628-1.101 0-1.887.516-1.887 1.628v28.164c0 1.073.786 1.629 1.887 1.629 1.062 0 1.888-.556 1.888-1.629V42.78h16.752v13.148c0 1.073.826 1.629 1.967 1.629 1.022 0 1.809-.556 1.809-1.629V27.764c0-1.112-.787-1.628-1.809-1.628-1.141 0-1.967.516-1.967 1.628v11.56zm19.19-4.568c-6.371 0-10.185 4.647-10.185 11.52 0 7.07 3.775 11.678 10.263 11.678 6.135 0 9.91-4.767 9.91-11.679 0-6.911-3.696-11.52-9.988-11.52zm.118 3.058c4.011 0 6.252 3.416 6.252 8.422 0 5.283-2.241 8.66-6.527 8.66-4.051 0-6.411-3.457-6.411-8.502 0-5.283 2.439-8.58 6.686-8.58zm14.296 12.315c0 4.846 2.556 7.785 7.197 7.785 3.932 0 6.213-2.026 7.432-4.806-.118.635-.236 1.43-.236 1.867v1.112c0 .993.747 1.47 1.809 1.47 1.022 0 1.73-.517 1.73-1.59V36.663c0-1.072-.747-1.589-1.769-1.589-1.062 0-1.809.517-1.809 1.59v11.042c0 1.55-.393 2.781-1.337 4.132-1.337 1.867-3.028 2.86-5.113 2.86-2.91 0-4.286-1.907-4.286-5.323V36.662c0-1.072-.747-1.589-1.809-1.589-1.062 0-1.809.517-1.809 1.59v13.466zm32.038-2.463c3.578.715 4.601 1.787 4.601 3.734 0 2.026-2.045 3.416-5.191 3.416-3.107 0-4.719-1.152-5.427-3.456-.236-.755-.944-1.073-1.691-1.073-.158 0-.354.04-.551.08-.747.159-1.415.715-1.415 1.51 0 .158.039.317.078.516 1.023 3.535 3.972 5.56 9.006 5.56 5.505 0 8.73-2.82 8.73-6.633 0-4.17-2.045-5.68-7.157-6.753l-2.439-.516c-3.303-.715-4.05-1.51-4.05-3.337 0-1.668 1.494-2.98 4.68-2.98 2.241 0 3.972.914 4.483 2.702.196.755.904 1.073 1.612 1.073.197 0 .433-.04.629-.08.708-.199 1.377-.715 1.377-1.47 0-.159-.04-.317-.079-.476-.983-2.9-3.775-4.767-8.14-4.767-5.073 0-8.141 2.463-8.141 6.078 0 3.773 2.006 5.481 6.843 6.435l2.242.437zm28.91-.676c1.219 0 1.966-.754 1.966-2.184v-.318c-.393-5.204-3.618-9.732-9.359-9.732-6.41 0-9.95 4.806-9.95 11.678 0 6.872 3.736 11.48 10.186 11.48 5.112 0 7.393-2.622 8.651-5.243a1.24 1.24 0 00.197-.715c0-.715-.551-1.192-1.219-1.39-.276-.08-.551-.16-.826-.16-.551 0-1.062.279-1.416.994-.944 2.105-2.517 3.535-5.348 3.535-4.247 0-6.646-3.059-6.725-7.945h13.843zm-13.725-2.9c.511-3.892 2.556-6.435 6.332-6.435 3.617 0 5.308 2.9 5.78 5.72v.2c0 .357-.157.516-.589.516H255.9zM111.651 73.525h-3.696V65.53h3.611c.697 0 1.249.188 1.654.563.414.376.62.867.62 1.474 0 .48-.138.888-.413 1.223a1.74 1.74 0 01-1.01.611c.43.064.799.288 1.107.672.316.383.474.815.474 1.294 0 .648-.21 1.171-.632 1.57-.413.392-.985.588-1.715.588zm-.255-4.531c.446 0 .79-.12 1.034-.36.243-.24.364-.547.364-.923 0-.375-.125-.683-.377-.923-.243-.247-.583-.371-1.021-.371h-2.432v2.577h2.432zm.049 3.644c.47 0 .839-.124 1.106-.372.268-.247.402-.583.402-1.007 0-.391-.134-.719-.402-.983-.259-.263-.628-.395-1.106-.395h-2.481v2.757h2.481zm9.471.887h-5.314V65.53h5.314v.887h-4.304v2.577h4.219v.887h-4.219v2.757h4.304v.887zm4.626 0h-1.01v-7.108h-2.566v-.887h6.154v.887h-2.578v7.108zm9.233 0h-5.314V65.53h5.314v.887h-4.305v2.577h4.22v.887h-4.22v2.757h4.305v.887zm2.619 0h-1.01V65.53h3.259c.787 0 1.407.231 1.861.695.454.463.681 1.035.681 1.714 0 .68-.231 1.25-.693 1.714-.454.464-1.07.695-1.849.695h-2.249v3.177zm2.128-4.064c.478 0 .867-.14 1.167-.42.3-.287.45-.654.45-1.102 0-.447-.15-.811-.45-1.09-.3-.288-.689-.432-1.167-.432h-2.128v3.044h2.128zm4.972 4.064h-.972V65.53h1.009v6.245l4.669-6.245h1.034v7.995h-1.009v-6.377l-4.731 6.377zm14.398 0h-1.009v-3.668h-4.742v3.668h-1.01V65.53h1.01v3.44h4.742v-3.44h1.009v7.995zm8.84 0h-1.155l-.718-1.774h-4.037l-.717 1.774h-1.156l3.259-7.995h1.253l3.271 7.995zm-2.177-2.661l-1.714-4.303-1.727 4.303h3.441zm4.247 2.661h-1.01V65.53h3.259c.787 0 1.407.231 1.861.695.454.463.681 1.035.681 1.714 0 .68-.231 1.25-.693 1.714-.454.464-1.07.695-1.849.695h-2.249v3.177zm2.128-4.064c.478 0 .867-.14 1.167-.42.3-.287.45-.654.45-1.102 0-.447-.15-.811-.45-1.09-.3-.288-.689-.432-1.167-.432h-2.128v3.044h2.128zm10.761 4.064h-1.009v-3.668h-4.743v3.668h-1.009V65.53h1.009v3.44h4.743v-3.44h1.009v7.995zm2.869 0h-.973V65.53h1.009v6.245l4.67-6.245h1.033v7.995h-1.009v-6.377l-4.73 6.377zm8.609 0h-.972V65.53h1.009v6.245l4.669-6.245h1.034v7.995H198.9v-6.377l-4.731 6.377zm4.512-9.506c-.527.704-1.236 1.055-2.128 1.055-.884 0-1.597-.351-2.14-1.055l.449-.383c.422.575.985.863 1.691.863.713 0 1.273-.288 1.678-.863l.45.383zM211.435 75v-1.475h-6.494V65.53h1.01v7.108h4.742V65.53h1.01v7.108h.741v2.361h-1.009zm7.608-1.475h-5.314V65.53h5.314v.887h-4.305v2.577h4.22v.887h-4.22v2.757h4.305v.887zm8.371 0h-1.01v-3.668h-4.742v3.668h-1.009V65.53h1.009v3.44h4.742v-3.44h1.01v7.995zm4.912 0h-1.01v-7.108h-2.566v-.887h6.154v.887h-2.578v7.108zm4.928 0h-1.009V65.53h3.259c.786 0 1.407.231 1.861.695.454.463.681 1.035.681 1.714 0 .68-.232 1.25-.694 1.714-.454.464-1.07.695-1.848.695h-2.25v3.177zm2.128-4.064c.479 0 .868-.14 1.168-.42.3-.287.45-.654.45-1.102 0-.447-.15-.811-.45-1.09-.3-.288-.689-.432-1.168-.432h-2.128v3.044h2.128z" fill="#fff"/></svg>